<svg xmlns="http://www.w3.org/2000/svg" viewBox="0 0 275.21 66.72"><defs><style>.cls-1{fill:#89d3d1;}</style></defs><g id="OBJECTS"><path class="cls-1" d="M223.88,52.39a12.74,12.74,0,0,0-3.44.76h-2.37l-.68.39-.75-.34H214.7l-.79-.39-2.25-.06c-.14-.35.17-.36.5-.35s.63,0,.57-.28a4.32,4.32,0,0,0-1.6-.1l-.72.35a1.51,1.51,0,0,0-1.48-.28c-.57.41.17,1-.46,1.43-.94-.19-.14-.67-.55-1l-.81-.13-.79.4-.72-.37c-.72-.15-1,.26-1.45.39a4.91,4.91,0,0,1-1,0c-.7-.15-1.35-.59-2.11-.35a8.09,8.09,0,0,0-2.47.86,2.86,2.86,0,0,1-.49.28h-1.37l-.71-.37-.78.4c-.93-.08-1.68-.66-2.78-.34l-.47.26-1.28-.4-.89.45h-3.41l-.73-.37-.49.28a1,1,0,0,1-.27.09h-7.44l-.77.37c-.81.16-1-.33-1.76-.39l-1,.36-.64-.32-.71.36-.71-.37c-.76-.16-1,.29-1.71.42l-1.89-.33-.47.27H157.61c-.57.13-.8.56-1.54.4l-.72-.38H154l-.73.38-.52-.3a2.69,2.69,0,0,0-1.84.11,3,3,0,0,1-1.86.13l-.65-.36-1,1L145.78,54l-.75.33h-3.87l-1.28.49-1.15-.45h-1.26l-.7.37-.71-.37h-1.35l-.74.36-.59-.34-.68.31-1.12-.41-1,.44-.81-.43-1.49.4h-6l-.55-.31-.84.38h-2.69l-.61.34-1.12-.46-1,.49H109.9l-.62-.35-.81.34h-2l-.66.38-.72-.34-.71.36H103l-.84-.44-1.74.44c-1.23,0-3.16,0-5,0l-.62.35-.73-.32-.7.33a6.12,6.12,0,0,1-1.54,0l-.44-.72h-.85c-.12.2-.26.42-.39.65a3.19,3.19,0,0,1-.6.12H83.76l-.74.37c-.5-.37-.42-1-1.48-1.08-.81.44.25.63.41.94-.46.3-1.08.09-1.62.16l-.79.41-.33-.53.68-.45c-.36-.35-.49-.35-1.7.18H75.27c-.09.6,1.19.19,1.17.61l-1.76.52A1.85,1.85,0,0,1,73.57,56c-.71.07-1,.46-1.63.73l-.86-.8h-1.8c-.12.1-.29.2-.33.31-.17.4.36.88-.39,1.23-.69-.39,0-.88-.58-1.45a1.52,1.52,0,0,0-1.57-.42l-.55.84-1.13-.91H61.57l-1.25,1.1-1-.36-1.08.37c-.64-.12-.85-.67-1.71-.71-.13-.25.34-.61-.41-.75-.25.22-.82.31-.83.71l1.24,0-.89,1L54,57.45l-1.3-1.1H49.91l.48-.91-.7-.51.73-.46c-.13-.16-.27-.47-.38-.47-.93,0-1.47-.62-2.45-.43V53l-.71-.43V51.8l-1-.57H42.49l-.77-.4H39.84L37.39,50H35.51l-.58-.33H32.49l-2.63-.8h-2L26.76,48l-.88.46H24.53l-.73-.39H22.05l-1.42-.39a2.1,2.1,0,0,1-1.37-.76c.44-.06,1,0,.5-.38a4.74,4.74,0,0,0-.5.38c-.58-.22-1.26-.42-2.09-.66L18.48,46c.35-.2.12-.46.18-.69.55,0,1.1,0,1.64,0,.13,0,.25-.14.38-.21-1.09-.66-1.11-.65-2-.33v.55H17l-.69.34c-.5-.17-1-.35-1.1-.73h1.72c.62-.32.34-.69.17-1.15l-.94.36A1.58,1.58,0,0,1,15,43.86c-.58-.38-.61-.93-1.44-1.24a11,11,0,0,1-1.75-1v-.78L8.14,38.79,9,38.1l-.61-.39V32.26l-.66-.41a3.27,3.27,0,0,0,.64-.45,1.7,1.7,0,0,0,.24-.51H9.64l1.74-.63-1-.81v-.66c-.46-.55-1.59,0-2.08-.46a4.85,4.85,0,0,1,1.4-.64l1.07.43.89-.59V25.91l-1.37-.27,2.26-1.29-1.08-.15-.85.44-.34-.58c.43-.21.83-.57,1.26-.59,1.39,0,1.34-.73,1.88-1.18h3l1.8-1.17h2.18l.52.29a.67.67,0,0,0,.24,0,4.61,4.61,0,0,1,1.24-.66,3.12,3.12,0,0,0,1.38-.44h2.09c.84.4,0,1,.47,1.44.53-.19.53-.19.57-.82l.65-.42-.64-.41c.6-.31,1.69-.26,2-.83-.76-.35-1.78.07-2.58-.28.34-.55,1.17-.09,1.59-.24l.8-.4h1.88l.83-.36H33c.89-.11,1.32-.83,2.13-.2l-1,.56H32.8l-.76.4H30.7l-1,.56c.66.45,1.13.14,1.65-.16h3.22l2.74-.87,1,.45h4.21L43,18h4.9l.67-.38H50.2c.85-.09,1-.57,1.87-.4l.89.47q.18.55.36,1.08c.31-.9,1.62-1.15,3.21-1.54h2.25l.89-.42c.67.45,0,1.1.6,1.65l1-.75.15-.77,1.8-.48.23.56c.45.19.7.64,1.55.57l1.4-1.21.94.49,1.24-.36,2.11.62c.82-.15.76-.76,1.32-1.1h.68c.47.34,1.41.51,1,1.06.64.07.64.07.71-.48.59-.22.85-.85,2-.47l.19.91a1.23,1.23,0,0,0,1.18,0c-.08-.33-1-.54-.33-1l.94.35c.46,0,.94,0,.88-.4H81l.6-.34h2.76l.77-.44c.27,0,.71,0,1.14,0a2.39,2.39,0,0,1,.56.17l-.67.42c-.14.47.58.65,1,.92l1.38-.58-.87-.76c.18-.26.6-.2,1.08-.13l.4.61,2-.34L92,16l.71-.37,1.21.7c1.37-.29,2.75-.53,4.68-1l.62-.51h1.73l.76-.4h2.72l.58-.34,1.07.39,1.37-.46,1.51.47,1-.42.68.35.58-.33h1.92l.84-.36,2.21.65a3.17,3.17,0,0,1,1.31-.37c.42,0,.73-.48,1.51-.3l.41.65c.7-.06.94-.46,1.52-.69l.65.76.75-.38h3.06l1.21-.7c.12.17.26.4.44.66h2.22l.59-.33h2.08l.79.38.37-.66a5.56,5.56,0,0,0,1.66-.51l.57.33h1.54l.49-.28c.66.1.95.47,1.42.68a1.54,1.54,0,0,0,1.41-.36h1.4l.85.45,1.76-.49,1.79.92,1.23-.47h4l1.47-.8c.47,0,1,0,1,.34s.56.61,1.23.81c.07-.21.14-.39.21-.6l.94-.53.72.36.7-.37h1.39c.5.49,1.36.37,2,.38l.57.32c1-.12,1-.71,1.48-1.09l.73.38H165l.73.38.59-.33h2.81c.87.19,1.27.9,2.26,1.12,1,0,.8-.37.93-.64.42-.09.82-.17,1.2-.28a7.56,7.56,0,0,0,.82-.31l1.13.43.48-.74.74.33h4.25l.58-.33.73.37H187l.72.38.74-.37a4.76,4.76,0,0,1,2.12.32l.53-.3h2.24l1.14.84.46-.29c.21-.11.3-.18.39-.18h3.39l.52-.29a4.21,4.21,0,0,1,.62-.09h3.68l1.34.76.74-.35h2.73l.7.36.72-.37h3.43l.62.35c1.55.11,3.25,0,4.92.06l.62.35h2.14a1,1,0,0,0,.39.38c-.44.07-1,0-.5.38a3,3,0,0,0,.5-.38c.1,0,.38,0,.47-.12a4.33,4.33,0,0,0,.5-.65,1.06,1.06,0,0,1,.27-.16l-.73-.48v-1.6a3.41,3.41,0,0,0-.35,0l-1.3.73c-.74-.39.19-1.15-1-1.39.55-.31,1.16-.11,1.68-.18l.75.4h2.12c.13.22.27.44.4.67l1.17.23.06.44-.67.41.64.4-.77.48.64.73-.48.35v1.6c.54.29,1.15.09,2,.21l1.36.77L230,16.8h1.75c.59-.27.29-.55.37-.79h1.38v1c.72.45,1.74,0,2.47.23l.59.33h2.15l1.62,1.15v1.06l-.52.3.83,1h2.93c.65-.42-.11-1,.47-1.44.47.26.47.26.48,1.29.18.06.38.2.53.19a7.87,7.87,0,0,1,3.48.59l.77,1.05V24c.88.27.7.68.74,1.17l1.55.88c1.77.12,1.91,1,2.61,1.74l-.6.48c0,.36.55.17,1,.24l.89.56v1.64l-1.2.24c-.3.43.12.64.57.84V33c.19.26.81.32.71.65h-1c-.64.31-.32.68-.23,1l1.35.29-1.42.39-.06.42,1.37.37v.93l2.12,1V39l1.31.27-.6.45v2c.14.07.21.15.3.16.45,0,.91,0,1.37,0,.46.26.54.52,0,.76l-.74-.36c-.28.3-1,.38-1,.78-.42,0-.62-.11-.68-.31s.21-.64-.43-.89l-.86.1c0,.42-.27.75.25,1.12a2.88,2.88,0,0,1,1.21,1.84l1,.52.9-.18v-.43l-.68-.41v-.58c.84-.06,1.09-.58,1.77-.76.54.25.19.59.3.91l-.66.44v1.14c.18.27,1.13.44.41,1l-1-.39-2.13.6a4.11,4.11,0,0,0,.73.6c-.44.06-1,0-.51.37a4.26,4.26,0,0,0,.51-.37c.24,0,.59,0,.93,0,.63.31.33.69.22,1.06-.45.22-.47-.15-1-.19l-.63.26h-2.82l-.52-.29a3.42,3.42,0,0,0-1.48,1.13c-.24-.28-.45-.54-.72-.88l-2.21.6-.38.61-1-.31-.24.66c-1.4.27-3-.05-4.47.13l-.57.33-.73-.36h-1.35l-.72.38H236.6l-.4.26a3.62,3.62,0,0,1-.65.12h-5.13l-.6.34h-3.45l-.6.35c-.61,0-.93-.56-1.68-.23C223.67,51.63,224,52,223.88,52.39Zm-210.72-25c-.13-.25.33-.61-.41-.75-.3.52-.3.52.42.82.08.3-.23.69.26,1.07.52-.29.52-.75,1.1-1,.05,0,0-.13,0-.19a2.91,2.91,0,0,0-.3-.31A6.4,6.4,0,0,1,13.16,27.36Zm229.92-2.85c.16.3.1.61.71.34a2.58,2.58,0,0,0-.63-.23c.25-.89,2.26-.69,2.75-1.45-.1-.28.25-.62-.25-.85h-2.24l-1.23.7-1,.11V24l1,.58A2.59,2.59,0,0,0,243.08,24.51ZM220.4,51.21c-.67.08-.88.43-1.35.59s-.92.27-1.43.41l.23.5c1,.37,1.31-.54,2.19-.32.43-.68,1.68-.19,2.46-.56Zm15.17-31.86,1.39.38,1.63-.38a7.62,7.62,0,0,1-2-.57ZM17.36,27l.83,1,1.22-.39-1.11-.68Zm9.94-2.86,1-.54a2.41,2.41,0,0,0-2.11,0Zm-5.25,21.9-1.36.15.24.73,1.12-.12Zm9-22.83a2.33,2.33,0,0,0-2.09,0A2.33,2.33,0,0,0,31.07,23.25Zm207.18-2.62,0-.25-.91-.06c-.08,0-.24.1-.22.13s.15.24.24.24A7.22,7.22,0,0,0,238.25,20.63Zm8,4.41c.45-.36.65-.6-.1-.77C245.79,24.5,245.81,24.72,246.26,25Zm7.58,14c-.45.36-.65.61.1.77C254.31,39.6,254.29,39.38,253.84,39.06Zm2.75,7.83c-.45.35-.65.6.1.76C257.06,47.42,257,47.21,256.59,46.89Zm-152.19-32c-.08,0-.23.09-.21.13a1,1,0,0,0,.21.26c.08,0,.23-.1.22-.13A1.05,1.05,0,0,0,104.4,14.84ZM83.84,16.35l.25-.14a3.62,3.62,0,0,0-.47-.13c-.05,0-.15.08-.22.13Zm-27,1.23c-.07,0-.22.09-.21.12s.14.18.21.27.23-.1.22-.13A1.05,1.05,0,0,0,56.88,17.58Zm197.4,12.26.24.26c.08-.05.23-.1.22-.13a1.09,1.09,0,0,0-.22-.27Zm-1,.7-.45.14c.08.05.17.13.23.12a2.39,2.39,0,0,0,.46-.12Zm-4.92,9.73c-.08,0-.23.09-.22.13a1.27,1.27,0,0,0,.22.26c.07,0,.22-.1.21-.13A1,1,0,0,0,248.33,40.27Zm-2.86,4.24.45-.14c-.08,0-.17-.13-.23-.12a3.45,3.45,0,0,0-.46.12ZM64.21,54.21l.25.14a1,1,0,0,0,.21-.26s-.13-.09-.21-.13Zm145.9-40c-.08,0-.17-.13-.23-.12a3.45,3.45,0,0,0-.46.12c.07,0,.17.13.22.12A3.59,3.59,0,0,0,210.11,14.25Z"/><path class="cls-1" d="M200.11,11.32l-1-.58.83-.51a4.23,4.23,0,0,1,2.67.39l.94-.46h1.9c.56-.14.76-.59,1.65-.32l.35.58c.47.27,1.09,0,1.54.14l.78-.4.58.33h2.24l.66.62c1.09.32,1.86,0,2.43.49a30.1,30.1,0,0,1-3,.13l-1-.43c-1,.09-1.28.6-2,.8l-.81,0c-.09-.34-.18-.7-.3-1.15l-1.21.11v.5l-1,.55-.72-.35H204.3l-.75-.4Z"/><path class="cls-1" d="M188.41,10.14h4.81l.73.38a2.87,2.87,0,0,1,2.22-.32l.22.51-2,.58h-1.78l-.92-.38c-1,.05-1.25.58-1.94.78L188.47,11l-.68.3C187.2,10.84,187.17,10.82,188.41,10.14Z"/><path class="cls-1" d="M79.66,12.81l1.37.34a.75.75,0,0,0,.24,0c.76-.2,1.5-.42,2.26-.61a5.23,5.23,0,0,1,.94,0l1.51,1L84.2,14H82.43l-1.09-.46-1.11.47A6.16,6.16,0,0,1,78.66,14Z"/><path class="cls-1" d="M71.17,14.45l-1.3.78c-.69.14-.9-.3-1.55-.42l-1.23.35c-.44-.28-.11-.61-.23-1,1.49-.33,3.1,0,4.6-.19l.49-.28a7.44,7.44,0,0,0,2.81-.05c.12.1.31.19.36.3s-.06.23-.1.35-.16.13-.24.13Z"/><path class="cls-1" d="M179.11,10.61c.06-.46-.41-.46-.93-.47l-.79.38h-4L172.08,10a7.61,7.61,0,0,1,2.56-.21l.73.38h1.24l1.54-.77c1-.07,1.16.43,1.72.61.41.13.84.24,1.31.37C180.48,10.71,179.75,10.39,179.11,10.61Z"/><path class="cls-1" d="M232.14,16.38l-1.78-1.24-2,.58c-.44-.4-.91-.83-1.41-1.27.79-.54,1.2.71,2.1.39l.74-.39c.7-.14,1,.24,1.59.44l1.3-.43.23.53-.74.44Z"/><path class="cls-1" d="M139.24,12a1.77,1.77,0,0,1-1.79-.25h-4.32c-.07-.22-.14-.4-.19-.56.12-.06.19-.15.28-.15,1.11,0,2.23-.06,3.38-.09l.84.38,1.6.09Z"/><path class="cls-1" d="M48.86,15.26h3.82l1.1.44L55,15.21l.26.76c-1.16.09-2.18,0-3.18,0l-.55.32a4,4,0,0,0-2.34-.25Z"/><path class="cls-1" d="M102.68,12.3l1.7-1h1.38l.72.38c.52.08,1.22-.16,1.7.21-.2.09-.28.17-.36.17h-3l-1.23.71Z"/><path class="cls-1" d="M93.78,12.66l.63.44a2.52,2.52,0,0,1-.76.16c-.69-.16-1.33-.37-2-.58l1.07-.56h2.63l1.78.6c-.48.32-1.11.06-1.55.18C95,12.71,94.64,12.18,93.78,12.66Z"/><path class="cls-1" d="M41.5,17.57H37.67l-.94.43-.2-.61,2-.56h2.75Z"/><path class="cls-1" d="M147.15,11.74l-.59-.33-1.71.34c-.09-.28-.14-.46-.19-.62l1-.57a8.41,8.41,0,0,1,2.3.08C148.56,11.25,147.42,11.36,147.15,11.74Z"/><path class="cls-1" d="M59.23,14.48h2.66l.21.54-1.1.57H59.57C59.07,15.28,59.41,15,59.23,14.48Z"/><path class="cls-1" d="M88.49,13.28l-.58.38h-.73c-.61-.31-.32-.68-.22-1,.23-.12.23-.12,1,.26h1.32L90,12.5h.85l.17.62A10.09,10.09,0,0,1,88.49,13.28Z"/><path class="cls-1" d="M123.23,12.1h-1.65l-.87-.58s0-.06,0-.07c.38-.1.77-.17,1.14-.27s.71-.22,1-.32C123.73,11.32,123.16,11.71,123.23,12.1Z"/><path class="cls-1" d="M48.22,15.62v.71c-.35,0-.67.08-1,.07A8.77,8.77,0,0,1,45,16.29c.08-.33.62-.45.93-.67Z"/><path class="cls-1" d="M165.5,9.26l1.15.65v.48c-.78.31-1.58,0-2.45.23-.11-.28-.19-.5-.24-.65C164.48,9.58,165.61,10,165.5,9.26Z"/><path class="cls-1" d="M140.52,10.75l1-.55,1.81.56,0,.41a7.35,7.35,0,0,1-2.58.09Z"/><path class="cls-1" d="M224,52.48l1-.48h1.32l.72-.37,1,.56c-.62.42-1.45.12-2.17.2C224.42,52.9,224.38,52.9,224,52.48Z"/><path class="cls-1" d="M130.85,12.06H129c-.08-.16-.15-.33-.25-.55L130,11c-.15,0,0,0,0,0C130.38,11.25,131.08,11.43,130.85,12.06Z"/><path class="cls-1" d="M99.9,12.12l1.8-.5.36.63-1,.65-1-.09Z"/><path class="cls-1" d="M75.88,14.36l1-1.09h.67c.63.36.59.42-.75,1.2Z"/><path class="cls-1" d="M62.58,14.59a4.55,4.55,0,0,1,1.09-.13,3.17,3.17,0,0,0,1.76.4,1.51,1.51,0,0,1-.92.68Z"/><path class="cls-1" d="M157.77,9.92v.89l-1,.13c-.6-.34-.24-.68-.36-1A1.3,1.3,0,0,1,157.77,9.92Z"/><path class="cls-1" d="M113.06,12.1v-.63a3,3,0,0,1,1.89,0c-.09.32-.62.44-.93.66Z"/><path class="cls-1" d="M124.28,12.07l-.4-.56,1.46-.42.71.41Z"/><path class="cls-1" d="M154.67,10.93l-.93-.53c.54-.26.54-.27,1.84-.13C155.5,10.59,155,10.7,154.67,10.93Z"/><path class="cls-1" d="M57.23,16l-1.12,0c-.46-.42,1-.53.43-.94L57,14.9c.08.11.21.21.23.32A4.2,4.2,0,0,1,57.23,16Z"/><path class="cls-1" d="M48.51,54.29l-1.29.05c-.47-.29-.47-.54,0-.77s.24.26.53.32A3.57,3.57,0,0,1,48.51,54.29Z"/><path class="cls-1" d="M40.82,16.18,42.43,16c.46.28.44.5.13.73C41.93,16.72,41.87,16.31,40.82,16.18Z"/><path class="cls-1" d="M100.14,12.12c-.89-.1-1.68.18-2.25-.24a2.68,2.68,0,0,1,1.54-.15C99.63,11.73,99.82,11.94,100.14,12.12Z"/><path class="cls-1" d="M216.88,11.47l1.34-.48.15.55A1.48,1.48,0,0,1,216.88,11.47Z"/><path class="cls-1" d="M255.55,33.61c.46,0,1-.12,1.36.23C256,34,256,34,255.55,33.61Z"/><path class="cls-1" d="M258.31,43c.23.08.57.14.66.25s0,.35,0,.53c-.23-.09-.57-.14-.66-.26S258.31,43.18,258.31,43Z"/><path class="cls-1" d="M138.58,10.61a7.11,7.11,0,0,1,.92-.06c.09,0,.19.15.24.24s-.14.13-.22.13l-.91-.06Z"/><path class="cls-1" d="M185.31,11.12a1.24,1.24,0,0,1,1.38,0A1.24,1.24,0,0,1,185.31,11.12Z"/><path class="cls-1" d="M79.34,16.12l-.7-.34C79.24,15.51,79.19,15.82,79.34,16.12Z"/><path class="cls-1" d="M233.33,16.06l.6-.4C234.4,16,233.86,16,233.33,16.06Z"/><path class="cls-1" d="M242.57,18.89l.25-.14c.07.09.18.17.21.26s-.14.09-.21.13Z"/><path class="cls-1" d="M15.3,45.07l-.7-.34C15.2,44.46,15.15,44.77,15.3,45.07Z"/><path class="cls-1" d="M77.44,56.36l.45.14c-.08,0-.17.13-.23.12a2.39,2.39,0,0,1-.46-.12Z"/><path class="cls-1" d="M162.67,10.64l-.7-.34C162.57,10,162.52,10.34,162.67,10.64Z"/><path class="cls-1" d="M149.06,10.87l-.24-.14a3.45,3.45,0,0,1,.46-.12c.06,0,.15.08.23.12Z"/><path class="cls-1" d="M162.51,10.43l.71.34C162.61,11,162.66,10.73,162.51,10.43Z"/><path class="cls-1" d="M179.31,10.49l-.6.4C178.24,10.55,178.78,10.58,179.31,10.49Z"/><path class="cls-1" d="M164.07,11.07l.24-.14a1.05,1.05,0,0,1,.22.26s-.14.08-.22.13Z"/><path class="cls-1" d="M118.07,11.65l-.24-.14a3.45,3.45,0,0,1,.46-.12c.06,0,.15.08.23.12Z"/><path class="cls-1" d="M127,11.65l-.25-.14a3.45,3.45,0,0,1,.46-.12c.06,0,.15.08.23.12Z"/><path class="cls-1" d="M219,12.24c-.08.08-.16.17-.25.25s-.22-.1-.21-.13a1.6,1.6,0,0,1,.21-.26Z"/><path class="cls-1" d="M220.54,12.63l.24-.14a1.27,1.27,0,0,1,.22.26s-.14.09-.22.13Z"/></g></svg>