<?xml version="1.0" encoding="utf-8"?>
<!-- Generator: Adobe Illustrator 25.4.1, SVG Export Plug-In . SVG Version: 6.00 Build 0)  -->
<svg version="1.1" id="레이어_1" xmlns="http://www.w3.org/2000/svg" xmlns:xlink="http://www.w3.org/1999/xlink" x="0px"
	 y="0px" viewBox="0 0 137.8 137.6" style="enable-background:new 0 0 137.8 137.6;" xml:space="preserve">
<style type="text/css">
	.st0{fill:#F9CF58;}
</style>
<g id="Layer_1">
	<path class="st0" d="M40.8,76l-0.3-13.6c0-0.8-0.7-1.4-1.4-1.4l-9.4-0.1c-0.9-0.1-1.6,0.6-1.7,1.5c0,0.2,0,0.4,0.1,0.6
		c0,0-2.3,0.1-3.4,0.1c-1,0-1.3,0.4-1.6,1.7c-0.5,3.6-0.5,7.2,0,10.8c0.6,2.7,1.8,2.4,1.8,2.4l3.1-0.1c0.1,1.9,1.3,1.8,1.3,1.8
		l8.7-0.4C39.6,79,40.8,77.6,40.8,76z"/>
	<path class="st0" d="M44.1,61.3l0.6,17.4c0,1.3,0.9,2.4,2.1,2.8c7.7,2.5,35.5,12,49.5,20.5c1.5,0.9,3.3,0.4,4.2-1.1
		c0.2-0.3,0.3-0.6,0.4-1c2.2-11.1,6.9-40.9-0.9-62.4c-0.6-1.6-2.3-2.4-3.9-1.9c-0.2,0.1-0.5,0.2-0.7,0.3
		c-15.1,9.9-31.6,17.4-49,22.1C45,58.6,44.1,59.8,44.1,61.3z"/>
	<path class="st0" d="M106.5,109l-0.3-0.1c-1.7-0.4-2.7-2.1-2.2-3.8c12.2-48.2-2.1-71.6-2.3-71.8c-0.9-1.5-0.4-3.4,1.1-4.3
		c1.4-0.8,3.2-0.4,4.1,0.9c0.7,1,16.1,25.6,3.1,76.7C109.6,108.2,108,109.2,106.5,109z"/>
	<path class="st0" d="M41.2,101.1c-6.1-1-7.7-6.8-7.4-10.6l0.1-14.9c0-1.7,1.4-3.1,3.1-3.1c1.7,0,3.1,1.4,3.1,3.1l0,0l-0.1,15
		c0,0.1,0,0.2,0,0.3c-0.1,0.6-0.2,3.6,2.2,4c4.2,0.7,19.7-0.1,25.4-0.5h0.2c1.2-0.1,2.3-0.5,3.1-1.3c0.8-1.1,1.1-2.4,0.9-3.7
		c-0.2-1.7,1-3.3,2.7-3.5s3.3,1,3.5,2.7c0,0.1,0,0.2,0,0.3c0.3,4.3-1.2,7-2.5,8.4c-2,2-4.7,3.2-7.6,3.3
		C65.4,100.9,46.8,102,41.2,101.1z"/>
</g>
</svg>
