<?xml version="1.0" encoding="utf-8"?>
<!-- Generator: Adobe Illustrator 25.4.1, SVG Export Plug-In . SVG Version: 6.00 Build 0)  -->
<svg version="1.1" id="레이어_1" xmlns="http://www.w3.org/2000/svg" xmlns:xlink="http://www.w3.org/1999/xlink" x="0px"
	 y="0px" viewBox="0 0 137.8 137.6" style="enable-background:new 0 0 137.8 137.6;" xml:space="preserve">
<style type="text/css">
	.st0{fill:#F9CF58;}
</style>
<path class="st0" d="M103.3,31.7l-4.9,3c-2,1.2-4.4,1.6-6.6,1.2c-1-0.5-2.1-0.9-3.2-1.3c-1.2-0.4-2.5-0.7-3.7-1
	c-4.9-1.1-10.1-0.9-14.9,0.5c-5.8-2.3-12.1-2.8-18.3-1.5c-2.4,0.5-4.8,1.3-7,2.4c-2,0.4-4,0-5.8-1.1l-4.9-3
	c-0.5-0.3-1.1-0.1-1.4,0.3l-19.2,31c-0.3,0.5-0.1,1.1,0.3,1.4l7.1,4.4c1.2,1.1,2,2.6,2.4,4.1l0.1,0.4c0.1,0.7,0.3,1.4,0.5,2
	c0.1,0.3,0.2,0.6,0.3,0.9l0.1,0.3c0,0.1,0.1,0.2,0.1,0.2c-1.8,1.5-2.2,4.2-0.8,6.2c0.9,1.2,2.3,1.9,3.8,1.9c0.4,0,0.8-0.1,1.2-0.2
	c0,0.1,0,0.1,0.1,0.2c0.1,0.2,0.3,0.4,0.6,0.4c1,1.2,2.1,2.4,3.3,3.4c0.1,0.1,0.2,0.1,0.3,0.2c-0.8,1.6-0.6,3.7,0.7,5.1
	c1.7,1.9,4.6,2,6.5,0.3l0.1,0.1l0.7-0.4c0.1,0.1,0.2,0.3,0.3,0.4l4.8,3c0.1,0.1,0.3,0.1,0.4,0.1c-0.6,1.5-0.5,3.2,0.6,4.5
	c1.5,2,4.4,2.4,6.4,0.8c0.2-0.2,0.4-0.3,0.6-0.5l0.1,0.2l0.3-0.2c0.1,0.1,0.2,0.3,0.3,0.3l4.8,3c0.1,0.1,0.2,0.1,0.3,0.1
	c-0.7,1.4-0.6,3.1,0.4,4.5c0.8,1.2,2.3,2,3.8,2c0.6,0,1.2-0.1,1.7-0.3c0.1,0.2,0.2,0.4,0.4,0.5c0,0,0,0,0.1,0c0.9,1.9,2.9,3.1,5,3.1
	c0.5,0,1.1-0.1,1.6-0.3c2.1-0.6,3.6-2.5,3.8-4.6c0,0,0-0.1,0-0.1v-5.4l3.2-2c0.2,1.3,0.9,2.5,2,3.3c1,0.8,2.2,1.2,3.4,1.2
	c0.2,0,0.4,0,0.6,0c2.6-0.3,4.6-2.3,4.9-4.9c0,0,0-0.1,0-0.1v-6.2l3.1-2v0.9c0,0,0,0.1,0,0.1c0.3,2.8,2.7,4.9,5.5,4.9
	c0.2,0,0.4,0,0.6,0c2.6-0.3,4.6-2.3,4.9-4.9c0,0,0-0.1,0-0.1v-8.2c4.1-3.7,6.8-8.7,7.9-14.1l0.1-0.4c0.4-1.8,1.4-3.5,2.8-4.8
	l2.8-1.7l4.4-2.8L103.3,31.7z M65.2,94.6L64.5,95l0,0L65.2,94.6L65.2,94.6z M22,66.5c0,0-0.1-0.1-0.1-0.1l-6.4-3.9l18.1-29.3l4,2.5
	c2.2,1.4,4.8,1.8,7.3,1.3c0.1,0,0.2,0,0.2-0.1c2.1-1,4.4-1.8,6.7-2.3c7.6-1.6,15.5-0.2,22.1,3.8c0.1,0,0.1,0.1,0.2,0.1l22,13.7
	c0.1,0,0.1,0.1,0.2,0.1c0.8,0.5,1.3,1.3,1.4,2.2c0.2,0.9,0,1.8-0.5,2.6c-0.5,0.8-1.3,1.3-2.2,1.4c-0.9,0.2-1.8,0-2.6-0.6l-21-13.1
	c-0.1,0-0.2-0.1-0.2-0.1c-1.2-0.6-2.8-0.3-3.7,0.8l-0.2,0.2c-0.1,0.1-0.1,0.1-0.2,0.2c-0.2,0.3-0.3,0.6-0.4,1c0,0,0,0.1,0,0.2
	c0,0.5,0,0.9,0.2,1.4L46.8,60.8c0,0,0,0,0,0L25.6,74c-0.2-0.6-0.3-1.2-0.4-1.8l-0.1-0.5C24.6,69.7,23.6,67.9,22,66.5z M30.9,83.7
	l16.7-10.4c0.3,1,0.7,2,1.1,2.9l-14.2,8.8L33.1,86C32.3,85.3,31.6,84.5,30.9,83.7z M43.3,92.7l11.5-7.1c0.7,0.8,1.4,1.5,2.2,2.2
	l-9,5.6c-0.4,0.2-0.8,0.4-1.1,0.7l-0.7,0.5L43.3,92.7z M74.2,91.3v18.4c-0.2,1.3-1.1,2.5-2.4,2.9c-1.9,0.6-3.8-0.5-4.4-2.3
	c0-0.1-0.1-0.2-0.2-0.4V100c0-0.4-0.2-0.7-0.5-0.9s-0.7-0.2-1,0l-5.9,3.7l-2.9-1.8l6.8-4.2l2.1,1.3c0.3,0.2,0.7,0.2,1,0
	c0.3-0.2,0.5-0.5,0.5-0.9v-5.5l0-0.8c0.2-1.8,1.7-3.2,3.5-3.2c1,0,1.9,0.4,2.5,1c0.6,0.6,1,1.4,1.1,2.3
	C74.2,91.1,74.2,91.2,74.2,91.3z M88.3,84.6v17.3c-0.2,1.6-1.5,2.9-3.1,3c-0.9,0.1-1.9-0.2-2.6-0.7c-0.7-0.6-1.2-1.4-1.3-2.3V84.1
	c0-0.9,0.4-1.8,1.1-2.5c0.7-0.7,1.6-1,2.5-1c1.9,0,3.4,1.6,3.5,3.4C88.4,84.2,88.3,84.4,88.3,84.6z M102.6,80.9
	c-0.1,0.1-0.1,0.3-0.1,0.5v13.3c-0.2,1.6-1.5,2.9-3.1,3c-0.9,0.1-1.9-0.2-2.6-0.7c-0.7-0.6-1.2-1.4-1.3-2.3V80.7
	c0-0.1,0.1-0.1,0.1-0.2c0.2-1.1,1-2,2-2.4c0.5-0.2,1-0.3,1.5-0.4c0,0,0,0,0,0c1.7,0,3.1,1.2,3.5,2.8c0,0.1,0,0.1,0.1,0.2V80.9z"/>
</svg>
