<?xml version="1.0" encoding="utf-8"?>
<!-- Generator: Adobe Illustrator 25.4.1, SVG Export Plug-In . SVG Version: 6.00 Build 0)  -->
<svg version="1.1" id="레이어_1" xmlns="http://www.w3.org/2000/svg" xmlns:xlink="http://www.w3.org/1999/xlink" x="0px"
	 y="0px" viewBox="0 0 137.8 137.6" style="enable-background:new 0 0 137.8 137.6;" xml:space="preserve">
<style type="text/css">
	.st0{fill:#222222;}
</style>
<g id="Layer_1">
	<path class="st0" d="M68.5,46.9L68.5,46.9c-0.1,0.7,0.1,1.2,0.5,1.7c0.6-0.7,0.6-1.6,0.2-2.3L68.9,46l-0.2,0.2
		C68.6,46.4,68.5,46.6,68.5,46.9z"/>
	<polygon class="st0" points="25.7,75.4 25.8,75.4 25.7,75.4 	"/>
	<polygon class="st0" points="66.7,94 64.1,95.6 66.7,97.2 	"/>
	<path class="st0" d="M25.7,75.4L25.7,75.4L25.7,75.4c-0.2,0.1-0.5,0.3-0.7,0.4L25.7,75.4L25.7,75.4z"/>
	<path class="st0" d="M46.8,96.6c-0.2,0-0.4-0.1-0.5-0.2l-4.8-2.9C41.2,93.4,41,93,41,92.7c0-0.3,0.2-0.7,0.5-0.8L55,83.5
		c0.4-0.3,1-0.2,1.3,0.2c1.1,1.3,2.3,2.4,3.6,3.5c0.2,0.2,0.4,0.5,0.4,0.8c0,0.3-0.2,0.6-0.5,0.8l-10.2,6.3l-0.1,0.1
		c-0.3,0.1-0.5,0.3-0.7,0.5l-0.1,0.1l-1.3,0.8C47.2,96.6,47,96.6,46.8,96.6z M43.9,92.6l2.9,1.8l0.7-0.5c0.3-0.3,0.7-0.5,1.1-0.7
		l9-5.6c-0.8-0.7-1.5-1.4-2.2-2.2L43.9,92.6z"/>
	<path class="st0" d="M33.6,88.2c-0.2,0-0.5-0.1-0.7-0.2c-1.2-1-2.3-2.2-3.4-3.4c-0.2-0.1-0.5-0.2-0.6-0.4c-0.3-0.5-0.1-1.1,0.3-1.3
		l0.7-0.4L48.4,71c0.3-0.2,0.6-0.2,0.9-0.1c0.3,0.1,0.5,0.4,0.6,0.7c0.4,1.6,1,3.2,1.7,4.7c0.2,0.5,0,1-0.4,1.3l-17,10.6
		C34,88.2,33.8,88.2,33.6,88.2z M31.5,83.7c0.7,0.8,1.4,1.5,2.2,2.2l15.7-9.7c-0.4-1-0.8-1.9-1.1-2.9L31.5,83.7z"/>
	<path class="st0" d="M25.7,76.4c-0.1,0-0.3,0-0.4-0.1c-0.3-0.1-0.5-0.3-0.6-0.6v-0.1c-0.1-0.3-0.2-0.7-0.3-1.1
		c-0.2-0.7-0.4-1.4-0.5-2l-0.1-0.4c-0.4-1.6-1.2-3-2.5-4.1l-7.1-4.4c-0.5-0.3-0.6-0.9-0.3-1.4l19.2-31c0.3-0.5,0.9-0.6,1.4-0.3
		c0,0,0,0,0,0l4.9,3c1.7,1.1,3.8,1.5,5.8,1.1c7.5-3.6,16.1-4.1,24-1.4c2.3,0.8,4.5,1.8,6.5,3l0.2,0.1L98,50.4c1.3,0.8,2.2,2,2.5,3.4
		c0.7,2.9-1.1,5.8-4.1,6.5c-1.5,0.3-3.1,0-4.3-0.8l-21-13.1c-0.4-0.3-1-0.2-1.4,0.2l-0.1,0.2c0,0.1-0.1,0.2-0.1,0.3v0.1
		c0,0.3,0.1,0.5,0.2,0.7c0.3,0.4,0.3,0.9,0,1.3l-0.4,0.4c-0.1,0.1-0.1,0.1-0.2,0.2l-6.4,3.9c0,0-0.1,0.1-0.1,0.1L26.3,76.3l-0.1,0.1
		C26,76.4,25.8,76.4,25.7,76.4z M16.2,62.4l6.4,3.9l0.1,0.1c1.6,1.4,2.6,3.2,3.1,5.3l0.1,0.5c0.1,0.6,0.2,1.1,0.4,1.7l21.1-13.1l0,0
		L61.7,52l0.2-0.1l5.8-3.6c-0.2-0.5-0.2-1-0.2-1.5c0,0,0-0.1,0-0.2c0.1-0.4,0.2-0.7,0.4-1c0-0.1,0.1-0.1,0.1-0.2l0.2-0.2
		c1-1.1,2.6-1.4,3.8-0.6l21.1,13.2c1.5,1.1,3.7,0.8,4.8-0.8c0.6-0.8,0.8-1.8,0.6-2.8c-0.2-0.9-0.8-1.7-1.6-2.2l-0.1-0.1L75,38.4
		l-0.2-0.1c-6.6-4.1-14.6-5.4-22.2-3.8c-1.2,0.3-2.4,0.6-3.6,1c-1.1,0.4-2.1,0.8-3.1,1.3c-0.1,0-0.2,0.1-0.2,0.1
		c-2.5,0.5-5.2,0.1-7.3-1.3l-4-2.5L16.2,62.4z"/>
	<path class="st0" d="M85.4,106.8c-2.6,0-4.9-1.9-5.4-4.5c-0.1-0.1-0.1-0.3-0.1-0.4V84.4c0,0,0-0.1,0-0.1V84
		c0.1-3.1,2.6-5.5,5.7-5.4s5.5,2.6,5.4,5.7v0.1c0,0.1,0,0.1,0,0.2v11.8c0,0.1,0,0.2,0,0.3v4.6c0,0.1,0,0.1,0,0.2v0.5
		c0,0.1,0,0.3-0.1,0.4C90.4,104.9,88.1,106.8,85.4,106.8z M81.9,101.5c0,0.1,0,0.1,0.1,0.2c0.3,1.9,2,3.3,4,3c1.6-0.2,2.8-1.5,3-3
		v-0.2v-0.1c0,0,0-0.1,0-0.1v-0.2c0,0,0-0.1,0-0.1v-4.8c0-0.1,0-0.2,0.1-0.3V84.7c0-0.1,0-0.2,0-0.2v-0.2c0-2-1.5-3.6-3.5-3.6
		c-2,0-3.6,1.5-3.6,3.5L81.9,101.5L81.9,101.5z"/>
	<path class="st0" d="M71.3,114.7c-2.1,0-4.1-1.2-5-3.1h-0.1c-0.3-0.2-0.5-0.5-0.5-0.9v-8.9l-5,3.1c-0.3,0.2-0.7,0.2-1,0l-4.8-3
		c-0.3-0.2-0.5-0.5-0.5-0.8c0-0.3,0.2-0.7,0.5-0.8l8.7-5.4c0.3-0.2,0.7-0.2,1.1,0l1.1,0.7v-4.7c0.3-3.1,3-5.3,6-5.1
		c2.9,0.2,5.1,2.6,5.1,5.5v0.1l0,0V105c0,0.1,0,0.1,0,0.2v3.8c0,0.1,0,0.1,0,0.2v0.5c0,0.1,0,0.3-0.1,0.4
		C76.3,112.8,74,114.7,71.3,114.7z M67.7,109.9c0.1,0.1,0.1,0.2,0.2,0.3c0.6,1.9,2.6,2.9,4.4,2.3c1.3-0.4,2.3-1.6,2.4-2.9v-0.2V105
		c0-0.1,0-0.1,0-0.2V91.3c0-2-1.6-3.6-3.6-3.6c-1.8,0-3.4,1.4-3.6,3.2v0.4v0.3v5.6c0,0.6-0.5,1-1,1c-0.2,0-0.4-0.1-0.5-0.1l-2-1.3
		l-6.8,4.2l2.9,1.8l6-3.7c0.3-0.2,0.7-0.2,1,0c0.3,0.2,0.5,0.5,0.5,0.9L67.7,109.9z M75.9,91.3L75.9,91.3z"/>
	<path class="st0" d="M99.6,99.6c-2.7,0-5-1.9-5.4-4.6c-0.1-0.1-0.1-0.3-0.1-0.4v-0.5c0-0.1,0-0.1-0.1-0.2v-0.6c0-0.1,0-0.2,0-0.2
		V81.3c0,0,0-0.1,0-0.1v-0.4v-0.5c0-0.2,0.1-0.5,0.2-0.6c0.9-2.9,4-4.6,6.9-3.7c1.8,0.5,3.2,2,3.7,3.8c0.1,0.2,0.2,0.4,0.2,0.6v0.8
		c0,0.1,0,0.2,0,0.3v5.9c0,0.1,0,0.1,0,0.2V94c0,0.1,0,0.1,0,0.2v0.2v0.3c0,0.1,0,0.3-0.1,0.4C104.5,97.7,102.2,99.6,99.6,99.6z
		 M96.1,94.4v0.1c0.2,1.9,1.9,3.3,3.9,3.1c1.6-0.2,2.9-1.5,3.1-3.1v-0.2v-7c0-0.1,0-0.1,0-0.2v-6c0,0,0-0.1,0-0.1v-0.3
		c0-0.1,0-0.1-0.1-0.2c-0.4-1.9-2.3-3.1-4.3-2.7c-1.3,0.3-2.4,1.3-2.7,2.7c0,0.1,0,0.1-0.1,0.2v12.2c0,0.1,0,0.1,0,0.2v0.7
		c0,0,0,0.1,0,0.1v0.2c0,0,0,0.1,0,0.1L96.1,94.4z"/>
	<path class="st0" d="M103.8,31.7l-4.9,3c-2,1.2-4.3,1.6-6.6,1.2c-2.2-1.1-4.5-1.9-6.9-2.4c-5.5-1.2-11.2-0.8-16.5,1
		c2.2,0.8,4.4,1.8,6.4,3h0.1l0,0l22,13.7l0.1,0.1c2.1,1.3,2.8,4,1.5,6.1c-0.6,1-1.6,1.8-2.8,2c-1.2,0.3-2.5,0-3.5-0.7l-3.5-2.2
		l-17.6-11h-0.1c-0.9-0.5-2-0.3-2.6,0.5l0.2,0.2c0.4,0.7,0.4,1.7-0.2,2.3L68.6,49l-0.2,0.1l-6.1,3.8l0,0l-14.3,8.8L25.7,75.4l0,0
		l-0.7,0.4c-2,1.5-2.4,4.4-0.9,6.4c1.3,1.7,3.7,2.3,5.7,1.3l0.1-0.1l0.6-0.3l18.3-11.3c0.4,1.7,1,3.3,1.7,4.8l-15,9.3l-1.3,0.8
		c-1.9,1.6-2.2,4.5-0.6,6.5s4.5,2.2,6.5,0.6c0.1-0.1,0.2-0.1,0.3-0.2l0.1,0.1l1.5-0.9l13.5-8.4c1.1,1.3,2.4,2.5,3.7,3.6l-10.2,6.3
		c-0.4,0.2-0.7,0.4-1,0.6c-2,1.5-2.4,4.4-0.8,6.4c1.5,2,4.4,2.4,6.4,0.8c0.2-0.2,0.4-0.3,0.6-0.5l0.1,0.2l1.1-0.7l8.6-5.4l2.6-1.6
		v-2.3v-0.4v-0.4c0.2-2.5,2.5-4.4,5-4.1c2.3,0.2,4.1,2.2,4.1,4.5V105l5-3.1V84.1c0.1-2.5,2.1-4.5,4.7-4.4c2.5,0.1,4.5,2.1,4.4,4.7
		v0.2l0,0v11.7l5-3.1V81.5l0,0v-0.2v-0.4v-0.6H95c0.3-1.4,1.2-2.5,2.5-3.1c2.2-1.1,4.9-0.2,6.1,2c0.2,0.3,0.3,0.7,0.4,1.1h0.1V81
		v0.2v0.1v0.2v5.8c4.6-3.8,7.8-9.1,8.9-14.9l0.1-0.4c0.4-1.8,1.4-3.5,2.8-4.8l2.8-1.7l4.4-2.8L103.8,31.7z"/>
	<path class="st0" d="M66.7,103.1v-3.2l-5.1,3.1l-0.1,0.1c-2.1,1.4-2.7,4.2-1.3,6.3c1.4,2.1,4.2,2.7,6.3,1.3c0.1,0,0.1-0.1,0.2-0.1
		V103.1z"/>
</g>
</svg>
