<?xml version="1.0" encoding="utf-8"?>
<!-- Generator: Adobe Illustrator 25.4.1, SVG Export Plug-In . SVG Version: 6.00 Build 0)  -->
<svg version="1.1" id="레이어_1" xmlns="http://www.w3.org/2000/svg" xmlns:xlink="http://www.w3.org/1999/xlink" x="0px"
	 y="0px" viewBox="0 0 137.8 137.6" style="enable-background:new 0 0 137.8 137.6;" xml:space="preserve">
<style type="text/css">
	.st0{fill:#F9CF58;}
</style>
<path class="st0" d="M111.3,94.1l-6.5-10.5c0-0.5,0.1-1,0.1-1.4V55.3c0-10.3-8.4-18.7-18.7-18.7H44.5c-10.3,0-18.7,8.4-18.7,18.7
	c0,0,0,0,0,0v26.9c0,10.3,8.3,18.7,18.6,18.7c0,0,0,0,0,0h63c2.4,0,4.4-2,4.4-4.4C112,95.7,111.7,94.9,111.3,94.1z M86.3,83.9H47.2
	c-1.1,0-2-0.9-2-2s0.9-2,2-2h39.1c1.1,0,2,0.9,2,2S87.4,83.9,86.3,83.9L86.3,83.9z M86.3,70.8H47.2c-1.1,0-2-0.9-2-2s0.9-2,2-2h39.1
	c1.1,0,2,0.9,2,2S87.4,70.8,86.3,70.8L86.3,70.8z M86.3,57.7H47.2c-1.1,0-2-0.9-2-2s0.9-2,2-2h39.1c1.1,0,2,0.9,2,2
	S87.4,57.7,86.3,57.7L86.3,57.7z"/>
</svg>
