<?xml version="1.0" encoding="utf-8"?>
<!-- Generator: Adobe Illustrator 25.4.1, SVG Export Plug-In . SVG Version: 6.00 Build 0)  -->
<svg version="1.1" id="레이어_1" xmlns="http://www.w3.org/2000/svg" xmlns:xlink="http://www.w3.org/1999/xlink" x="0px"
	 y="0px" viewBox="0 0 422 137" style="enable-background:new 0 0 422 137;" xml:space="preserve">
<style type="text/css">
	.st0{fill:#F9CF58;}
</style>
<g id="Capa_2">
	<path class="st0" d="M31.9,69.6L31.9,69.6L31.9,69.6L31.9,69.6z"/>
	<path class="st0" d="M32,69v0.6l0,0l1,0.3c0.2,0.1,0.1,0.2,0,0.3c0,0,0,0,0,0c-0.1,0.1-0.3,0.1-0.4,0l-0.7-0.5l0.1,2.8l0.6,0.8
		c2.3,0,4.7,0.2,7,0.6c0.2,0,0.4,0.1,0.6,0.2c0.4,0.5,1,0.8,1.7,0.8c1.4,0.2,2.7,0.5,4,0.9c0.6,0.2,1.1,0.5,1.6,0.8
		c0.2,0.1,0.3,0.2,0.2,0.4c-0.4,0.6-0.1,1.5-1.2,1.9c-0.5,0.2-0.2,0.3,0.1,0.5c1.1,0.4,2.1,1,2.9,1.9c0.9,0.9-0.4,2.4-2.1,2.4
		c-1.7,0.1-3.3,0.1-5-0.2c-0.2-0.1-0.5-0.1-0.8,0c-1,0.5-2.1,0.6-3.2,0.5c-1.1,0-2.2,0-3.3,0.1c-0.9,0.1-1.8,0.2-2.8,0.2
		c0.6,0.3,1.2,0.4,1.8,0.4c1.3,0.2,2.7,0.4,4,0.5c0.5,0,1,0.3,1.2,0.7c0.5,0.7,1.3,1.2,2.1,1.2c0.8,0.1,1.6,0.3,2.4,0.6
		c0.9,0.6,1.9,1.3,2.7,2c0.2,0.2,0.2,0.4,0.2,0.6c1.1,1,2.7,1.1,4.4,1.2c0.7,0,1.3,0.3,2,0.3c0.4,0,0.6,0.2,0.5,0.5
		c-0.3,0.5,0.2,0.5,0.7,0.6c1.1,0.2,2.3,0.1,3.4,0.3c1.4,0.3,2.8,0.4,4.1,0.6c0.9,0.1,1.9,0.2,2.8,0.2c1.3,0.4,1.3,0.4,0.9,1.4
		c-2,0.5-3.8-0.1-5.7-0.3c-1.2-0.2-2.3-0.2-3.5,0.1c-0.2,0.1-0.5,0-0.5,0.3s0.3,0.3,0.5,0.3l2.1,0.4c0.3,0.1,0.6,0.1,0.5,0.3
		s-0.4,0.2-0.6,0.2c-0.5,0.1-1.1,0.1-1.6,0c-0.6-0.1-1.2-0.1-1.8,0c-0.6,0.1-1.3,0.1-1.9,0c-0.6-0.1-1.1-0.1-1.7,0.1
		c-0.7,0.2-1.4,0.2-2-0.1c-0.4-0.2-0.8-0.1-1.1,0.3c-0.8,0.9-0.4,1.5,1.2,1.8l0.8,0.1c0-0.3-0.3-0.6-0.2-0.9
		c0.1-0.1,0.2-0.3,0.4-0.1c0.6,0.6,0.6,0.1,0.9-0.2c0.1-0.1,0.1-0.1,0.2-0.2c0.2,0.3,0.6,0.6,0.7,0.8s0.3,0.3-0.1,0.4
		c-0.2,0-0.2,0.2-0.1,0.3c0.5,0.8-0.2,1.7,0.6,2.4c0.4,0.4,0.1,1,0.9,1.4c0.2-0.2,0.2-0.7,0.9-0.3c0,0,1.1-0.1,0.5-0.6
		c-0.2-0.2-0.3-0.4,0-0.5s0.4,0.2,0.5,0.3c0.1,0.2,0.3,0.4,0.4,0.6c0.1,0.2-0.1,0.6,0.6,0.3c0.3-0.1,0.2,0.3,0.5,0.3
		c0.5-0.3,0-0.7,0.5-1.1c0.3,0.3,0.4,0.7,0.3,1.2c-0.1,0.3,0.2,0.5,0.7,0.5c0.7,0,1.1,0.3,0.9,0.7s0.7,0.7,0.5,1s-0.9,0.5-1,0.8
		s-0.1,0.7,0.2,0.8c0.4,0.1,0.8,0.2,1.3,0.2c0.2,0,0.2-0.1,0.2-0.2c-0.3-0.2-0.1-0.6-0.5-0.7c-0.2-0.1-0.6,0-0.5-0.2
		s0.4-0.2,0.6-0.2c0,0,0,0,0,0c0.3,0.1,0.6-0.1,0.6-0.4c0-0.1,0-0.3,0.2-0.3s0.6,0.1,0.5,0.2c-0.4,0.4,1.6,0.3,0.3,0.8
		c-0.1,0-0.1,0.1-0.2,0.1h-0.1l-0.4-0.4c-0.1,0-0.1,0.1-0.2,0.2c-0.3,0.3,0.2,0.7,0.1,1c-0.2,0.5,0.6,0.4,0.9,0.6
		c0.7,0.4,1.5,0.6,2.3,0.7c0.7,0,0.6,0.3,0.6,0.6c0,0.4-0.5,0.2-0.9,0.2c0,0.4,0.4,0.6,0.9,0.6c0.9,0.1,1.1,0.4,0.6,0.9
		c-0.2,0.3-0.1,0.7-0.9,0.8c-0.2,0,0.2,0.3,0.5,0.3c0.8,0.1,1.7,0.3,2.5,0.3c0.9,0,1.7,0.4,2.4,0.9c0.3,0.2,1.1,0.4,0.9,0.7
		s-0.7,0-1.3,0.1s-0.8,0.3-0.9,0.7c0,0.2,0,0.5-0.4,0.4s-0.2-0.2-0.1-0.5s0.5-0.7-0.5-0.7c-0.6,0-0.2,0.3-0.5,0.5
		c-0.4-0.6-1.3-0.7-2.3-0.7c0.3,0.3,0.3,0.7,0.8,0.8c0.3,0.1,0.2,0.2,0,0.3v0c-0.1,0.1-0.3,0.1-0.4-0.1c-0.2-0.2-0.5-0.3-0.7-0.2
		c-0.2,0.1-0.4,0.4-0.5,0.6c-0.1,0.3,0.3,0.4,0.6,0.4c2.3,0.5,4.6,1.2,7,1.6c1,0.1,1.9,0.4,3,0.6s2.3,0.2,3.4,0.5l0.7,0.1l0.7,0.1
		c0.6,0.1,1.2,0.2,1.8,0.2l0.4,0.1c0.9,0.1,0.9-0.4,1.1-0.7l0.2,0.3c0.1,0.7,0.9,1.1,1.9,1c0.2,0,0.5,0,0.7,0.1
		c1.2,0.7,2.8,0.6,4.2,0.8c1.4,0.3,2.7,0.4,4.1,0.3c-0.2-0.7-0.1-1.4-1-1.9c-0.2-0.1-0.1-0.3,0-0.4c0,0,0,0,0,0
		c-0.2-0.1-0.3-0.4-0.2-0.7c0.1-0.1,0.1-0.3,0.1-0.3c-0.5-0.3,0-0.7-0.1-1.1c-0.1-0.2-0.1-0.6,0.5-0.6c0.2,0,0.3-0.1,0.4-0.3
		c0-0.5,0.9-0.7,1-1.2c0.1-0.1,0.2-0.2,0.4-0.1c0.2,0,0.4,0.2,0.4,0.4c0,0.1-0.1,0.4,0.3,0.3s0-0.3,0-0.4c-0.1-0.7-1-0.8-1.8-1.1
		c0.4,0.8-0.6,1-1.1,1.6c0.1-0.7-0.3-1.2-0.5-1.8c-0.3,0.3-0.1,0.7-0.8,0.9c-0.3,0.1-0.2,0.5,0.2,0.7c1,0.6,1,0.7,0.2,1.5
		c-0.3,0.3-0.5,0.7-0.1,1s0.1,0.6,0,0.8c-0.1,0.3-0.4,0.4-0.7,0.4c-0.3,0-0.4-0.2-0.4-0.4c-0.1-0.3-0.7-0.6-0.3-1.1
		c0.1-0.1-0.5-0.4-0.8-0.5s-0.2,0.1-0.3,0.4s-0.2,0.6-0.8,0.5c-0.3,0-0.9,0.2-0.8-0.4c0.1-0.2-0.5-0.3-0.8-0.5
		c-0.1,0.3,0,0.7-0.6,0.8c-0.1,0-0.3,0.2-0.1,0.2c1,0.5-0.3,0.9-0.2,1.4c0,0.1-0.3,0.2-0.5,0.1s-0.1-0.2,0.1-0.3
		c0.5-0.3,0.4-0.7,0.1-1.1c-0.2,0.6-0.4,1.2-1.4,1.3c0.2-0.4,0.3-0.9,0.4-1.3l0.7-0.3c-0.1-0.2-0.4-0.2-0.5-0.4
		c-0.4-0.2-0.2-0.5-0.5-0.7c0-0.2-0.2-0.2-0.5-0.2l-0.5-0.1c0-0.1,0-0.3,0-0.4s0.1-0.3-0.1-0.4s-0.3,0.2-0.8,0.2
		c0.4-0.4,0.4-1,1.2-1.2c0-0.2,0.1-0.4-0.3-0.5s-0.3,0.2-0.4,0.3c0,0-0.1,0.1-0.1,0.1c-0.1,0.1-0.3,0-0.4-0.1
		c-0.2-0.3-0.7-0.6-0.2-1c0.3-0.2-0.1-0.7-0.2-1c-0.1,0-0.1-0.1-0.2-0.1c-0.2,0-0.2,0.2-0.2,0.3c0.3,0.4-0.1,0.7-0.2,1.1
		c0,0,0,0,0,0c-0.1,0.2-0.3,0.2-0.4,0.1c-0.2-0.1-0.1-0.2,0-0.3c0.7-0.6-0.1-1.1-0.2-1.6c-0.5,0.6,0,1.2-0.4,1.8
		c-0.4-0.4-0.6-1-0.4-1.5c0.1-0.2,0.2-0.5-0.4-0.5c-0.1,0-0.1,0-0.2-0.1c-0.1-0.1-0.1-0.3,0-0.4c0.5-0.3,0.3-0.5,0.1-0.8
		c-0.1-0.2-0.1-0.4,0-0.6c0.1-0.1,0.3-0.2,0.1-0.4c-0.1,0-0.3,0-0.4,0c-0.4,0.1-0.2,0.2-0.2,0.4c-0.1,0.3,0,0.8-0.2,1
		s-0.1,0.5-0.6,0.5c-0.3,0-0.6-0.2-0.8-0.5c-0.1-0.2-0.2-0.3-0.4-0.5c-0.2,0.5,0.2,1.1-0.8,1.3c0,0,0,0.2,0,0.3c0.1,0.7,0,1.4-0.2,2
		c0,0.1-0.1,0.3-0.3,0.3s-0.3-0.1-0.3-0.3c0.1-0.3-0.2-0.6-0.3-0.9c-0.2,0.3-0.6,0.6-0.2,1c0.1,0.1,0.3,0.2,0.1,0.4
		c-0.1,0.1-0.3,0.1-0.4,0.1c-0.2-0.1-0.5-0.2-0.5-0.3c0-0.6,0.1-1.2,0.3-1.8c0.3-0.9,0.2-1.8-0.2-2.6c-0.3,0.2,0.2,0.6-0.4,0.7
		c0.1-0.4-0.3-0.7-0.6-1c0.7,0.1,1.5-0.1,1.6,0.7c0,0.1,0.1,0.2,0.3,0.2s0.3-0.2,0.2-0.3c-0.2-0.3,0.7-0.9-0.5-0.9
		c0.1-0.2,0.1-0.4,0.1-0.6c-0.1-0.4,0.6-0.2,0.8-0.5c0.2-0.5,0.5-0.2,0.8,0s0.6-0.1,0.9,0v0.7c-0.4,0.2-0.5,0.4-0.2,0.7
		c0.1,0.1,0.1,0.3,0.4,0.3s0.2-0.2,0.2-0.4c0.1-0.1,0.2-0.3,0.2-0.5c0.5,0,0.8-0.1,0.5-0.5c0.8-0.6,0.3-1.2,0-1.8
		c0.6-0.1,1.1-0.3,1.1-0.8c0-0.2,0.2-0.3,0.5-0.3l0,0c-0.2,0.6,0.1,1.2-0.2,1.8c0.7-0.6,2.2-0.6,2.2-1.6l0.2-0.1
		c0.5,0.1,0.5,0.2,0.2,0.6s-0.4,0.9,0,1.2s0.1,0.7-0.4,1c-0.1,0.1-0.2,0.2,0,0.3s0.4,0.2,0.5-0.1c0.2-0.6,0.4-1.3,0.5-1.9
		c0,0-0.2-0.1-0.4-0.2c0.7,0.1,1.1-0.1,1.2-0.5c0.4,0.5,0.4,0.5-0.2,0.8c0,0,0,0,0,0c-0.2,0.1-0.3,0.2-0.2,0.4
		c0.3,0.8,0.4,1.6,0.3,2.4c0,0.1,0.1,0.3-0.2,0.4s-0.3-0.2-0.4-0.3l-0.5-0.5c-0.3,0.1-0.2,0.4-0.6,0.4c0,0-0.1,0-0.1,0
		c-0.2-0.1-0.2-0.3-0.2-0.4c0-0.1,0.1-0.2-0.1-0.2c-0.2,0-0.3,0-0.5,0.1c-0.2,0.1-0.3,0.3-0.3,0.6c0.1,0.5,0.3,1,0.4,1.5
		c0.1,0.3,0.4,0.3,0.6,0s0.4-0.6,0.7-0.9c0.3,0.1,0,0.3,0,0.4S82.8,110,83,110c0.2,0.1,0.3,0,0.5-0.1c0.2-0.1,0.4-0.3,0.7-0.1
		s0,0.4-0.2,0.5c-0.5,0.3,0,0.7-0.4,1c1.3-0.3,1.8-1.2,1.1-2c-0.3-0.4-0.1-0.8,0.2-1.2s0.7-0.8,0.5-1.2c0.4-0.1,0.5,0.3,0.6,0.2
		s0.1-0.1,0-0.3s0-0.4-0.5-0.4c-0.3,0-0.7,0.2-0.7-0.1s0.4-0.2,0.7-0.2h0.2c0.7-0.2,0.7-0.2,1,0.2v-1.1c0-0.2,0-0.3,0.3-0.3
		s0.4,0,0.4,0.2v0.1c-0.1,0.3,0.1,0.6-0.2,1s-0.5,0.8,0.5,0.9c-1.1,0.4,0,0.9-0.2,1.3c0.5,0.1,0.6-0.7,1.1,0
		c0.2,0.2,0.4-0.1,0.6-0.3c0.6,0.7-0.5,1.2-0.4,1.8c0.1-0.1,0.3-0.1,0.3-0.1c0.6-0.6,0.7-0.7,1.4-0.1c0.4,0.3,0.4-0.2,0.6-0.1
		s0.1,0.4,0.4,0.5c0.3-0.1,0.2-0.4,0.1-0.5c-0.3-0.6,0.5-0.7,0.9-1c0.1,0,0.2,0,0.2,0c0.1,0.1,0.1,0.2,0,0.3c-0.2,0.4-0.7,0.6-0.7,1
		c0.5-0.1,0.4-0.5,0.9-0.5c0.2-0.2,0.3-0.5,0.4-0.8c0.1-0.1,0.2-0.2,0.4-0.2c0.2,0,0.2,0.2,0.2,0.3c-0.1,0.4-0.3,0.7-1,0.7
		c0.4,0.3,0,0.6-0.1,0.7s-0.2,0.3-0.1,0.4s0.3,0,0.5,0c0.8-0.1,1.1-0.4,1.2-0.9c0-0.7,0.3-1.3,0.8-1.8c0.5,0-0.5,0.6,0.5,0.4
		c0.1,0,0.1,0.1,0.1,0.2s-0.3,0.5,0.4,0.4c0.2,0,0.2,0.4,0,0.5c-0.6,0.5-0.6,1.1-0.9,1.7c-0.1,0.2,0,0.4,0.4,0.6
		c-0.2-1,1-1.2,1.8-1.6c0.3-0.1,0.3-0.3,0.2-0.5c0.4,0.1,0.3,0.3,0.4,0.5c0.1,0.2,0.3,0.3,0.6,0.3c0.3-0.1,0.2-0.4,0.1-0.4
		s-0.2-0.1-0.3-0.2s-0.2-0.4-0.1-0.6s0.5,0,0.6,0c0.6-0.1,1.3-0.1,1.6-0.6c0.1-0.2,0.1-0.2,0.4-0.2c0,0.2-0.1,0.4,0.2,0.4
		s0.4-0.2,0.5-0.3c0.2,0.1,0.4,0.2,0.5,0.3c0.5,0.6,1.2,0.9,2,0.7l0,0c-0.8,0.7-0.6,1.4-0.8,2.1c-0.1,0.2,0.2,0.3,0.6,0.3
		s0.4-0.1,0.2-0.3s0.1-0.4,0.1-0.6c0-0.5,0-1,0-1.5c0.3-0.1,0.4-0.1,0.9,0.2c0.2-0.1,0.1-0.3,0.2-0.5l0.2-0.5l0.5,0.1l0,0
		c-0.4,0.5-0.5,1.2-0.2,1.7c0.1,0.1,0.2,0.3,0.1,0.4c-0.6,0.6,0.4,0.6,0.6,0.6c0.6,0,0.5,0,0.5,0.4s0,0.8,0,1s0.1,0.4-0.5,0.5
		s-0.7,0.4-0.7,0.7c-0.1,0.7,0.1,1.4,0.4,2c0.2-0.3,0.8-0.5,0.2-1c-0.3-0.2-0.6-0.7-0.2-0.9s0.6-0.6,1.1-0.8
		c0.3-0.1,0.4,0.2,0.8,0.2c-0.7-0.6,0.4-1.4-0.6-2c0,0,0.1,0.1,0.1,0.1c0.3,0.2,0.8,0.2,1-0.2c0.3-0.3-0.1-0.4-0.4-0.4
		c-0.5-0.2-0.2-0.4-0.2-0.7c0.7,0.4,1.6,0.6,2,1.2c0.1,0,0.2-0.1,0.2-0.1c0.2-0.2,0.4-0.6,0.9-0.4s0.6,0.4,0,0.8s-0.4,1.5-0.1,2
		c0.3,0.3,0.4,0.8,0.4,1.2c0,0.2,0,0.5,0.3,0.5s0.4-0.1,0.5-0.2c0.1-0.1,0.2-0.1,0.3-0.1c0.2,0.1,0.1,0.2,0,0.3
		c-0.2,0.3-0.5,0.5-0.3,0.8c0.2-0.1,0.5-0.1,0.5-0.3c0.2-0.5,0.3-1,0.3-1.6c-0.4,0-0.3,0.4-0.6,0.3c-0.3-0.1-0.5-0.3-0.5-0.6
		c-0.1-0.3,0.4-0.3,0.7-0.4c-0.4-0.1-0.8-0.3-0.8-0.6s-0.3-0.5,0-0.8c0.1,0,0.1,0,0.2,0.1c0.2,0.2-0.2,0.5,0.2,0.6s0.6-0.3,0.8-0.4
		c0.4-0.2,0.7-0.6,0.6-1.1c-0.1-0.5,0.2-1,0.8-1.2c0,0.3-0.4,0.5-0.4,0.8c0.2,0,0.5-0.1,0.6-0.2c0.4-0.3,0.4-0.1,0.5,0.1
		c-0.3,0.4-0.2,1-0.8,1.4c-0.2,0.1,0.2,0.7,0.3,1.1c0.4,0,0.3-0.3,0.5-0.3c0.5,0.4-0.3,0.7,0.1,1.2c0.2-0.2,0.4-0.5,0.5-0.9
		c0-0.2,0.1-0.3,0.2-0.4c0.6-0.5,0.6-0.5-0.1-0.9c0.5,0,0.9,0.1,1.1,0.3s0.3,0.2,0.5,0.1s0.3-0.3,0.1-0.4c-0.3-0.2-0.5-0.3-0.8-0.3
		c-0.7,0-0.8-0.3-0.7-0.6c0.1-0.1,0.2-0.2,0.2-0.2c-0.6-0.8,0.5-0.8,1-1c0.1,0,0.3-0.1,0.3,0c0.5,0.7,1.3-0.1,1.9,0.3
		c-0.2,0.2-0.5,0.5,0.1,0.9s1-0.2,1.5,0.1c0-0.2-0.2-0.4-0.4-0.4c-1,0-0.5-0.3-0.3-0.6c0.4-0.7,0.6-1.5,0.7-2.3
		c0.5,0.1,1.1,0.2,1.6,0.2c0.8-0.1,1.6-0.1,2.3,0c-0.1,0.4,0.4,0.8,0.1,1.2l-0.1,0.1c-0.2,0-0.4,0-0.5,0.4c0.9-0.3,1.7,0,2.5-0.3
		l0,0c0.6,0.3,1.3,0.4,2,0.3c0.3,0,0.6,0.2,0.6,0.5s-0.5,0-0.5,0s-0.1,0-0.2,0c-0.4,0-0.4,0.2-0.1,0.4c0.6,0.3,1.3,0.7,1.1,1.7
		c0,0.1,0,0.3,0.2,0.3s0.1-0.2,0.1-0.4c0-0.2,0-0.4,0-0.5c0-0.2,0-0.4,0.3-0.4s0.2,0.2,0.2,0.4c0.2,0.3,0.2,0.7,0.2,1
		c0,0.1,0.1,0.2,0.3,0.2c0.2,0,0.5-0.1,0.6-0.3c0.1-0.2,0.1-0.5,0.4-0.6c-0.1,0.5,0.2,0.7,0.6,0.7c0.1,0,0.3,0,0.3-0.1
		c0.2-0.9,0.8-0.6,1.2-0.4s0.7,0.3,0.9-0.3c0.1-0.3,0.3-0.3,0.5,0c0.2,0.5,0.5,0.4,1,0.3c0.8-0.2,1.7-0.2,2.5-0.1c0.2,0,0.5,0,0.7,0
		c0.3,0,0.7,0,1,0.1c0.5,0.2,1.1,0.2,1.6,0c0.3,0,0.6,0,0.9-0.1c0.6-0.1,1.2,0,1.7,0.3c0.3,0.3,0.6,0.6,0.8-0.1
		c0.1-0.2,0.2-0.3,0.3-0.2s0.2,0.2,0.1,0.4s-0.1,0.4-0.1,0.6l0.1,0.1c0.4,0,0.7-0.1,0.5-0.6s0.2-0.6,0.5-0.6c1,0,2-0.2,3-0.3
		c0.3,0.1,0.5-0.3,0.9-0.2c0.3,0.1,0.6,0.2,0.9,0.1c0.9-0.1,1.7,0,2.5,0.5c0.1,0.1,0.2,0.1,0.2,0c0.7-0.6,0.4,0.2,0.5,0.4
		c-0.1,0.1-0.4,0-0.4,0.4c0,0.1,0.1,0.2,0.1,0.2c0.3,0.1,0.5-0.1,0.5-0.4s-0.1-0.7,0.3-0.7s0.4,0.5,0.7,0.8c0.2-0.2,0.2-0.5,0.1-0.6
		s0-0.3,0.1-0.3s0.2,0.1,0.2,0.2c0.2,0.8,0.4,0.9,1.1,0.7c0.7-0.2,1.5-0.3,2.2-0.3c0.3,0.5,0.9,0.3,1.3,0.3s0.5,0.1,0.4,0.6
		c-0.2,0-0.3-0.5-0.6-0.2c-0.1,0.1-0.1,0.3,0,0.4c0.1,0.3,0.4,0.3,0.6,0.2c0.7-0.2,1.4-0.3,2.1-0.4l1-0.8c0.1,0.2,0.3,0.2,0.4,0.2
		c-0.1,0-0.2-0.1-0.4-0.2l-1,0.8c0.3,0,0.7,0.1,1,0.1c-0.1,0.2-0.4,0.4-0.5,0.3s-0.3,0-0.3,0.2s0.1,0.4,0.3,0.3
		c0.6-0.2,1.2-0.1,1.7-0.5h0.1l0.1,0.2l0.5-0.3c1.3,0.2,2.6-0.1,3.9,0.4c0.4,0.2,0.8,0.1,1.1-0.2c0.3-0.4,0.9-0.1,1.3,0
		c0,0,0.1,0,0.1,0.1c0.2,0.1,0.4,0,0.5-0.2c-0.2-0.6,0.2-0.7,0.6-0.8c0.4,0,0.7-0.1,1.1-0.3h0.1c0.3,0.2,0,0.5,0.1,0.8
		c0.4-0.1,0.3-0.7,0.7-0.7l0.2,0.3l0.1-0.2l-0.1,0.2c0.4,0.2,0.6-0.1,0.9-0.3h0.4c0-0.1,0.1-0.2,0.2-0.2c-0.1,0.1-0.1,0.2-0.2,0.2
		c0.1,0,0.3,0,0.4,0.1c0.1,0,0.2,0.2,0.2,0.3c0,0.1-0.1,0.2-0.2,0.2c-0.4,0.1-0.4,0.4-0.2,0.7s-0.3,0.9,0.4,0.8c0,0,0,0.1,0,0.1v0.8
		c0.1,0.3,0.2,0.3,0.4,0.2s0.3-0.2,0.3-0.5c-0.1-0.4,0-0.7,0.1-1.1c0-0.1,0.1-0.2,0.3-0.2s0.1,0.1,0.1,0.3s0.1,0.5,0.3,0.5
		s0.2-0.4,0.2-0.5s0.1-0.4,0.2-0.2c0.2,0.3,0.6,0.4,0.9,0.4c0.3,0,0.2,0.2,0.1,0.5s-0.4,0.4-0.1,0.7s0.1,0.6-0.2,0.8
		c-0.1,0.2-0.1,0.8-0.6,0.3c-0.1-0.1-0.2-0.2-0.3,0s-0.2,0.4,0.1,0.5c0.2,0.1,0.4,0.3,0.5,0.5c0,0,0,0,0,0c0.1,0.1,0,0.3-0.1,0.4
		c-0.3,0.2-0.5,0.6-0.3,1c0.2-0.2,0.3-0.7,0.5-0.7s0.2,0.4,0.4,0.4c0.2-0.2,0.4-0.6,0.7-0.6c0.4,0.3,0.5-0.3,0.9-0.3
		c0-0.1,0-0.1,0-0.2c0,0.1,0,0.1,0,0.2c0.3,0,0.6,0,0.8-0.2c0.1-0.1,0.2-0.1,0.2-0.2c0.1-0.1,0.4-0.3,0.3-0.5c0,0,0,0,0,0
		c-0.1-0.2-0.3-0.3-0.5-0.2c-0.1,0.1-0.2,0.4-0.4,0.3c-0.4-0.1-0.8-0.1-1.2,0.1c0,0,0,0,0,0c-0.3,0.1-0.5-0.1-0.6-0.3
		c0.1-0.1,0.4-0.2,0.4-0.4c-0.1-0.5-0.1-0.8,0.5-0.9c0,0,0.1,0,0.1,0c0.1-0.1,0.1-0.2,0-0.2c-0.5-0.5,0-0.6,0.2-0.7
		c0.2-0.1,0.3-0.2,0.4-0.4c0.2-0.4,0.5-0.6,0.9-0.1c0.2,0.2,0.4,0,0.6,0c0.1,0.5,0.5,0.8,0.7,1.2s0.1,0.6-0.1,0.9
		c0,0.2,0,0.6,0.3,0.5s0.8-0.2,0.6-0.8c-0.4-1.1,0-1.8,1-1.9c0.4,0,0.4,0.2,0.3,0.4c-0.1,0.4-0.2,0.8-0.4,1.1
		c-0.2,0.2,0.2,1.1,0.4,1.2s0.2-0.1,0.2-0.3s-0.1-0.6,0.2-0.7s0.4,0.2,0.6,0.4s0.3,0.2,0.5-0.1l0,0c0,0,0,0,0,0
		c0.5-0.2,0.8-0.7,0.6-1.3c-0.1-0.4,0-0.7,0.3-1l0,0l0.4-0.1c0.4,0.2,0.7,0.4,0.1,0.8c-0.2,0.1-0.2,0.3-0.2,0.6s0.1,0.6,0.4,0.4
		c0.5-0.2,1-0.4,1.6-0.6h0.4c0.6-0.2,1.1-0.3,1.7-0.4c0.4-0.5,1-0.2,1.5-0.6c0.4,0,0.8-0.1,1.2-0.3c0.6-0.3,1.2-0.1,1.8-0.4l0.4-0.3
		l-0.8,0.1l0,0l0.8-0.1h0.1c0.3,0.1,0.4,0.4,0.4,0.7l0.2,0.1c0.1-0.5,0.4-0.8,0.8-1l0.1-0.1c0.3-0.1,0.6-0.2,0.9-0.2l0,0
		c0.3-0.1,0.7-0.1,1,0c0.1,0.1,0.3,0.1,0.5,0.1c1-0.4,2.2-0.2,3.2-0.6c0.3,0.2,0.6,0.5,0.7-0.2c0-0.3,0.2-0.2,0.3,0
		c0.1,0.1,0.2,0.3,0.3,0.3c0.3,0.1,0.7,0,0.8-0.3c0.2-0.4,0.6,0,0.8-0.4h0.1c0.5,0.4,0.9,0,1.4,0h0.1c-0.1,0.1-0.2,0.3-0.2,0.4
		c0,0.3-0.3,0.8,0.7,0.8c0.1,0,0.2,0.1,0.2,0.1s0,0.1-0.1,0.2s-0.4,0-0.6,0.2c0.6,0.3,1.1,0.7,0.6,1.3c0.3,0.1,0.4,0,0.4-0.1
		c0,0,0,0,0,0c0.2-0.2,0.6-0.3,0.8-0.1c0.3,0.2,0.3,0.3-0.2,0.6s-1.3,0.5,0.1,0.6c0,0,0.1,0,0.1,0c0.1,0,0.2,0.2,0.1,0.3
		c0,0.1-0.5,0.3,0.1,0.4s0.5-0.2,0.6-0.4c0-0.1,0-0.1,0.1-0.2c0.4,0.4,0.4,0.4,0,1c-0.1,0.2-0.4,0.4-0.1,0.5s0.4-0.2,0.5-0.3
		c0.1-0.1,0.3-0.2,0.4-0.3c0.3-0.2,0.4-0.4,0.2-0.6s-0.2-0.4,0.1-0.5c0.3-0.1,0.6,0,0.7,0.2c0.2,0.3,0.3,0.6,0.3,0.9
		c0,0.2-0.8,0.6,0.3,0.5c0.1,0,0.1,0.2,0,0.2c-0.4,0.2-0.3,0.4-0.1,0.5s0,0.6,0.5,0.6s1-0.8,0.9-1.1s-0.6-0.7,0.4-0.8
		c-0.1-0.1-0.1-0.2-0.1-0.3c-0.2-0.6-0.2-0.6-0.8-0.2c-0.2,0.1-0.5,0.1-0.7-0.1c-0.2-0.2,0-0.3,0.2-0.3c0.2-0.1,0.5-0.2,0.6-0.4
		c0.1-0.2,0.2-0.3-0.1-0.5s-0.6-0.2-0.7,0c-0.3,0.5-0.9,0.2-1.4,0.3c-0.2,0.1-0.6-0.1-0.7-0.1c-0.5,0.3-0.4,0.1-0.5-0.2
		s0.1-0.5,0.5-0.6c0.8-0.3,0.7-0.6,0.2-1l0,0c0.1-0.4-1-0.4-0.5-0.9c0.3,0.2,0.4,0.5,0.8,0.5c0.9,0,0.8,0.5,0.6,0.8s0.4,0.6,0.6,0.7
		s0.6,0.1,0.6,0c0.2-0.4,0.8-0.4,1.2-0.7c-0.1-0.1-0.3-0.2-0.4-0.3c-0.1-0.1-0.1-0.2-0.1-0.3c0,0.1,0.1,0.2,0.1,0.3
		c0.1,0.1,0.2,0.2,0.4,0.3l0.5-0.6c0.1,0,0.2,0,0.2,0c0.1,0.1,0.1,0.1,0.2,0.2c0.6,0.8,0.4,2-0.4,2.6c0.6-0.1,1.2-0.4,1.7,0.1v0.3
		c-0.8-0.2-1.6-0.4-2.1,0.3l0.2,1.2c0,0,0,0,0,0c0.1,0.4-0.2,0.7-0.6,0.8c-1.1,0.3-0.6,0.5,0,0.7c1.1,0.2,2.2,0,3.2-0.4
		c0.1-0.1,0.1-0.1,0.1-0.1c0.6,0,1.3,0,1.9,0c0.2,0,0.3-0.4,0.8-0.1c0.3,0.1,0.7,0.1,1,0c1.3-0.2,2.6-0.4,3.8-0.6c0.2,0,0.5,0,0.7,0
		c1,0.1,2.1-0.1,3.1-0.4c0.6-0.2,1.2,0,1.8-0.1c1.2-0.1,2.4-0.2,3.4-0.3s2.1-0.2,3.1-0.3c0.6,0,1.2-0.2,1.7-0.5
		c0.1-0.1,0.1-0.2,0.3-0.1c0.9,0.5,1.9,0.1,2.9,0s2.1-0.2,3.1-0.4c1.2-0.2,2.5-0.1,3.6-0.3s2.3-0.2,3.4-0.2c0.8,0,1.6-0.2,2.4-0.3
		c0.2,0,0.4,0,0.6,0c1.6,0.1,3.3-0.2,5-0.1c0.5,0,1-0.1,1.5-0.1c0.9,0,1.8-0.1,2.6-0.2c-0.1,0-0.2,0.1-0.3,0.2
		c0.1,0.1,0.3,0.2,0.5,0.2c0.8-0.2,1.6-0.2,2.5-0.1c0.2,0,0.4,0,0.6,0c1.2-0.1,2.5-0.1,3.7,0c0.4,0,0.7-0.2,1-0.2
		c0.8,0.1,1.5-0.1,2.3,0c0.5,0.1,1.1-0.3,1.5,0.3c0,0,0.2,0,0.2-0.1c0.6-0.6,1.3-0.4,1.9-0.4c0.6,0,1.2-0.1,1.7-0.4
		c0.1-0.1,0.2-0.1,0.2-0.1c0.4,0.8,1.4,0.1,2,0.8c0.2,0.2,0.3-0.2,0.4-0.4c0-0.1,0.1-0.2,0.1-0.3h0.6c0.4,0.5,0.7,0.4,1,0h0.3
		c0,0.1,0.1,0.1,0.1,0.1c0.8-0.1,1.5,0.8,2.5,0.4c0.4-0.1,0.8-0.1,1.3,0c0.7,0,1.5,0,2.2-0.1c0.8,0.3,1.7,0.5,2.6,0.4
		c0.7,0,1.5-0.3,2.1,0.4c0.3-0.2,0.8,0,0.6-0.7c-0.1-0.2,0.1-0.2,0.2-0.2h0.4c0.9,0,0.9,0,0.8-1c0.3-0.1,0.4-0.1,0.4,0.4
		s0.2,0.4,0.5,0.4c0.9,0.1,1.9,0.1,2.8,0c0.9,0,1.7-0.1,2.6-0.2c0.2,0.3,0.5,0.4,0.9,0.4c1.2-0.1,2.5,0.1,3.6,0.5c0.1,0,0.2,0,0.4,0
		c0.2-0.1,0.5-0.4,0.4,0.2c0,0,0.1,0.1,0.1,0.1c0.4,0,0.6-0.4,1-0.3c0.6,0.1,0.5-0.4,0.5-0.7c0-0.3,0.2-0.5,0.5-0.4
		c0.3,0,0.6,0.3,0.8,0.6c0,0-0.1,0.2-0.1,0.2c-0.1,0-0.2,0-0.2-0.1c-0.2-0.2-0.4-0.1-0.5,0c-0.1,0.1-0.3,0.2-0.1,0.3
		s0.3,0.5,0.6,0.4c0.6-0.2,1,0.1,1.1,0.8c0,0.2,0.1,0.3,0.3,0.2c0.2-0.1,0.1-0.2,0-0.4c-0.1-0.1-0.2-0.3-0.2-0.5
		c0-0.1,0-0.2,0.1-0.3c0.1-0.1,0.2,0,0.3,0.1c0.4,0.4,0.8,0.8,1.4,0.3c0.5,0.5,1.1,0.3,1.7,0.5c0.2,0.1,0.2,0.6,0.4,0.6
		c0.2,0.1,0.1-1.1,0.5-0.2c0.1,0.2,0.2,0.1,0.3,0c0.2-0.5,0.7-0.4,1-0.3c0.4,0.1,0.7,0.1,1.1,0.1c0.3,0,0.4-0.1,0.5-0.3
		s0.2-0.2,0.4-0.2c0.2,0.7,0.2,0.7,1.1,0.8c0.5,0.1,0.5,0.1,0.9-0.3c0.2,0.7,0.6,0.5,1.1,0.3s0.7-0.2,1,0.2c0.1,0.2,0.3,0.3,0.4,0.3
		c0.8-0.2,1.2,0.3,1.6,0.9l0,0c0-0.6,0.2-0.8,0.8-0.5s0.7,0.1,0.7-0.5c0-0.2,0.1-0.3,0.2-0.3c0.3,0.2,1,0,1,0.7
		c0,0.3,0.2,0.4,0.5,0.4c0.6,0,1.2,0,1.8,0.2c0.1,0.1,0.3,0,0.4-0.1c0.2-0.4,0.5-0.4,0.8-0.6l0,0c0.1,0,0.2,0,0.2,0
		c-0.1,0-0.2,0-0.2,0l0,0c0.2,0.1,0.2,0.3,0.2,0.5s-0.2,0.2-0.1,0.4c0.1,0.2,0.4,0.3,0.6,0.2c0.2-0.1,0.2-0.1,0.1-0.4
		c-0.1-0.3,0-0.4,0.3-0.5s0.6-0.1,0.6,0.3c0,0.7,0.4,0.8,0.9,0.8c0.5,0.1,0.9,0.2,1.4,0.3c-0.1-0.6-0.3-1-0.7-1.2
		c0.4,0.2,0.6,0.5,0.7,1.2h0.7l0.6,0.3c0.1-0.1,0.2-0.3,0.3,0c0.1,0.2,0.1,0.5,0.1,0.7c0.2-0.2,0.1-0.3,0.2-0.5
		c0.1-0.2,0.3-0.4,0.4-0.2c0.6,0.7,1.1,0.4,1.7,0.1c0.5,0.5,1,1.1,1.9,0.8l0.1,0.1c0.8,1.2,1.9,1.1,3,0.6c0.2-0.1,0.3,0.1,0.4,0.2
		c0.4,0.4,1,0.6,1.6,0.5c0.3,0,0.6,0.1,0.8,0.3c0.1,0,0.3-0.1,0.4-0.1c0.3,0,0.8,0.4,0.5-0.5c-0.1-0.2,0.1-0.3,0.3-0.3h0
		c0.2,0.1,0.4,0.3,0.3,0.6c-0.1,0.3-0.1,0.5,0.2,0.5c0.3,0,0.7,0.1,0.8-0.2s0.2-0.4,0.5-0.4c0.6,0,1.1,0.4,1.7,0.5
		c0,0.2-0.1,0.2-0.2,0.2s-0.3,0.1-0.2,0.3s0.2,0.1,0.4,0.1c0.5-0.1,0.8-0.6,1.3-0.4c0.8,0.2,1.5,0.3,2.3,0.3c0.1,0,0.3,0,0.4,0
		l0.5,0.3c0.2,0,0.4,0.1,0.5,0.2c0.7,0.4,1.4,0.5,2.2,0.4c0.3,0,0.7,0.6,0.9-0.2c0.4,0.9,0.4,0.9,1,0.4c0.1-0.1,0.2-0.1,0.3,0
		c0.3,0.4,0.9,0.6,1.4,0.3c0.6-0.2,1.3-0.2,1.9,0.1c0.2,0.1,0.5,0,0.7-0.2c0.2-0.3,0.6-0.5,1-0.6c0,0.1,0.1,0.3,0.1,0.3
		c0.4-0.4,0.8,0.2,1.2,0c0.3,0.3,0.6,0.8,1.1,0.7c0.7,0.2,1.3,0.2,2,0c-0.1-0.2-0.2-0.2-0.4-0.2v-0.4c0.2,0,0.4-0.1,0.5-0.3
		c0.2,0.1,0.6,0.2,0.7,0.1c0.2-0.1,0.5-0.1,0.5-0.4s-0.3-0.2-0.5-0.3c-0.5-0.2-0.3-0.5-0.1-0.8c0,0,0,0,0.1,0
		c0.5-0.1,1.1,0.2,1.2,0.8c0.3-0.2-0.1-0.8,0.4-0.8c0.5,0,0.9,0.3,1,0.8c0.1,0,0.2-0.2,0.2-0.3c0-0.4,0.3-0.3,0.5-0.4
		c0.3-0.3,0.4,0,0.5,0.2c0.1,0.2,0.2,0.3,0.5,0.2c0.9-0.2,1.8-0.1,2.6,0.3l-0.4,0.3c-0.1,0.5,0.1,0.7,0.5,0.5s0.5-0.1,0.7,0.3
		c0.1,0,0.2,0,0.4,0c-0.1,0-0.3,0-0.4,0c0.1,0.5-0.1,0.5-0.5,0.5c-0.1,0-0.3,0-0.3,0.2s0.2,0.2,0.3,0.2c0.3-0.1,0.6-0.1,0.9,0
		c0.1,0,0.2,0,0.2,0c0.4,0.7,0.9,0.2,1.3,0c0.1-0.1,0.2-0.1,0.4-0.1c0.6,0.2,0.9,0,0.8-0.8c0,0,0-0.1,0-0.1c0-0.2,0.2-0.3,0.3-0.2
		c0.2,0,0.1,0.2,0.1,0.4c-0.1,0.6,0.5,0.9,0.7,1.4c0.1,0.2,0.2,0.3,0.3,0.4h0.2c0.1,0,0.2,0,0.2-0.1c0.2-0.5,0.5-0.4,0.8-0.1
		c0,0,0,0.1,0.1,0.1c0.1,0.1,0.4,0.1,0.5-0.1c0.4-0.6,0.7-0.2,1,0.2c0.3,0.1,0.5,0,0.5-0.3s-0.1-0.4-0.4-0.4
		c-0.7-0.1-1.4-0.2-2.2-0.2c-0.2,0-0.4-0.2-0.4-0.4c-0.1-0.3,0-0.5,0.2-0.7c0.2-0.2,0.3,0,0.5,0.1c0.3,0.4,0.5,0.1,0.6-0.2
		c0-0.1,0.1-0.2,0.2-0.3c0.2-0.1,0.5-0.1,0.6,0.2c0.6,0.6,0.9,0.6,1.1-0.2c0.1-0.1,0.1-0.3,0.2-0.3s0.3,0.2,0.3,0.3
		c0.1,0.5,0.5,0.4,0.5,0.1c0.1-0.6,0.5-0.7,1-0.8c0.8-0.2,1.5-0.8,2.3-0.6c0.2,0.1,0.5-0.1,0.5-0.4c0-0.3,0-0.6-0.4-0.6
		c-0.2,0-0.4-0.1-0.6-0.2l-0.4,0.1c-0.6,0.5-1.3-0.1-2,0c-0.3,0-0.5,0-0.5,0.4c0,0.1-0.1,0.3-0.2,0.3c-0.1,0-0.2-0.2-0.2-0.3
		c0-0.7-0.4-0.7-0.8-0.7c0,0.3,0.1,0.3,0.4,0.6s0,0.7-0.2,0.6c-0.8-0.4-1.4,0.2-2.1,0.2c-0.7,0-1.3-0.2-1.9-0.6
		c-0.1-0.1-0.2-0.1-0.3-0.1c-0.6,0.5-0.9-0.1-1.3-0.5c-0.2-0.2-0.4-0.4-0.7-0.2s0,0.5,0,0.6c0,0.1,0,0.3-0.1,0.3s-0.2-0.1-0.2-0.2
		c-0.4-0.4-0.2-1-0.3-1.5c0-0.1,0.1-0.2,0.3-0.1s0.4,0.3,0.6,0.1c0.2-0.3-0.1-0.4-0.1-0.7v-0.2h0.4l0.3,0.6c0.6,0.4,1.4,0.6,2.1,0.6
		c0.4-0.6,0.4-1.3,0.2-2c-0.3-0.6-0.7-0.6-1.2-0.4l-0.4-0.1c-0.2-0.2-0.5-0.2-0.7-0.3c-0.6-0.1-1.2-0.2-1.9-0.2
		c-0.5,0.1-0.9-0.3-1.4-0.3c-0.8,0-1.6-0.1-2.4-0.1c-0.1,0-0.3,0-0.3-0.2s0.2-0.2,0.3-0.2c0.2,0,0.5,0,0.7,0c0.4,0,0.9,0.3,0.5-0.6
		c-0.1-0.2,0.1-0.4,0.4-0.4c0.5,0,0.9-0.2,1.4-0.2c0.6,0,1.2-0.1,1.7-0.4c0.2-0.2,0.5-0.2,0.7,0c0.1,0.1,0.3,0.1,0.3,0.1
		c0.9-0.7,1.9-0.2,2.8-0.4h0.2l1-0.2c0.9,0.2,1.8,0.2,2.7,0c0.5-0.2,1.1-0.3,1.6-0.3c0.1,0,0.2,0,0.2,0c0.3-0.6,0.9-0.6,1.4-0.7
		c0.2,0,0.4,0,0.4-0.3c0-0.2-0.3-0.1-0.4-0.1h-0.6c-0.6,0.1-1.2,0.4-1.7,0.7c-0.3,0.1-0.6,0.2-0.9,0.2c-1.5-0.1-3-0.2-4.6-0.1
		c0,0,0,0-0.1,0c-0.2,0-0.3-0.1-0.3-0.3c0-0.2,0.2-0.3,0.3-0.3c0.6-0.2,1.3-0.4,2-0.4c1.1-0.1,2.2-0.4,3.1,0
		c0.8,0.4,1.1,0.1,1.5-0.4c0.1-0.2,0.5-0.1,0.7-0.1c0.3-0.2,0.7-0.2,1-0.1c0.2,0.1,0.4,0.1,0.6,0c0.1-0.1,0.3,0,0.3-0.3
		s-0.2-0.3-0.4-0.3c-0.8-0.1-1.5-0.1-2.3,0c-0.4,0-0.8-0.1-1.1-0.3c0.3-0.3,0.8-0.2,0.9-0.3c0.1-0.1,0.2-0.2,0.2-0.3
		c0,0,0-0.1,0-0.1c-0.1-0.1-0.2-0.1-0.3-0.1c-0.5,0.3-1.2,0.2-1.7,0.4c-0.1-0.4-0.2-0.8-0.5-1l0,0c-0.5,0-0.8-0.3-1-0.8
		c-0.3,0.1-0.7,0.2-1.1,0.1c-0.2,0-0.6,0.1-0.4-0.5c0.1-0.2-0.1-0.2-0.3-0.2c-0.2,0-0.4,0-0.7,0c-1.2,0.2-2.4,0.1-3.6-0.2
		c-0.4,0-0.9,0-1.3,0.1c-0.1-0.1-0.4-0.2-0.2-0.3c0.6-0.8-0.4-0.7-0.5-0.8c-0.1-0.1-0.3,0-0.5,0c-0.7,0.1-0.8,0-0.9-0.8
		c0.4-0.1,0.8-0.2,1.2-0.2c1-0.1,1.9-0.7,2.9-0.8c0.3-0.1,0.7-0.1,0.9,0.2c0.4,0.4,1,0.1,1.3-0.1s0.5,0,0.7,0.1
		c0.1-0.5,0.3-0.4,0.6-0.2h0.1c0.6,0.3,0.9,0.1,1-0.8c0.3,0.7,0.5,1.1,1.2,0.8c0.1-0.1,0.3,0.1,0.5,0.2h0.2c0.1,0,0.3,0.1,0.4-0.2
		c0-0.2-0.2-0.3-0.3-0.3c-0.4-0.1-0.8-0.1-1-0.6c0.3-0.3,0.1-0.4-0.1-0.4c-0.3,0-0.7,0-1,0.1c-0.5,0.1-1,0.2-1.5,0.2
		c-0.4-0.3-0.6-0.6-0.1-1.1c0.1,0,0.3,0,0.3,0c0.7,0.6,1.3,0.1,1.9-0.1s0.1-0.6,0.1-0.9h-0.1c-0.7,0.1-1.3,0-2-0.1
		c-0.6-0.1-1.3-0.2-1.9-0.2c-0.8-0.2-1.6-0.7-2.5-0.3c-0.1,0.1-0.2,0-0.2,0c-1.6-0.4-3.2-0.6-4.8-0.5c-0.3,0-0.5-0.2-0.6-0.4
		c-0.2-0.4-0.6-0.6-1-0.3c-0.4,0.3-0.6-0.2-0.6-0.5c0-0.4-0.2-0.7-0.4-1c-0.3-0.5-0.4-1.1-0.2-1.7c0.1-0.2,0.2-0.5,0.4-0.5
		s0.3,0.3,0.3,0.5c0,0.4,0,0.4,0.7,0.7l-0.5-0.9c0-0.2-0.1-0.5-0.2-0.7c-0.2-0.2-0.5-0.4-0.3-0.7c0.1-0.3,0.5-0.2,0.8-0.2
		c0.1-0.3,0.1-0.8,0.6-0.4c0.2,0.1,0.2-0.1,0.1-0.3c-0.2-0.3-0.4-0.6-0.6-0.8c0-0.5-0.3-1-0.8-1.3c-0.2-0.1-0.3-0.3-0.4-0.6
		c-0.1-0.3-0.1-0.4,0.3-0.4c0.5-0.1,1.1,0,1.6,0.1c0.2,0,0.4,0.2,0.6,0c-0.1-0.3-0.4-0.4-0.6-0.6c-0.2-0.2-0.3-0.5-0.3-0.8
		c0-0.2-0.1-0.4-0.3-0.5l0,0c-0.2-1.1-1.1-1.4-1.9-1.8c-0.5-0.3-0.8-0.6-0.5-1.3c0.1-0.2,0-0.3-0.1-0.4l0,0c0-0.2,0.1-0.4,0.3-0.6
		c0.5,0.3,1,0.7,1.4,1.1c0.1,0.1,0.2,0.1,0.2,0s-0.1-0.2-0.1-0.3l-0.2-0.4c-0.3-0.2-0.6-0.4-0.8-0.6c0.8,0.4,1.8,0.1,2.6,0.2
		c1.9,0.3,3.4,0,4.3-1.2c0.1-0.1,0.3-0.2,0.5-0.3c0.5-0.1,1.1-0.1,0.9-0.7c-0.1-0.2,0.3-0.2,0.5-0.2c0.5,0.1,0.6,0.1,0.5-0.4
		s-0.1-0.9,0.6-1c0.7-0.1,0.1-0.6,0.4-0.9c0.4-0.1,0.9-0.2,1.3-0.3c0.6-0.2,0.7-0.6,0.6-1c0.1-0.1,0.2-0.1,0.3-0.2
		c0.4-0.5,0.3-1.1-0.2-1.5c-0.4-0.4-0.1-0.6,0.2-0.8c0.4-0.2,1.3-0.4,0.2-0.9c-0.2-0.1-0.1-0.2,0-0.2c0.6-0.2,0.7-0.5,1-0.9
		c0.4-0.3,0.9-0.5,1.4-0.5c0.9-0.1,1.9,0,2.8,0.2c0-0.3-0.5-0.3-0.5-0.5c0.1-0.2,0.3-0.3,0.5-0.3c0.7-0.1,1-0.6,0.7-1
		s-0.1-0.8-0.1-1.1c0.8-0.7,2.2-1.1,2.8-1.9c0.4-0.4,0.5-1,0.4-1.5c-0.2-0.5,0-1.1,0.5-1.3l0.4-0.2c0.5-0.5,1.3-0.8,0.5-1.6
		c-0.2-0.2,0.2-0.3,0.4-0.4c0.3-0.2,0.7-0.5,0-0.8l0,0c-0.4-0.5-0.6-1.2-0.6-1.8c0-0.6,0.6-0.7,1.3-0.7c0.1,0,0.3,0,0.5,0
		c1.3,0.3,2.6-0.2,3.4-1.2c0.3-0.3,0.2-0.7-0.1-1s-0.3-0.5,0.2-0.7s0.5-0.5,0-0.7s-0.6-0.4-0.5-0.8c0.4-0.3,0.8-0.4,1.3-0.4
		c0.3,0,0.5-0.1,0.7-0.3c0.2-0.3-0.2-0.4-0.5-0.5c-1.3-0.6-1.4-0.8-0.5-1.6c0.3-0.3,0.6-0.5,0.9-0.8c0.4-0.2,0.6-0.7,0.4-1.1
		c-0.1-0.3,0-0.6,0.4-0.8c0.6-0.4,0.9-0.8,0.3-1.4l0,0c-0.3-0.3-0.6-0.6-1-0.7c-0.4-0.1-0.4-0.4-0.3-0.6s0.5-0.2,0.8-0.1
		c0.3,0.1,0.7,0.1,1,0.2c0.4,0.1,0.8-0.1,1-0.4c0,0,0,0,0-0.1c0.1-0.3-0.1-0.6-0.3-0.7c-0.5-0.2-0.9,0.2-1.1,0.2
		c-0.3,0-0.6,0.2-0.8,0s-0.1-0.4,0.3-0.5s0.8-0.5,1.3,0c0.1,0.1,0.2,0.1,0.3,0c0-0.1,0-0.2,0-0.2c-0.1-0.2-0.3-0.3-0.5-0.5
		s-0.4-0.5,0.2-0.7s0.4-0.3,0.1-0.5c-0.5-0.2-0.9-0.6-1-1.2c-0.1-0.2-0.2-0.4-0.4-0.5c-0.5-0.3-1.1-0.6-0.6-1.1c0,0-0.1-0.2-0.2-0.3
		c-0.6-0.5-0.5-0.7,0.2-1.2c0.6-0.5,0.4-0.9,0.3-1.5c-0.1-0.3-0.5-0.2-0.6-0.2c-0.9,0.5-2.1,0.2-2.7-0.7l0,0c-1-0.2-1-0.2-0.5-0.6
		l0,0l0,0l0,0c0.2-0.2,1-0.3,0.8-0.6c-0.2-0.3-0.9-0.2-1.3-0.3c-0.1,0-0.2,0-0.3,0l-0.7-0.3c-0.4-0.6-1-1-1.7-1.2
		c-0.5-0.2-1-0.5-1.4-0.8c-0.7-0.5-1.5-0.9-2.3-1.3v0.2V34l-0.2-0.1c-0.4-0.2-0.8-0.4-1.2-0.6c-0.1-0.2-0.4-0.3-0.6-0.3
		c-0.5,0-1.1-0.2-1.4-0.7c-0.6-0.1-0.7-0.6-1.3-0.7c-0.2-0.1-0.4-0.2-0.7-0.2c-0.2,0-0.4,0-0.4,0.2c0-0.2,0.2-0.2,0.4-0.2
		c-0.5-0.5-1.1-0.9-1.7-1.1c-0.7-0.2-0.6-0.7-0.6-1.1c-0.3-0.4-0.7-0.7-1.2-0.8c-0.5-0.1-0.3-0.3-0.3-0.5c-1.6,0-3.1-0.4-4.6-1
		c-0.2-0.1-0.5-0.3-0.2-0.4c0.4-0.3,0.1-0.5-0.3-0.7c-1.4-0.7-3.1-1.1-4.7-1c-0.4,0.6-1.3,0.2-2,0.3c-0.2,0-0.4,0-0.6,0
		c-0.6-0.2-1.2-0.4-1.8-0.4c-0.2,0-0.5-0.1-0.5-0.4c0.6,0.1,1.3,0.1,1.9-0.2l0,0l1.4-0.2c0.3,0,0.5-0.1,0.6-0.2s0-0.2-0.3-0.3
		c-0.3-0.1-0.6-0.3-0.5-0.5c0.1-0.2,0.5-0.1,0.8-0.1c0.5,0,1,0,1.2-0.4s0.1-0.6-0.7-0.7c-1.6-0.3-3.1-0.7-4.7-0.9
		c-0.7-0.2-1.5-0.2-2.2-0.1c-1,0.1-2,0-2.9-0.3c-0.5-0.1-1-0.1-1.5-0.1c-0.6,0.1-1.2,0-1.7-0.1c-0.2-0.1-0.4-0.1-0.6,0
		c-1.9,0.3-3.8,0.4-5.8,0.2c-1.2-0.1-2.4,0-3.5-0.1c-1.6-0.1-3.1,0-4.7,0c-1.8-0.2-3.5-0.3-5.3-0.2c-1.1,0-2.2-0.1-3.3-0.3
		c-0.3,0-0.7,0-1,0c-2.3,0-4.6-0.1-6.9-0.5c-0.3-0.3-0.6-0.4-1-0.3c-1.8,0-3.6-0.1-5.4-0.4c-0.9-0.1-1.8-0.2-2.7-0.5
		c-0.4-0.2-1-0.2-1.4,0c-0.5,0.2-1.1,0.1-1.6-0.2c-0.3-0.2-0.7-0.3-1-0.2c-0.2,0-0.5,0-0.7-0.1c-0.7-0.3-1.5-0.3-2.2,0
		c-0.1,0-0.2,0-0.3,0c-0.8-0.6-1.7,0-2.6-0.2c-0.9-0.2-1.8-0.3-2.8-0.1c-0.1,0-0.1,0-0.2,0c-1.2-0.3-2.5-0.4-3.8-0.4
		c-1.2,0-2.5-0.1-3.6-0.4c-0.3-0.1-0.4,0.1-0.7,0.1l0.1-0.4c-0.7,0.2-1.3,0.3-1.4-0.3c-0.2,0.1-0.2,0.1-0.2,0.1
		c-0.1,0.2,0.5,0.5,0.1,0.7s-0.5-0.3-0.9-0.4c-0.6-0.2-1-0.6-1.6,0c-0.3,0.3-0.7-0.2-0.9-0.4s-0.1-0.3-0.4,0
		c-0.4,0.2-0.9,0.2-1.3,0.2c-0.9,0.1-1.8,0-2.8,0.1c-0.3,0-1.1,0-0.8-0.6c0.1-0.1-0.1-0.5-0.1-0.8c-0.7,0.2-0.8,0.5-0.8,0.9
		c-0.1,0.6-0.3,0.6-1.1,0.4c-0.5-0.1-1-0.1-1.2-0.5c-0.3,0.1-0.3,0.3-0.3,0.4c-0.9-0.3-1.8,0.1-2.7,0.1c-1.2-0.1-1.4-0.1-2.2-0.8
		c-0.7,0.8-1.8,0.7-2.9,0.5c-0.9,0-1.7,0-2.6,0.1c-1,0-2-0.1-3-0.2c-0.9,0-1.7,0-2.6,0c-1.2-0.2-2.4,0-3.6-0.2
		c-0.5-0.1-1-0.2-1.5-0.1c-0.4,0-0.5,0.1-0.3,0.4c-0.3,0.2-0.7,0.2-1,0.2c-2.2,0-4.3,0.1-6.5,0.2c-1.9,0.1-3.7-0.1-5.6-0.1
		c-1.6-0.1-3.1-0.1-4.7-0.1c-0.7-0.2-1.4,0.1-2.2,0c-1.1-0.1-2.3-0.1-3.4,0c-1.8-0.1-3.6,0.1-5.4-0.1c-0.8-0.1-1.6-0.1-2.4,0
		c-2.6,0.2-5.1,0-7.7,0.2c-1.2,0.1-2.5-0.1-3.7,0c-1.6,0-3.1,0.2-4.7,0.4l-0.4,0.3l0,0l0.4-0.3c-0.5-0.4-1.2-0.1-1.8-0.2
		C217,15.8,216,16,215,16c-0.6,0-1.2,0-1.8-0.1c-0.1-0.3-0.5-0.3-0.8-0.3c-1.4,0.2-2.9,0.1-4.3,0.2c-0.3,0.1-0.6,0.2-0.8,0.3
		c0.7,0,1.3,0.1,2,0.2c-0.4,0.2-0.8,0.3-1.3,0.2c-0.3,0-0.7,0-1,0.1c-0.5,0.2-1,0-1.3-0.4c-0.3-0.5-0.4-0.2-0.7,0
		c-0.5,0.4-0.8,0.4-1.2-0.1c0,0,0,0-0.1-0.1c-0.1-0.1-0.4-0.1-0.5,0.1c-0.2,0.3-0.6,0.5-0.9,0.5l0,0c-0.8-0.2-1.6-0.3-2.4-0.1
		c-1.2,0-2.5,0.2-3.7,0.2c-0.1,0-0.2,0-0.2,0c-0.3-0.6-0.9-0.2-1.4-0.2c-0.2,0-0.5-0.1-0.6,0.1s-0.3,0.2-0.6,0.1s-0.6-0.3-1,0
		c-0.2,0.2-0.4-0.1-0.4-0.3c-0.1-0.4-0.1-0.7-0.2-1.2c-0.4,0.5-0.6,0.9-0.1,1.3c-0.4,0-0.9,0-1.3,0.2c-0.1,0-0.3,0-0.4,0
		c-0.5-0.4-0.8-0.2-1.3,0.1s-0.8-0.1-1.2-0.2s-0.7-0.3-0.9,0.2c0,0.2-0.5,0.2-0.6,0.2c-0.7-0.5-1.1,0-1.6,0.2c-0.4-0.4-1-0.4-1.8,0
		c-0.4-0.2-0.9-0.2-1.4-0.1c0.4-0.1,0.9-0.1,1.4,0.1c0-0.1,0-0.3,0-0.4c0-0.1-0.1-0.4-0.3-0.4s-0.3,0.2-0.3,0.3s-0.1,0.2-0.3,0.2
		s-0.3-0.2-0.3-0.3c-0.1-0.4-0.2-0.7-1-0.3c-0.1-0.4-0.1-0.7,0.3-0.8s0.9,0,1,0.4c0,0.1,1.2,0,1.4-0.2c0.2,0.1,0.2,0.2,0.3,0.3
		c0,0,0,0,0,0c0.1,0.1,0.3,0.1,0.4,0c0.3-0.3,0.1-0.6,0.1-0.9s-0.4-0.1-0.5-0.1c-0.6,0-1.2-0.4-1.7,0.2c-0.1,0.1-0.5,0-0.6-0.2
		c-0.3-0.5-0.8-0.5-1.5-0.2c-0.5,0.2-0.5,0.1-1.1,1c0.3-0.1,0.6-0.1,0.6,0.1c0,0,0,0.1,0,0.1c0,0.4-0.3,0.7-0.7,0.7
		c-0.6,0-0.4,0.2-0.4,0.4l0,0l-0.5-0.6l-0.8,0.4l-0.2,0.1c-0.3-0.1-0.8-0.6-0.9,0.1h-0.2c-0.1-0.5-0.8-0.5-1.2-0.5
		c-1-0.2-2-0.1-3,0.2c-0.3,0.1-0.6,0.1-0.8-0.2l0,0c-0.2-0.6-0.9-0.1-1.4-0.3c-0.8-0.4-0.7,0.4-1.1,0.5c-0.6,0-0.5-0.6-1.4-0.5
		c-0.4,0-0.7,0.2-0.9,0.5c-0.1,0.1,0,0.3-0.3,0.3s-0.2-0.2-0.3-0.3s-0.1-0.3-0.2-0.5s-0.4-0.3-0.6,0c-0.5,0.9-1.7,0.6-2.7,0.6
		c-0.3,0-1.3,0.5-1.1-0.3c-0.3,0-0.4,0.1-0.4,0.2c-0.1,0.3-0.3,0.5-0.6,0.5c-0.5,0-0.3-0.3-0.3-0.5c-0.1-0.2-0.2-0.4-0.5-0.4
		c-0.2,0-0.4-0.1-0.6,0s0,0.2,0.1,0.3s0.3,0.2,0.1,0.4s-0.4,0-0.6,0c-0.8-0.1-1.5-0.1-2.3-0.1c-0.7,0.2-1.5-0.1-1.9-0.7
		c-0.1,0.1-0.2,0.2-0.2,0.2c-0.1,0.5-0.4,0.6-1.1,0.5c-0.4-0.1-0.7,0.1-1.2,0.2s-1.1,0.3-0.9-0.4c0-0.1,0-0.3-0.3-0.3
		c-0.2,0-0.3,0-0.4,0.2c-0.5,0.6-1.6,0.6-2.2,0.7s-0.9-0.2-0.9-0.8c-0.5,0.6-0.7,0.2-1,0c-0.3,0.1-0.1,0.5-0.5,0.5s-0.8,0.4-0.9-0.2
		c0-0.2-0.4-0.3-0.5-0.2c-0.4,0.5-0.7,0.1-0.9,0c-0.8-0.5-1.4,0.3-2.2,0.1v0.6c-0.8-0.4-1.3,0.2-2,0.1c-2.6-0.2-5.3-0.2-7.9-0.1
		c-1.5,0.1-3.1,0-4.6-0.2c-0.6-0.1-1.3-0.1-1.9,0c-1.1-0.1-2.1,0.1-3.2,0c-0.3,0-0.5,0-0.5,0.3s0.2,0.4,0.5,0.4s0.9-0.1,0.8,0.4
		c-0.2,0.1-0.4,0.1-0.7,0c-0.2-0.1-0.3-0.1-0.4,0.1c-0.2,0.5-0.6,0.4-1,0.1c-0.4-0.3-0.9-0.3-1.3-0.1l-1.4,0.3c-0.5-0.2-0.8,0-1,0.3
		s-0.5,0.6-0.9,0.1c-0.2-0.1-0.4-0.1-0.6,0c-0.6,0.5-1.4,0.4-2.1,0.6c-1.2,0-2.3,0.3-3.5,0.4c-1.5,0-3.1,0.1-4.6,0.3
		c-0.8,0.1-1.6,0.2-2.4,0.3c-1.1,0.1-2.2,0.3-3.3,0.6c-0.2-0.1-0.5-0.2-0.8-0.2c-1.7,0.3-3.6,0.2-5.3,0.6c-0.3,0-0.6,0.2-0.8,0.4
		h-0.4c-0.3,0.4-0.8,0-1.2,0.1c-0.7,0.2-1.4,0.3-2.1,0.3c-1,0.2-2.1-0.1-3.2,0.4s-2.4,0.2-3.5,0.4c-0.6,0.1-1.1,0.2-1.7,0.1
		c-1.4-0.1-1.8,0.1-2.4,0.9c-0.9,0-1.4,0.3-1.5,1c0-0.6-0.6-0.7-1.1-0.6s-0.7,0.4-0.6,0.8c0,0.1,0.2,0.2,0.3,0.3
		c0.2,0.1,0.3-0.1,0.3-0.2s0-0.2,0.3-0.1c1,0.5,1.9,0.1,2.9,0l3.2-0.3c0.2,0,0.5,0.1,0.6,0.3c0.6,0.5,0.7,0.9,0.1,1.4
		c-1.6,0.5-3.2,0.8-4.9,0.9l-6.9,1l-1.1,0.2c-0.4,0-0.7,0-1.1,0.1l-0.3,0.1l0,0c-0.9,0.3-1.7,0.5-2.6,0.6c-0.9,0.1-1.8,0.3-2.6,0.5
		c-2,0-4,0.3-5.8,1.1c-0.8,0.2-1.6,0-2.4,0.2c-0.2,0-0.3,0.1-0.4,0.2c-0.4,0.6-1.1,1-1.8,1c-0.4,0-0.8,0.2-1,0.5
		c-0.7,0.6-1.5,1-2.5,1.2c-0.5,0.1-0.9,0.2-1.4,0.2c-0.7,0.1-1.1,0.4-1.2,0.8c-0.1,0.3-0.1,0.7,0,1c0,0.3,0.3,0.4,0.8,0.4
		c1.1-0.1,2.1,0,3.2,0.3c0.4,0.1,0.8,0.3,0.8,0.6s-0.4,0.3-0.7,0.4c-0.8,0.2-1.6,0.6-2.3,1.2c-1,0.8-2.2,0.8-3.5,1
		c-0.6,0-1.2,0.2-1.8,0.4c-0.5,0.3-1.1,0.4-1.7,0.3c-0.4-0.1-0.7,0-1,0.3c-0.6,0.9-1.9,0.9-3.1,1L35.3,43c-0.5,0-1.1,0-1.6,0.1h-0.9
		c-0.1,0.1-0.3,0.2-0.1,0.2h0.1l-1.2,5.6c0.2,0.3-0.3,1,0.8,0.6l0.2-0.1l1,0.5l-2.1,1.8l1.9,4.2c0.8,0.1,1.6,0.1,2.4,0.2l0.9-0.1
		c0.4,0.4,0.9,0.5,1.4,0.4l0.4,0.2c0.4,0.6,0.2,0.8-0.7,0.8c-0.5,0-1.1,0.1-1.6,0.3c-1.4,0.3-2.9,0.4-4.4,0.5l0.1,4.3
		c0.2-0.2,0.4-0.3,0.3-0.5c-0.2-0.6,0.2-0.6,0.8-0.7c0.4,0,0.7-0.2,1.1-0.2c0.7-0.1,1.1-0.6,1.7-0.6c1-0.1,1.9-0.4,2.7-0.9
		c0.3-0.1,0.5-0.3,0.8-0.1s0.4,0.4,0.2,0.7c-0.2,0.2-0.4,0.4-0.6,0.6c-0.5,0.3-0.4,0.5,0.3,0.6c0.3,0,0.6,0,0.9,0
		c0.8-0.2,1.6-0.4,2.4-0.5c0.5-0.1,0.9,0.1,1.3,0.4c0.1,0.1,0.1,0.2,0.1,0.3c0,0.3-0.1,0.5-0.4,0.6c-0.9,0.3-0.6,0.8-0.6,1.1
		s0.2,0.3,0.6,0.2s0.6-0.3,0.6-0.6c0,0,0-0.1,0-0.1c0-0.2,0.2-0.3,0.4-0.3c0.3,0,1.1,0.7,1,0.8c-0.2,0.4-0.3,0.9-0.2,1.4
		c0.1,1.2-0.4,1.5-2.2,1.4c-0.3,0-0.7,0-1,0.2c-0.4,0.1-0.7,0.3-1,0.4c-0.4,0.2-0.8,0.1-1.1-0.2c-0.3-0.3,0.1-0.5,0.4-0.6
		s0.5-0.3,0.2-0.5c-0.2-0.2-0.5-0.2-0.8,0c-0.4,0.4-1,0.4-1.5,0.2c-0.1,0.2,0,0.3,0.1,0.3c0.5,0.4,0.6,0.6-0.3,0.6s-1.1,0.2-1,0.8
		c0,0.1-0.1,0.2-0.1,0.4c0.1,0.6-0.5,1.3,0.3,1.8c0,0,0,0,0.1,0.1c0,0.1,0,0.1-0.1,0.2c-0.1,0.1-0.3,0-0.4-0.1
		c-0.5-0.4-1.4-0.6-0.8-1.3c0.1-0.1,0-0.3-0.3-0.4s-0.2,0-0.3,0.2s-0.5,0.3-0.8,0.5c-0.2,0.2-0.5,0.3-0.8,0.1
		c-0.1,0-0.1-0.1-0.1-0.2c0-0.2,0.1-0.3,0.2-0.4c0.5-0.1,0.8-0.5,0.8-1c0-0.2,0.2-0.4,0.5-0.4c0.3-0.1,0.6-0.2,0.9-0.4
		c0.1-0.1,0.4-0.2,0.2-0.3s-0.4,0-0.6,0c-0.1,0-0.3,0.1-0.4,0.1c-0.1,0.1-0.3,0.1-0.4,0s0-0.2,0.2-0.3s0.4-0.1,0.5-0.2c0,0,0,0,0,0
		c0.1-0.1,0.1-0.2,0.1-0.3C36.1,65,35.9,65,35.8,65c-0.9,0.1-0.9-0.2-0.6-0.6c0.2-0.2,0.2-0.4-0.2-0.6c-0.6-0.3-0.5-0.5,0.1-0.7
		c0.4-0.1,0.8-0.1,1.3-0.3s0.7-0.8,0.5-1s-1.4-0.6-1.5-0.5c-0.4,0.4-1.3,0.5-1.3,1.2c0,0.3-0.5,0.7-1,0.9c-0.8,0.2-0.5,0.5-0.1,0.7
		s0.6,0.4,0.3,0.8s-0.3,0.9-1,1.2c-0.2,0.1-0.1,0.2-0.1,0.4c0.1,0.2,0,0.3-0.1,0.5c0,0-0.1,0.1-0.1,0.1l0,1.6
		C32,68.7,32.1,68.9,32,69z M36.9,70.7c0.1,0,0.4,0.1,0.3,0.2s-0.2,0.2-0.4,0.2s-0.4-0.1-0.4-0.2S36.7,70.7,36.9,70.7L36.9,70.7z
		 M93.2,104.6c-0.4,0.3-0.1,0.6-0.2,1C93,105.3,92.8,104.9,93.2,104.6L93.2,104.6L93.2,104.6z M126.2,107.2L126.2,107.2l-0.1,0.1
		L126.2,107.2z M187.2,113.2c0-0.1,0.1-0.1,0.1-0.2c0.3-0.2,0.6-0.4,1-0.4c-0.4,0-0.7,0.2-1,0.4
		C187.2,113.1,187.2,113.1,187.2,113.2L187.2,113.2z M189.2,113.1c0,0.1,0,0.3,0,0.4C189.2,113.4,189.2,113.3,189.2,113.1z
		 M193,113.2c-0.1,0.1-0.2,0.2-0.3,0.3C192.9,113.4,193,113.3,193,113.2l-0.2-0.4c-0.2-0.1-0.4-0.2-0.6-0.1c0.2-0.1,0.4-0.1,0.6,0.1
		L193,113.2l0.3,0.1l0,0L193,113.2L193,113.2z M193.4,113.7C193.4,113.7,193.4,113.7,193.4,113.7
		C193.4,113.7,193.4,113.7,193.4,113.7L193.4,113.7z M314.8,113.1L314.8,113.1L314.8,113.1L314.8,113.1z M317.9,113.8
		c0.1-0.1,0.2-0.1,0.4-0.1C318.2,113.6,318,113.7,317.9,113.8v0.1V113.8z M324.2,114.6c-0.2,0.1-0.4,0.1-0.6,0.2
		C323.8,114.8,324,114.7,324.2,114.6v0.2l0,0l0,0c0,0.1,0,0.1,0.1,0.2c0.1,0.1,0.2,0.1,0.3,0.2c-0.1,0-0.2-0.1-0.3-0.2
		c0,0-0.1-0.1-0.1-0.2l-0.4,0.1l0.4-0.1V114.6z M338.1,117.3c-0.1,0-0.2,0-0.3,0C337.9,117.3,338,117.3,338.1,117.3z M388.9,111.9
		c-0.1,0-0.1,0-0.2,0C388.7,111.9,388.8,111.9,388.9,111.9c0.1-0.1,0.2-0.1,0.4-0.1C389.1,111.7,389,111.8,388.9,111.9L388.9,111.9z
		 M390.9,74c0.2-0.1,0.5-0.1,0.7,0C391.4,73.9,391.1,73.9,390.9,74z M372.3,21.3c0.4,0,0.9,0.1,1.3,0.1
		C373.2,21.3,372.7,21.3,372.3,21.3z M331,20.1c-0.1,0.1-0.1,0.2-0.1,0.3C330.9,20.3,330.9,20.2,331,20.1c0-0.1,0-0.2,0.1-0.2
		C331,19.9,331,20,331,20.1z M78,35.9c0.2,0.1,0.3,0.3,0.4,0.5l0,0C78.4,36.1,78.2,35.9,78,35.9L78,35.9z M106.3,103.4
		c-0.1-0.2,0-0.4,0.1-0.5C106.3,103,106.2,103.2,106.3,103.4L106.3,103.4z M191.4,113.1c-0.1,0-0.2,0-0.3,0
		C191.2,113.1,191.3,113.1,191.4,113.1l0.1-0.1L191.4,113.1z M222.9,116.5c0.1-0.1,0-0.2-0.2-0.3c0-0.1,0-0.1,0-0.2
		c0,0.1,0,0.1,0,0.2C222.9,116.4,223,116.5,222.9,116.5L222.9,116.5z M379.4,105.3c0.1,0,0.1,0.1,0.2,0.2
		C379.5,105.4,379.4,105.4,379.4,105.3z M340.5,19.7c0.1,0,0.1,0,0.2,0C340.6,19.7,340.6,19.7,340.5,19.7z M272.7,19.9
		c0,0.1,0,0.2,0,0.2l0,0C272.7,20,272.7,19.9,272.7,19.9L272.7,19.9z M266.4,16.1h0.2l0,0H266.4z M211,22.9c0,0.1,0.1,0.1,0.1,0.2
		c0.1,0.2,0.2,0.3,0.3,0.4l0.3,0.2l0,0l-0.3-0.2c-0.1-0.1-0.2-0.3-0.3-0.4C211.1,23.1,211,23,211,22.9l0.3-0.9L211,22.9z M201,19.7
		l-0.4,0.2l-0.2,1.1l0.5,0.4c0,0,0.1,0.1,0.1,0.1c0,0,0,0.1,0,0.1c0,0,0-0.1,0-0.1c0-0.1-0.1-0.1-0.1-0.1l-0.5-0.4l0.2-1.1L201,19.7
		z M54.9,70.6L54.9,70.6c0-0.1,0.1-0.1,0.1-0.2C55,70.4,55,70.5,54.9,70.6z M55.7,73.8l0.4-0.5c-0.4,0-0.4-0.2-0.3-0.4
		c-0.1,0.2-0.1,0.4,0.3,0.4L55.7,73.8L55.7,73.8z M69.4,103.7c0,0.1,0,0.2-0.1,0.4C69.4,104,69.4,103.9,69.4,103.7L69.4,103.7z
		 M71.3,97.4l0.2,0.1c0,0.1,0,0.2,0,0.3c0-0.1,0-0.2,0-0.3L71.3,97.4z M107.3,102.8c0,0.1,0,0.3,0,0.4
		C107.3,103.1,107.3,103,107.3,102.8L107.3,102.8z M133.9,109L133.9,109z M328.3,112.6l-0.1-0.1L328.3,112.6l0.5,0.2l0,0l0.4,0.5
		l-0.4-0.5L328.3,112.6z M362.9,116.9c-0.1-0.1-0.1-0.2-0.1-0.4C362.8,116.6,362.9,116.7,362.9,116.9L362.9,116.9z M376,117.2
		c0,0,0,0.1,0,0.1c0,0.1,0,0.1-0.1,0.2c0.1,0,0.1-0.1,0.1-0.2C376,117.3,376,117.2,376,117.2L376,117.2z M375,105.3
		c0.3,0,0.5,0,0.8-0.1C375.5,105.2,375.3,105.2,375,105.3c-0.3,0.1-0.6,0.1-0.9,0.1C374.4,105.4,374.7,105.4,375,105.3L375,105.3z
		 M382.4,68.8c0.2-0.1,0.3-0.2,0.5-0.2C382.7,68.6,382.6,68.7,382.4,68.8c0,0.2-0.2,0.5-0.1,0.7C382.1,69.2,382.3,69,382.4,68.8
		L382.4,68.8c0.3-0.7,0.4-1.4,1-2C382.7,67.3,382.7,68.1,382.4,68.8z M402.3,52.5c0-0.1-0.1-0.2-0.3-0.2l0,0
		C402.2,52.3,402.3,52.4,402.3,52.5z M231.7,20.7c0-0.1,0-0.3,0.1-0.4C231.7,20.4,231.7,20.6,231.7,20.7c0,0.1,0,0.3,0,0.4l0,0
		C231.7,21,231.7,20.8,231.7,20.7z M206,19.8c0,0,0-0.1,0-0.1C206.1,19.8,206.1,19.8,206,19.8z M178,19.8c0.1-0.1,0.3-0.1,0.4-0.1
		C178.3,19.7,178.1,19.7,178,19.8l-0.1-0.1L178,19.8L178,19.8z M159.7,25.2c0.1-0.2,0.2-0.3,0.2-0.5l0,0
		C159.8,24.9,159.7,25,159.7,25.2L159.7,25.2z M127.1,22.9l-0.1-0.2l0,0L127.1,22.9z M94.2,35.6h0.3H94.2z M292.4,111.1
		c0,0,0.1,0.1,0.1,0.1l0,0C292.4,111.2,292.4,111.2,292.4,111.1z M353.3,115.1c-0.3,0.1-0.5,0.2-0.8,0.2
		C352.8,115.3,353.1,115.2,353.3,115.1c0.2-0.1,0.4-0.2,0.6-0.3C353.7,114.9,353.5,115,353.3,115.1z M361.4,114.7
		c0.1,0.1,0.3,0.3,0.5,0.4C361.7,115,361.6,114.9,361.4,114.7L361.4,114.7z M376.4,106.5c-0.1-0.1-0.2-0.1-0.3-0.2
		C376.3,106.4,376.3,106.4,376.4,106.5v0.1l0,0V106.5z M394,63.4c0-0.1,0-0.3,0-0.4c0.2-0.1,0.4-0.2,0.5-0.3
		c-0.1,0.1-0.3,0.3-0.5,0.3C394,63.1,394,63.3,394,63.4z M399.6,48.7L399.6,48.7h-0.2H399.6z M266.3,22.5c0,0.3,0.3,0.2,0.6,0.2
		C266.6,22.8,266.3,22.8,266.3,22.5l0.5-0.7L266.3,22.5z M251.4,23.4L251.4,23.4v-0.2c-0.1,0-0.2,0-0.4,0c0.1,0,0.2,0,0.4,0V23.4z
		 M228,25.4c0-0.1,0-0.2,0-0.4l0,0C228,25.1,228,25.3,228,25.4c0,0.1,0,0.1,0,0.2C228,25.5,228,25.5,228,25.4z M227.2,26.2
		c0-0.2,0.1-0.3,0.3-0.4l0,0C227.3,25.9,227.2,26,227.2,26.2L227.2,26.2z M158.2,29.6c0.1-0.1,0.2-0.1,0.4-0.1
		c0-0.2-0.1-0.4-0.1-0.5c0-0.2,0-0.3,0-0.5c0,0.2,0,0.3,0,0.5c0,0.2,0.1,0.4,0.1,0.5C158.4,29.5,158.3,29.5,158.2,29.6L158.2,29.6z
		 M102,89.6c-0.1,0-0.3,0-0.4,0c0.3,0.5,0.3,1.1,0,1.6c0.3-0.5,0.3-1.1,0-1.6l0,0c-0.5-0.2-0.6-0.6-1-0.8c0.4,0.2,0.5,0.6,1,0.8
		C101.7,89.6,101.8,89.6,102,89.6L102,89.6z M378.9,109.7c-0.1-0.1-0.2-0.2-0.2-0.3c-0.3-0.1-0.6-0.1-0.9-0.2c0.3,0,0.6,0.1,0.9,0.2
		C378.7,109.6,378.8,109.6,378.9,109.7z M341.8,30.9c-0.1,0.1-0.1,0.1-0.2,0.1l0,0C341.7,31,341.7,30.9,341.8,30.9z M334,30.1h-0.4
		c0,0,0,0,0-0.1c0,0,0,0,0,0.1H334z M328.2,31.7c0.2-0.1,0.3-0.3,0.5-0.5l0,0C328.5,31.4,328.4,31.5,328.2,31.7L328.2,31.7z
		 M218.8,44.3c0,0,0-0.1,0-0.1C218.8,44.2,218.8,44.3,218.8,44.3z M190.8,41.5c0.1-0.1,0.2-0.2,0.3-0.2c0-0.1-0.1-0.2-0.1-0.2
		c0,0.1,0.1,0.2,0.1,0.2C191,41.3,190.9,41.4,190.8,41.5L190.8,41.5z M180.2,23.7c0,0.1,0,0.2,0.2,0.3c0,0.1-0.1,0.2-0.1,0.3
		c0-0.1,0.1-0.2,0.1-0.3C180.1,23.9,180.1,23.8,180.2,23.7L180.2,23.7z M180.2,23.6l0.1-0.1L180.2,23.6z M125.6,29.1
		c0-0.1,0-0.1-0.1-0.2C125.6,29,125.6,29.1,125.6,29.1z M324.9,112.4c-0.1,0-0.2,0-0.3,0C324.7,112.4,324.8,112.4,324.9,112.4
		L324.9,112.4L324.9,112.4z M357.1,112.1c0.1-0.1,0.3-0.1,0.3-0.1c0.1,0,0.2,0,0.3-0.1c-0.1,0.1-0.2,0.1-0.3,0.1
		C357.3,112.1,357.2,112.1,357.1,112.1L357.1,112.1z M374,116.6L374,116.6l0.2,0.3L374,116.6z M371.7,51.8c0-0.1,0.1-0.1,0.2-0.2
		C371.8,51.7,371.7,51.7,371.7,51.8z M329.7,32.2C329.7,32.2,329.7,32.2,329.7,32.2C329.7,32.2,329.7,32.2,329.7,32.2z M325,24.8
		L325,24.8c0,0,0-0.1,0-0.1C325,24.7,325,24.8,325,24.8z M78.2,84.7c-0.1-0.1-0.2-0.1-0.3-0.2c0.1,0,0.2,0,0.4,0
		c0-0.1,0.1-0.1,0.1-0.2c0,0.1,0,0.1,0,0.2c0,0-0.1,0-0.1,0.1C78.2,84.6,78.2,84.6,78.2,84.7L78.2,84.7c-0.1,0-0.1,0.2,0,0.2
		C78.1,84.9,78.1,84.8,78.2,84.7z M320.3,110.2c0.2,0,0.3,0.1,0.4,0.2l0,0C320.6,110.3,320.4,110.2,320.3,110.2z M374,116.3l0.1,0.1
		c0,0,0,0.1,0,0.1c0,0,0-0.1,0-0.1L374,116.3z M373.1,114.8L373,115L373.1,114.8c0.1,0,0.1-0.1,0.2-0.1
		C373.3,114.8,373.2,114.8,373.1,114.8z M279.3,34.7c-0.2,0.1-0.1,0.2,0.5,0.7l-0.8-0.2C279.3,35.1,278.9,34.9,279.3,34.7
		L279.3,34.7z M271.7,35.6c0.1,0,0.2,0.1,0.3,0C271.9,35.7,271.8,35.7,271.7,35.6L271.7,35.6z M157.8,36.9c0.1,0.1,0.1,0.3,0,0.4
		l0,0C157.8,37.2,157.8,37.1,157.8,36.9L157.8,36.9z M92.9,60.4c-0.1,0.1-0.2,0.2-0.4,0.3c-0.1,0-0.1,0-0.2,0h-0.1v-0.1
		C92.6,60.6,92.8,60.6,92.9,60.4L92.9,60.4z M100.9,60.3c0-0.1-0.1-0.2-0.1-0.3C100.8,60.1,100.8,60.2,100.9,60.3L100.9,60.3
		L100.9,60.3z M107.2,71.1L107.2,71.1v-0.5V71.1z M106.4,72.1l0.4-0.5L106.4,72.1z M91.3,45.8c0.2-0.2,0.5-0.3,0.8-0.4l0.2,0.1
		L92,45.4C91.8,45.5,91.5,45.6,91.3,45.8z M95.4,45.3c-0.1-0.1-0.2-0.1-0.4-0.2l0,0C95.2,45.2,95.3,45.3,95.4,45.3z M99.5,48.1
		c-0.2-0.1-0.4-0.3-0.6-0.4C99.1,47.9,99.3,48,99.5,48.1c0.1,0.1,0.1,0.2,0.2,0.3C99.6,48.3,99.6,48.2,99.5,48.1L99.5,48.1z
		 M105.6,84.7c-0.1-0.1-0.2-0.2-0.2-0.3C105.5,84.4,105.6,84.5,105.6,84.7z M100.2,64L100.2,64h0.2H100.2z M99.9,46.7
		c0-0.1,0-0.2,0.1-0.3C99.9,46.5,99.9,46.6,99.9,46.7c0,0.2-0.1,0.4-0.2,0.6C99.8,47.1,99.9,46.9,99.9,46.7z M100.6,47.2
		c0.2,0,0.3,0,0.5,0.1C100.9,47.2,100.8,47.2,100.6,47.2L100.6,47.2z M363.2,112.4l0.2,0.2L363.2,112.4z M162.7,39.3
		c-0.3-0.2-0.7-0.3-1.1-0.2c-0.1,0-0.3,0.1-0.4,0.2c-0.1,0.1-0.2,0.2-0.4,0.3c0.1-0.1,0.3-0.2,0.4-0.3c0.1-0.1,0.3-0.1,0.4-0.2
		C161.9,39,162.3,39.1,162.7,39.3z M160.1,35.6c0-0.1,0-0.2,0.1-0.2C160.1,35.5,160.1,35.6,160.1,35.6z M134.2,39.5l0.9,0.1l0,0
		L134.2,39.5z M125.2,34.7c0,0,0.1-0.1,0.1-0.1C125.3,34.6,125.3,34.6,125.2,34.7z M112.6,48.3c0.1,0,0.2-0.1,0.2-0.2
		C112.8,48.2,112.7,48.3,112.6,48.3v0.1l0,0V48.3z M367.8,100.4c-0.1,0-0.1,0-0.1,0.1C367.7,100.5,367.7,100.4,367.8,100.4
		c0.2,0,0.3,0.1,0.3,0.3C368,100.5,367.9,100.4,367.8,100.4z M245.5,43.5c0.1-0.1,0.2-0.1,0.3-0.2C245.7,43.4,245.6,43.5,245.5,43.5
		z M199.1,34.9L199.1,34.9c-0.1,0-0.1,0.1-0.2,0.1C199,35,199.1,34.9,199.1,34.9z M322.5,104.9c0-0.1-0.1-0.2-0.2-0.2l0,0
		C322.4,104.7,322.5,104.8,322.5,104.9L322.5,104.9z M323.9,107.2c0-0.1,0.1-0.2,0.2-0.2c0,0,0,0,0,0
		C323.9,107,323.9,107.1,323.9,107.2C323.9,107.2,323.9,107.2,323.9,107.2z M229.3,46.3c0-0.1-0.1-0.2-0.3-0.4
		C229.2,46,229.3,46.2,229.3,46.3z M343.1,43.2c0,0,0-0.1,0-0.1C343.1,43.1,343.1,43.2,343.1,43.2z M265.3,56.2c0-0.1,0-0.3,0.1-0.4
		C265.3,55.9,265.2,56.1,265.3,56.2z M265.4,56.4c0.4,0,0.4-0.2,0.5-0.5C265.8,56.2,265.8,56.4,265.4,56.4c-0.1,0-0.1,0.1,0,0.2
		C265.3,56.5,265.3,56.5,265.4,56.4c-0.6,0-1.1-0.6-1.7-0.4C264.4,55.8,264.8,56.4,265.4,56.4L265.4,56.4L265.4,56.4z M258.8,40.4
		l-0.2,1.3L258.8,40.4z M202.5,45.8l0.2,0.7c0.1-0.2,0.5-0.2,0.8-0.3c-0.3,0.1-0.6,0.1-0.8,0.3s-0.6,0.2-0.9,0.3
		c0.3-0.1,0.7-0.1,0.9-0.3l0,0L202.5,45.8z M360.9,101.2c0.1,0,0.1,0.1,0.1,0.2C361,101.3,360.9,101.2,360.9,101.2z M273.8,53.7
		c0.1,0,0.2,0.1,0.3,0.2C274,53.8,273.9,53.8,273.8,53.7L273.8,53.7v-0.1V53.7z M220.6,58.2L220.6,58.2v-0.1V58.2z M314.3,58.2
		c0,0,0.1,0.1,0.1,0.2l0,0C314.3,58.2,314.3,58.1,314.3,58.2L314.3,58.2z M302.6,48.7c-0.1-0.2-0.1-0.4,0-0.6
		C302.5,48.3,302.5,48.5,302.6,48.7L302.6,48.7L302.6,48.7z M293,52.9c-0.1,0-0.1,0-0.2,0c-0.2,0-0.3,0.2-0.4,0.3
		c0.1-0.2,0.2-0.3,0.4-0.3C292.9,52.9,293,52.9,293,52.9c0.1-0.6,0.2-1.3,0.3-1.9C293.2,51.6,293.1,52.2,293,52.9z M197.2,57.4
		l-0.5,0.1l0,0L197.2,57.4z M134.5,62.3L134.5,62.3v-0.3V62.3z M333.6,70.7c-0.2,0-0.3,0-0.5,0l0.2-0.1L333.6,70.7z M135.3,66
		L135.3,66L135.3,66c0,0.1-0.3,0.2-0.4,0.2C135,66.2,135.2,66.2,135.3,66z M128.3,76.4c0,0.1,0,0.2,0,0.3l0,0
		C128.3,76.7,128.3,76.5,128.3,76.4z M129.2,80.8L129.2,80.8z M200.3,63.9L200.3,63.9c0.3-0.2,0.4-0.5,0.4-0.8
		C200.7,63.4,200.6,63.7,200.3,63.9z M196.7,65.1l-0.1,0.1L196.7,65.1L196.7,65.1z M197.4,65.2c-0.1,0-0.2,0-0.4-0.1l0,0
		C197.2,65.2,197.3,65.2,197.4,65.2L197.4,65.2z M201,65.8l0.3-0.9L201,65.8z M200.6,62.8c0.1,0,0.2-0.1,0.3-0.2
		C200.8,62.7,200.7,62.8,200.6,62.8L200.6,62.8L200.6,62.8z M125.6,79.3c0.1,0.1,0.3,0.2,0.5,0.3l0,0
		C125.9,79.6,125.7,79.5,125.6,79.3z M201.3,62.3c-0.1,0.1-0.1,0.2-0.2,0.2C201.2,62.4,201.2,62.4,201.3,62.3z M206,63.5
		c-0.1,0.1-0.1,0.2-0.1,0.3C206,63.6,206.1,63.4,206,63.5z M299.4,70.2c0.1,0.1,0.3,0.2,0.5,0.2C299.7,70.5,299.5,70.4,299.4,70.2
		L299.4,70.2L299.4,70.2z M351,78.8c0.1,0,0.2,0,0.3,0c0.1,0,0.3,0,0.4,0c0,0,0,0.1,0,0.1v-0.1l0,0v0.1l0,0
		c-0.6-0.1-0.7,0.1-0.7,0.3C351,79.1,351,79,351,78.8z M351.3,79.8c0,0.1,0.1,0.2,0.1,0.2C351.4,80,351.3,79.9,351.3,79.8
		L351.3,79.8z M351.4,77.5c0.1-0.1,0.3-0.2,0.5-0.2C351.7,77.4,351.5,77.4,351.4,77.5L351.4,77.5z M351.4,67.7l0.3-0.1
		c0.1,0.1,0.1,0.1,0.1,0.2l0,0c0-0.1-0.1-0.2-0.1-0.2L351.4,67.7z M352.5,70.1c-0.2,0-0.4-0.1-0.6-0.1l0,0
		C352,70,352.3,70.1,352.5,70.1z M355.9,70.8c0-0.1,0.1-0.2,0.1-0.3l0,0C356,70.6,355.9,70.7,355.9,70.8z M357.8,68.2
		c-0.1,0-0.2-0.1-0.3-0.1C357.6,68.2,357.7,68.2,357.8,68.2L357.8,68.2L357.8,68.2z M358.9,67.8c0.1,0,0.1,0,0.2,0l0.2-0.5l-0.2,0.5
		C359,67.8,358.9,67.8,358.9,67.8z M134.8,65.8l0.2,0.1L134.8,65.8z M153.1,71.5l0.2-0.2L153.1,71.5z M201,60.7
		c-0.1,0.1-0.1,0.1-0.2,0.2C200.8,60.8,200.9,60.7,201,60.7c-0.1,0-0.2,0-0.2,0C200.8,60.7,200.9,60.7,201,60.7z M207.2,64
		c-0.1,0.1-0.1,0.1-0.2,0.2C207.1,64.1,207.2,64.1,207.2,64z M243.2,58.6H243H243.2z M253.5,69.7c0.2-0.1,0.5-0.1,0.7,0
		C254,69.7,253.7,69.7,253.5,69.7L253.5,69.7L253.5,69.7L253.5,69.7z M269.5,56.6c-0.1,0-0.2,0-0.3-0.1
		C269.3,56.6,269.4,56.6,269.5,56.6V57V56.6z M307.4,71.7L307.4,71.7l-0.1-0.1v-0.1c-0.1,0-0.1-0.1-0.2-0.1c0.1,0,0.1,0,0.2,0.1l0,0
		v0.1L307.4,71.7z M331.2,69.8c0.3,0.2,0.6,0.4,0.9,0.5l0,0c-0.3,0.1-0.2,0.3,0,0.5c-0.4,0.1-0.8,0.2-1.2,0.2c1,0,0.8-0.4,1-0.7
		C331.7,70.3,331.4,70.1,331.2,69.8L331.2,69.8z M357.3,65.6l0.4,1l0,0L357.3,65.6z M122.8,64.2c-0.1,0-0.2-0.1-0.3-0.2l0,0
		C122.6,64.1,122.7,64.2,122.8,64.2L122.8,64.2z M134.5,65.7c-0.1,0-0.3,0-0.4,0C134.2,65.6,134.3,65.6,134.5,65.7L134.5,65.7z
		 M170,58.6c0,0.1,0,0.2-0.1,0.4l0,0C170.1,58.9,170.1,58.7,170,58.6L170,58.6z M179.6,57.5l-0.3,0.1L179.6,57.5z M204.6,54.8
		L204.6,54.8c-0.1-0.2-0.2-0.3-0.4-0.3C204.4,54.5,204.6,54.6,204.6,54.8z M268.4,56L268.4,56l0.2,0.1L268.4,56z M170.8,44.5
		L170.8,44.5c0,0.1,0,0.2-0.1,0.3C170.8,44.7,170.8,44.6,170.8,44.5z M234,60.7c-0.1,0.1-0.1,0.1-0.2,0.2
		C233.8,60.9,233.9,60.8,234,60.7L234,60.7L234,60.7z M277.6,62.7c0,0.1,0,0.3-0.1,0.4c-0.1,0.2-0.1,0.3-0.3,0.4
		c-0.1,0.1-0.3,0.1-0.4,0.2c0.1-0.1,0.2-0.2,0.4-0.2c0.1-0.1,0.2-0.3,0.3-0.4C277.6,63,277.6,62.8,277.6,62.7z M280.8,58.9
		c0-0.1,0.1-0.2,0.2-0.2l0,0C280.9,58.7,280.9,58.8,280.8,58.9z M281.9,58.7L281.9,58.7l-0.5-0.2L281.9,58.7z M296.9,54.3
		c-0.2-0.2-0.4-0.5-0.5-0.8C296.6,53.9,296.7,54.1,296.9,54.3c0.1,0,0.1,0.1,0.2,0.1c0.1,0.1,0.1,0.1,0.2,0.2
		c-0.1,0-0.1-0.1-0.2-0.2C297.1,54.4,297,54.4,296.9,54.3L296.9,54.3z M324.8,67.6L324.8,67.6L324.8,67.6L324.8,67.6z M350.2,57.1
		c0.1-0.1,0.2-0.1,0.2-0.2c0,0,0-0.1,0-0.1l0,0c0,0,0,0.1,0,0.1C350.4,57,350.3,57.1,350.2,57.1z M353.5,57.3c0,0.1,0,0.3,0,0.4
		C353.5,57.5,353.5,57.4,353.5,57.3h-0.2H353.5z M364.5,63.1L364.5,63.1z M171.9,43.7C171.9,43.6,171.9,43.6,171.9,43.7
		C171.9,43.6,171.9,43.6,171.9,43.7z M178.9,43.2l0.2-0.1l0,0L178.9,43.2z M181.2,53.4c0.3,0,0.6,0,0.9-0.1
		C181.8,53.4,181.5,53.5,181.2,53.4L181.2,53.4L181.2,53.4z M238.3,58.9C238.3,58.9,238.3,59,238.3,58.9
		C238.3,59,238.4,58.9,238.3,58.9z M238.6,59.4c0.2-0.1,0.3-0.2,0.4-0.4C238.9,59.1,238.7,59.2,238.6,59.4c0,0,0,0.1,0,0.1
		C238.6,59.4,238.6,59.4,238.6,59.4L238.6,59.4z M129.6,45.1h-0.2l0,0H129.6z M214.7,54.2c-0.2,0.1-0.4,0.1-0.6,0.1
		C214.3,54.3,214.5,54.3,214.7,54.2L214.7,54.2z M216.2,53.6c0.2,0.4,0,0.8,0.2,1.2C216.2,54.4,216.4,54,216.2,53.6L216.2,53.6
		c-0.3-0.5-0.1-1-0.1-1.5C216.1,52.6,215.9,53.1,216.2,53.6L216.2,53.6L216.2,53.6z M223.2,48.4c0-0.1,0-0.1,0-0.2
		C223.2,48.3,223.2,48.4,223.2,48.4L223.2,48.4z M229.3,46.3c0,0.1-0.1,0.1-0.2,0.1C229.2,46.4,229.2,46.4,229.3,46.3L229.3,46.3z
		 M246.2,50.8c0-0.1-0.1-0.1-0.2-0.2C246.1,50.6,246.1,50.7,246.2,50.8L246.2,50.8L246.2,50.8z M258.9,41.8l-0.1,0L258.9,41.8z
		 M294.7,43.9l0.5,0.8c0.2,0,0.4-0.1,0.6-0.1c0.2,0,0.3-0.2,0.3-0.3l0,0c0,0.2-0.2,0.3-0.3,0.3c-0.2,0.1-0.4,0.1-0.6,0.1L294.7,43.9
		z M340.4,54.2c0.4-0.2,0.8-0.4,0.7-0.8c0,0,0-0.1,0-0.1c0-0.4,1.1-0.7,0.4-1.3c0.9,0.7-0.6,0.9-0.3,1.4l0,0
		C341.1,53.8,340.8,54,340.4,54.2z M367.5,57.5c-0.1,0-0.1,0.1-0.2,0.1C367.4,57.6,367.5,57.6,367.5,57.5z M369.5,76.6
		c0.1,0,0.2,0,0.3-0.1C369.7,76.6,369.6,76.6,369.5,76.6L369.5,76.6z M137.5,55.9L137.5,55.9l-0.3,0.1H137L137.5,55.9z M138.2,56
		c0-0.1-0.1-0.2-0.2-0.3c0.8,0,0.8,0.4,1,0.8C138.9,56.3,138.9,56.1,138.2,56L138.2,56z M166.9,37.7L166.9,37.7z M168.9,43.9
		c0,0.1,0.1,0.2,0.1,0.3C169,44.1,169,44,168.9,43.9z M168.9,43.9c0-0.1,0-0.2,0.1-0.2C169,43.7,169,43.8,168.9,43.9z M192.5,50.9
		c0.1,0,0.1,0,0.2,0C192.6,50.9,192.5,50.9,192.5,50.9z M193.6,51.3h0.1H193.6z M208.5,48c0,0,0.1,0,0.1,0l0,0
		C208.6,48,208.6,48,208.5,48z M229.5,45.7c0.2-0.1,0.3-0.2,0.4-0.3C229.8,45.5,229.7,45.6,229.5,45.7L229.5,45.7z M253.7,34.7
		c-0.1,0.1-0.1,0.1-0.2,0.2l0,0C253.6,34.9,253.7,34.8,253.7,34.7L253.7,34.7z M259.9,42.3c-0.1,0.4-0.5,0.6-0.8,0.7l-0.2,0.1
		L259,43C259.4,42.9,259.8,42.7,259.9,42.3z M273.3,47l0.2,0.5h0.3h-0.3L273.3,47z M276.7,47.2c0,0.1,0,0.1,0,0.2
		C276.7,47.3,276.7,47.3,276.7,47.2z M277,47.6c-0.1,0-0.2,0-0.2-0.1C276.9,47.6,277,47.6,277,47.6L277,47.6z M293.5,42.9l-0.3-0.4
		L293.5,42.9z M342.5,37.2l0.1,0.1L342.5,37.2z M342.4,37C342.4,37.1,342.4,37.1,342.4,37C342.4,37.1,342.4,37.1,342.4,37z
		 M345.6,50.1c0.2,0.2,0.6,0.3,0.8,0.5C346.1,50.4,345.8,50.3,345.6,50.1v0.1V50.1z M350.1,51.7c0.2-0.1,0.4-0.1,0.6-0.2
		C350.5,51.6,350.3,51.7,350.1,51.7z M357.6,54.3L358,54l0,0L357.6,54.3l0.6,0L357.6,54.3z M360.5,54.7
		C360.5,54.7,360.4,54.7,360.5,54.7C360.5,54.7,360.5,54.7,360.5,54.7z M367.6,57.3c0,0.1,0,0.2-0.1,0.2
		C367.6,57.4,367.6,57.4,367.6,57.3z M120.5,47.6c-0.4,0-0.5,0.3-0.7,0.5C120.1,47.9,120.2,47.7,120.5,47.6L120.5,47.6l0.3,0.1
		L120.5,47.6L120.5,47.6L120.5,47.6z M120.4,47.4c-0.1-0.1-0.3-0.2-0.5-0.1C120.1,47.2,120.3,47.2,120.4,47.4L120.4,47.4z
		 M158.2,41.7c-0.1-0.1-0.1-0.2,0-0.2C158.2,41.5,158.2,41.6,158.2,41.7z M165.9,37.4c0,0,0.1-0.1,0.1-0.1
		C166,37.3,165.9,37.3,165.9,37.4L165.9,37.4z M166.4,37.1c0.7,0,0.1-0.6,0.7-0.8c-0.6,0.3,0.1,0.8-0.5,1
		C166.5,37.3,166.4,37.2,166.4,37.1c0.4,0.3-0.1,1.9-0.9,2.4C166.3,39,166.6,38,166.4,37.1L166.4,37.1z M167,37.6
		c0.1,0,0.1-0.1,0.2-0.2C167.1,37.5,167.1,37.6,167,37.6L167,37.6z M171.7,35.1l-0.2,0.5L171.7,35.1z M194.2,41
		c-0.1,0.1-0.2,0.1-0.3,0.1C194,41.1,194.1,41.1,194.2,41z M199.3,33.6c0-0.1,0-0.3,0.1-0.4C199.4,33.3,199.4,33.4,199.3,33.6
		l0.4,0.1L199.3,33.6L199.3,33.6z M201.6,28.1c-0.1-0.1-0.1-0.2-0.1-0.3C201.6,27.9,201.6,28,201.6,28.1l0.2,0.1
		c0,0.2,0,0.5,0.1,0.7c-0.1-0.2-0.1-0.5-0.1-0.7L201.6,28.1L201.6,28.1z M206.9,44.7L206.9,44.7c0-0.2-0.2-0.3-0.3-0.3
		C206.7,44.5,206.8,44.6,206.9,44.7z M208.1,47.7c0.1,0,0.1,0,0.2,0.1c0.1,0,0.2,0.2,0.1,0.1s-0.1-0.1-0.1-0.1
		C208.3,47.8,208.2,47.7,208.1,47.7z M228.4,39.4c0.2,0,0.4,0.2,0.5,0.4l0,0C228.8,39.6,228.6,39.4,228.4,39.4L228.4,39.4z
		 M251.7,35.7c0-0.1,0.1-0.2,0.2-0.2l0,0C251.8,35.6,251.7,35.6,251.7,35.7L251.7,35.7z M266.4,42.5c-0.3,0-0.5,0-0.8-0.1
		C265.8,42.5,266.1,42.5,266.4,42.5L266.4,42.5L266.4,42.5z M273.7,40.8L273.7,40.8c0.2,0,0.3,0.2,0.3,0.3
		C274,41,273.9,40.9,273.7,40.8z M274.4,46.9c0,0,0-0.1,0-0.1C274.4,46.8,274.4,46.9,274.4,46.9h0.3H274.4L274.4,46.9z M287.3,40.6
		c0.1,0,0.2-0.1,0.3-0.1c0.1-0.1,0.3-0.2,0.4-0.3c-0.1,0.1-0.3,0.2-0.4,0.3C287.6,40.5,287.4,40.6,287.3,40.6z M350.7,47.2
		c-0.1-0.2-0.1-0.5-0.1-0.7C350.7,46.7,350.7,47,350.7,47.2L350.7,47.2c-0.5,0.2-0.8,0.4-0.4,0.8l-0.5,0.2l0.5-0.2
		C349.9,47.6,350.2,47.4,350.7,47.2c-0.1,0-0.2,0-0.4,0C350.5,47.2,350.6,47.2,350.7,47.2z M351,47.2C351,47.3,351,47.3,351,47.2
		C351,47.3,351.1,47.3,351,47.2L351,47.2z M360.1,41.8l0.2,0.1l0,0L360.1,41.8z M376.9,63.9c0.1,0.3,0.5,0.5,1,0.5l0,0
		C377.4,64.4,377,64.2,376.9,63.9z M370.5,80.6c-0.1,0.1-0.2,0.2-0.2,0.3C370.3,80.8,370.4,80.7,370.5,80.6z M350.3,110.5
		c-0.1,0.1-0.2,0.2-0.2,0.4C350.1,110.8,350.2,110.6,350.3,110.5l0.2-0.1L350.3,110.5l0.5,0.1l0,0L350.3,110.5z M141.9,36.5
		c-0.1,0.1-0.2,0.1-0.3,0.2C141.7,36.7,141.8,36.6,141.9,36.5z M151,35.8L151,35.8l0.1-0.1L151,35.8z M152.4,35.8
		c-0.1,0-0.2-0.1-0.3-0.1C152.2,35.7,152.3,35.7,152.4,35.8L152.4,35.8L152.4,35.8z M154.3,38.3C154.3,38.4,154.3,38.4,154.3,38.3
		C154.4,38.4,154.3,38.3,154.3,38.3L154.3,38.3L154.3,38.3L154.3,38.3z M156.4,36.3c0,0-0.1,0-0.1,0
		C156.3,36.3,156.4,36.3,156.4,36.3L156.4,36.3z M159.4,39.7c-0.2-0.2-0.2-0.5-0.1-0.8l-0.2-0.2l0.2,0.2c0.1-0.1,0.1-0.2,0.2-0.2
		c-0.1,0-0.1,0.1-0.2,0.2C159.2,39.3,159.2,39.5,159.4,39.7L159.4,39.7z M159.8,36.1L160,36c0-0.1,0-0.2,0-0.3c0,0.1,0,0.2,0,0.3
		L159.8,36.1z M168.6,34.5c-0.2,0-0.4,0-0.5,0.1C168.2,34.5,168.4,34.5,168.6,34.5c0.1,0,0.3-0.1,0.4-0.1
		C168.9,34.4,168.7,34.5,168.6,34.5L168.6,34.5z M171.7,34.3L171.7,34.3L171.7,34.3L171.7,34.3z M175.8,37.2
		c0.3-0.3,0.1-0.6-0.7-0.9C175.8,36.6,176,36.9,175.8,37.2L175.8,37.2z M186.5,50.3c0.3,0.1,0.1,0.3,1.2,0.4c-0.9,0-1.4,0.2-1.4,0.6
		c0-0.2,0.1-0.4,0.2-0.5h0.1C186.6,50.6,186.7,50.4,186.5,50.3z M215.2,42.2c0.1,0.1,0.3,0.2,0.4,0.2l0,0
		C215.4,42.4,215.3,42.3,215.2,42.2z M245.1,43.4c-0.1-0.4-0.3-0.8-0.3-1.2C244.9,42.6,245,43,245.1,43.4L245.1,43.4L245.1,43.4z
		 M245.8,43.4c0-0.2,0-0.3,0.1-0.4c-0.1,0.1-0.1,0.2,0,0.3l0,0L245.8,43.4z M251,35.2c0.1,0,0.3,0.1,0.4,0.1
		C251.3,35.3,251.1,35.3,251,35.2L251,35.2z M253.5,28.8L253.5,28.8H253l0,0H253.5z M261.5,42.6c0.2,0,0.3,0.1,0.2,0.2
		c0,0.1,0,0.1,0,0.2c0-0.1,0-0.1,0-0.2C261.7,42.7,261.7,42.6,261.5,42.6l-0.2-0.3L261.5,42.6L261.5,42.6z M283.7,39.8
		c-0.2,0-0.4,0-0.6,0C283.3,39.8,283.5,39.8,283.7,39.8L283.7,39.8L283.7,39.8z M295.5,32.8l0.5-0.1c0.2,0.1,0.4,0.2,0.6,0.3
		c-0.2-0.1-0.4-0.2-0.6-0.3L295.5,32.8z M305.6,37.3c0,0.1,0,0.1,0,0.2C305.6,37.5,305.6,37.4,305.6,37.3c-0.1-0.1-0.3-0.2-0.5-0.2
		c-0.1,0-0.2,0.1-0.2,0.2c0-0.1,0.1-0.2,0.2-0.2C305.3,37.1,305.5,37.2,305.6,37.3L305.6,37.3z M311.8,34.9c-0.1,0-0.3-0.1-0.4-0.2
		C311.5,34.8,311.6,34.9,311.8,34.9l0.5-0.3v-0.1c0.2-0.1,0.5-0.2,0.8-0.3c0.2-0.1,0.3-0.1,0.5-0.2c-0.2,0.1-0.3,0.2-0.5,0.2
		c-0.3,0.1-0.5,0.2-0.8,0.3v0.1L311.8,34.9L311.8,34.9z M316.6,33.8c0,0.1-0.1,0.1-0.1,0.2l0,0C316.5,33.9,316.5,33.8,316.6,33.8
		L316.6,33.8z M316.6,33.6c0-0.1-0.1-0.2-0.2-0.3C316.5,33.4,316.5,33.5,316.6,33.6L316.6,33.6z M336.4,50.8
		c0.2,0.2,0.3,0.3,0.5,0.5l0,0C336.7,51.2,336.6,51,336.4,50.8z M352.5,34.5c0.1,0,0.2,0.1,0.2,0.1l0,0
		C352.7,34.6,352.6,34.5,352.5,34.5z M360.8,52.1l0.4,0.5L360.8,52.1l-0.2-0.1L360.8,52.1z M370.9,80.3l-0.1,0.2l0,0L370.9,80.3z
		 M371,98.1c-0.2,0-0.3,0.1-0.4,0.2c-0.1,0.1-0.2,0.2-0.4,0.3c0.1-0.1,0.2-0.2,0.4-0.3C370.7,98.2,370.8,98.1,371,98.1z M370,113.3
		c-0.1,0-0.2-0.1-0.2-0.2l0,0C369.9,113.2,369.9,113.2,370,113.3z M364,113.7c-0.1-0.2-0.2-0.3-0.4-0.4
		C363.8,113.4,363.9,113.6,364,113.7c0.1,0,0.2,0.1,0.2,0.1C364.2,113.8,364.1,113.8,364,113.7z M363.1,112.3H363H363.1z
		 M327.5,109.4c-0.3,0-0.6-0.1-0.9-0.3C326.9,109.3,327.2,109.4,327.5,109.4c0.3,0,0.6,0,0.9,0.1
		C328.1,109.4,327.8,109.4,327.5,109.4z M322.8,110.8l2.8,0.1c0,0.1,0,0.2-0.1,0.2c0-0.1,0.1-0.2,0.1-0.2L322.8,110.8z M77.5,83.9
		c0.1,0,0.2,0.1,0.3,0.2C77.7,84,77.6,83.9,77.5,83.9l-0.1,0.4L77.5,83.9L77.5,83.9z M65.4,50.1c-0.1,0-0.2,0-0.2,0
		C65.3,50.1,65.3,50.1,65.4,50.1L65.4,50.1L65.4,50.1z M100.3,42.6c-0.2,0-0.3-0.1-0.5-0.2C100,42.5,100.1,42.6,100.3,42.6
		c0-0.1,0-0.2,0.1-0.2C100.3,42.5,100.3,42.5,100.3,42.6L100.3,42.6z M110.2,41.2c-0.1,0-0.1,0.1-0.2,0.1c-0.1,0.1-0.2,0.1-0.3,0.1
		c0.1,0,0.2,0,0.3-0.1C110.1,41.2,110.1,41.2,110.2,41.2z M113.2,44.8c-0.1-0.1-0.2-0.2-0.4-0.2C113,44.6,113.2,44.7,113.2,44.8h0.4
		H113.2L113.2,44.8z M148.5,42.7L148.5,42.7z M172.5,34c-0.2,0-0.4,0-0.5,0c-0.1-0.1-0.2-0.2-0.2-0.3c0.1,0.1,0.2,0.2,0.2,0.3
		C172.1,34,172.3,34.1,172.5,34z M219,45.8c-0.1,0-0.1,0-0.2-0.1C218.8,45.8,218.9,45.8,219,45.8L219,45.8L219,45.8z M224.4,33.5
		c0-0.3,0.2-0.5,0.5-0.5C224.6,33.1,224.4,33.3,224.4,33.5z M225,32.4c0,0.2,0.1,0.4,0.3,0.6C225.2,32.8,225.1,32.6,225,32.4z
		 M241.9,33.3c0.1,0,0.2,0.1,0.4,0.1c0.1,0.1,0.2,0.1,0.2,0.2c-0.1-0.1-0.2-0.1-0.2-0.2C242.1,33.4,242,33.3,241.9,33.3L241.9,33.3
		L241.9,33.3z M253.7,27.1c0-0.1,0-0.1-0.1-0.2C253.7,26.9,253.7,27,253.7,27.1L253.7,27.1z M253.7,27.3
		C253.7,27.3,253.6,27.4,253.7,27.3c0.1,0,0.3-0.1,0.4-0.1C254,27.2,253.7,27.3,253.7,27.3C253.7,27.3,253.7,27.3,253.7,27.3
		L253.7,27.3z M270.1,37.8c0,0.1-0.1,0.1-0.2,0.2l-0.3,0.1l0.3-0.1C270,38,270,37.9,270.1,37.8z M271.2,35.4L271.2,35.4l0.3,0.1
		L271.2,35.4z M273.5,36.7c-0.2,0-0.2,0.1-0.2,0.2C273.3,36.8,273.3,36.7,273.5,36.7z M316.7,33.9c0.1,0,0.3,0,0.4,0
		C317,33.9,316.8,33.9,316.7,33.9L316.7,33.9z M370.9,42.5c-0.2,0.2-0.4,0.4-0.4,0.7C370.5,42.9,370.7,42.6,370.9,42.5
		c0.1-0.1,0.3-0.2,0.5-0.2C371.2,42.3,371,42.4,370.9,42.5z M371.4,53.8c0-0.1,0-0.2,0-0.3l0,0C371.4,53.6,371.4,53.7,371.4,53.8
		c-0.1,0.1-0.1,0.1-0.1,0.2C371.3,53.9,371.3,53.9,371.4,53.8L371.4,53.8z M372.5,114L372.5,114v-0.4l0,0V114z M358.9,111.9
		c0.2,0,0.4,0,0.6,0.1C359.3,112,359.1,111.9,358.9,111.9c-0.2,0-0.3,0-0.4-0.1C358.6,111.9,358.8,111.9,358.9,111.9L358.9,111.9z
		 M358.7,111.5c-0.1,0-0.3,0.1-0.4,0.2C358.5,111.7,358.6,111.6,358.7,111.5z M354.8,111.3h-0.2c0,0,0-0.1,0-0.1c0,0,0,0.1,0,0.1
		H354.8z M352.1,112.2l-0.2-0.1l0,0L352.1,112.2z M350.5,111.9c0,0.3-0.1,0.4-0.3,0.5C350.4,112.4,350.5,112.2,350.5,111.9
		c0.1,0,0.3,0.1,0.5,0.2C350.8,112,350.7,111.9,350.5,111.9L350.5,111.9z M344,112.1h-0.4H344z M310.8,109.3c0.1,0,0.2,0.1,0.3,0.2
		C311,109.4,310.9,109.4,310.8,109.3z M288.2,109.8c0.1,0,0.1,0,0.2,0C288.3,109.7,288.2,109.7,288.2,109.8L288.2,109.8z
		 M204.7,102.5c-0.1,0-0.1,0.1-0.2,0.1C204.5,102.6,204.6,102.6,204.7,102.5L204.7,102.5L204.7,102.5z M143.2,106.9
		c-0.1,0-0.2,0-0.2,0.1C143.1,106.9,143.1,106.9,143.2,106.9c0.1,0,0.3,0,0.3,0.1C143.4,106.9,143.3,106.9,143.2,106.9L143.2,106.9z
		 M78.1,85.3c0.1,0,0.3-0.1,0.3-0.2c0.1,0,0.2,0.1,0.3,0.1L78.1,85.3z M77.4,84.6c0,0.2,0.1,0.4,0.1,0.6
		C77.4,85,77.3,84.8,77.4,84.6L77.4,84.6L77.4,84.6z M77.5,47.4c-0.7-0.1-1.3,0-1.5,0.6c0.1-0.4,0.4-0.5,0.7-0.8c0.1,0,0.3,0,0.4,0
		C77.3,47.2,77.5,47.2,77.5,47.4z M112.4,44.6c-0.2-0.1-0.3-0.2-0.5-0.3C112,44.4,112.2,44.5,112.4,44.6c0,0.1,0,0.2,0.1,0.2
		l0.1,0.2l-0.1-0.2C112.4,44.8,112.3,44.7,112.4,44.6L112.4,44.6z M119.5,37.4c-0.1,0-0.3-0.1-0.4-0.1
		C119.2,37.3,119.4,37.3,119.5,37.4L119.5,37.4L119.5,37.4z M119.9,37.4L119.9,37.4z M132.9,36.5c-0.1-0.1-0.3-0.1-0.5-0.1
		C132.6,36.4,132.8,36.4,132.9,36.5c0.2,0.1,0.3,0.3,0.5,0.4C133.3,36.8,133.1,36.6,132.9,36.5L132.9,36.5z M146.4,37
		c0.2,0.1,0.4,0.1,0.6,0.1C146.8,37.1,146.6,37.1,146.4,37l-0.4,1L146.4,37L146.4,37z M156.1,32.4h-0.3c-0.2,0-0.3,0.1-0.5,0.1
		c0.2-0.1,0.3-0.1,0.5-0.1H156.1v-0.1V32.4z M162.2,26.3L162.2,26.3L162.2,26.3z M180.2,24.4c-0.1,0.1-0.1,0.2-0.2,0.2
		C180,24.6,180.1,24.5,180.2,24.4L180.2,24.4z M188.3,28.3c0,0-0.1-0.1-0.1-0.1C188.2,28.2,188.2,28.2,188.3,28.3L188.3,28.3z
		 M188.2,29.1c0-0.2,0.1-0.3,0.2-0.4c0,0,0-0.1,0-0.1c0,0,0,0.1,0,0.1C188.3,28.8,188.2,28.9,188.2,29.1L188.2,29.1z M218.1,42
		c-0.1,0.1-0.2,0.2-0.2,0.4l0,0C218,42.3,218,42.2,218.1,42z M218.8,44.4c0,0.1-0.1,0.2-0.1,0.2C218.7,44.5,218.8,44.4,218.8,44.4z
		 M219.4,45.2c-0.3-0.1-0.6-0.2-0.8-0.4v-0.1v0.1C218.8,45.1,219.1,45.2,219.4,45.2z M266.4,27.4c0,0.1,0,0.2,0.1,0.4
		C266.4,27.7,266.4,27.6,266.4,27.4z M269.9,38.4l-0.5-0.1c0,0,0-0.1,0.1-0.1c0,0-0.1,0.1-0.1,0.1L269.9,38.4z M280.7,32.3
		C280.7,32.3,280.7,32.2,280.7,32.3C280.7,32.2,280.7,32.3,280.7,32.3L280.7,32.3z M286.7,27.8L286.7,27.8c0.1,0,0.1,0.1,0.1,0.2
		C286.8,27.9,286.8,27.9,286.7,27.8z M329.3,31.1c0,0.4,0.1,0.7,0.5,0.9c0,0,0,0.1,0,0.1c0,0,0-0.1,0-0.1
		C329.4,31.8,329.3,31.5,329.3,31.1z M329.8,30.3L329.8,30.3L329.8,30.3L329.8,30.3z M337.6,36.1c0-0.1,0.1-0.3,0.2-0.4
		C337.7,35.9,337.7,36,337.6,36.1L337.6,36.1c-0.2,0.2-0.3,0.6-0.2,0.9C337.4,36.8,337.2,36.5,337.6,36.1L337.6,36.1L337.6,36.1
		L337.6,36.1L337.6,36.1z M359.8,37.1L360,37L359.8,37.1L359.8,37.1z M371.7,105.7c0.1-0.1,0.2-0.1,0.2-0.1
		C371.9,105.6,371.8,105.6,371.7,105.7L371.7,105.7z M375.2,106.2L375.2,106.2z M377.1,113.1l-2.1,0.2l0,0L377.1,113.1z
		 M374.8,116.1c0,0-0.1-0.1-0.1-0.1c0-0.1,0-0.2-0.1-0.3c0,0.1,0.1,0.2,0.1,0.3C374.7,116,374.8,116.1,374.8,116.1z M365,115
		c0,0.3-0.1,0.5-0.2,0.6C365,115.5,365,115.3,365,115h0.5H365z M357.7,112.7l-0.2-0.1L357.7,112.7l4.6,1l0,0c0,0,0,0.1,0,0.1
		c0,0,0-0.1,0-0.1L357.7,112.7z M352.5,112.8c0.1-0.1,0.2-0.1,0.4-0.2C352.8,112.7,352.7,112.8,352.5,112.8l-0.2,0.2L352.5,112.8
		L352.5,112.8z M346.4,112.5L346.4,112.5L346.4,112.5z M343.8,112.3c0.4-0.1,0.9,0,1.3,0.1C344.7,112.3,344.2,112.2,343.8,112.3
		l-0.4,0.2L343.8,112.3L343.8,112.3z M323.8,112L323.8,112c0.2,0,0.3,0.1,0.5,0.1C324.1,112.1,324,112,323.8,112z M323,112.6
		L323,112.6h-0.4l0,0H323z M281.6,109.6L281.6,109.6z M192.8,105.8c-0.3,0.1-0.5,0.3-0.7,0.6c-0.1,0.1-0.2,0.3-0.3,0.4
		c0.1-0.2,0.2-0.3,0.3-0.4C192.3,106.1,192.5,106,192.8,105.8L192.8,105.8L192.8,105.8z M83.4,86.4L83.4,86.4h-0.2H83.4z M82.8,88
		c-0.1-0.1-0.1-0.3-0.2-0.4l-0.7-0.2l0.7,0.2C82.6,87.7,82.7,87.8,82.8,88z M67.6,96.5c0,0.2,0,0.6,0.7,0.6c0-0.1-0.1-0.2-0.1-0.3
		c0,0.1,0,0.2,0.1,0.3c0.3-0.1,0.5-0.2,0.5-0.4c0,0.2-0.1,0.3-0.5,0.4c0,0.1,0.2,0.3,0.1,0.2s-0.1-0.1-0.1-0.2
		C67.5,97.1,67.5,96.8,67.6,96.5z M78.7,44.6c-0.4,0-0.8,0.2-1,0.6c-0.1-0.1-0.1-0.2-0.2-0.2c-0.1-0.1,0-0.2-0.2-0.2
		c-0.1-0.2-0.1-0.4-0.2-0.4c0.2,0.1,0.3,0.2,0.4,0.4C77.8,44.6,78.2,44.6,78.7,44.6z M137,35.4c0.1,0,0.2,0,0.2,0
		c0.1,0.1,0.2,0.2,0.3,0.2c-0.1-0.1-0.1-0.2-0.3-0.2C137.2,35.3,137.1,35.3,137,35.4c0,0,0,0.1,0,0.2C137,35.5,137,35.4,137,35.4z
		 M180.3,23.1C180.3,23.1,180.3,23.1,180.3,23.1C180.3,23.1,180.3,23,180.3,23.1z M202.7,22c-0.1,0.1-0.3,0.1-0.4,0.2l0,0
		C202.4,22.1,202.5,22,202.7,22z M212,22.8C212,22.8,212,22.7,212,22.8C212,22.8,212,22.8,212,22.8L212,22.8z M257.3,21.7l0.2,0.2
		l0.1,0.3l-0.1-0.3L257.3,21.7z M263.7,28.4c-0.2,0-0.5-0.1-0.7-0.1C263.3,28.3,263.5,28.4,263.7,28.4L263.7,28.4L263.7,28.4z
		 M266.4,27.1c-0.1-0.1-0.2-0.2-0.4-0.2C266.2,26.9,266.4,27,266.4,27.1L266.4,27.1L266.4,27.1z M270.5,35.5
		c-0.1,0.1-0.2,0.1-0.2,0.2C270.4,35.6,270.5,35.6,270.5,35.5z M350.8,31.6c0,0,0,0.1,0,0.1C350.8,31.7,350.8,31.7,350.8,31.6
		l-0.5-0.5L350.8,31.6z M364.4,39.4c0.1-0.1,0.3-0.1,0.4,0c0.3,0.1,0.6,0.1,0.8,0.1c-0.3,0-0.6,0-0.8-0.1
		C364.6,39.4,364.5,39.4,364.4,39.4z M374,91.9c0.1,0.1,0.3,0.3,0.4,0.4C374.3,92.2,374.1,92.1,374,91.9z M374,105.9h0.4H374z
		 M378.9,109.8c0.2,0.2,0.5,0.2,0.8,0.1C379.5,110,379.1,110,378.9,109.8L378.9,109.8z M374.7,117.8c0.1,0,0.1-0.1,0.1-0.2
		C374.8,117.7,374.7,117.8,374.7,117.8c-0.1,0-0.2,0-0.3,0c-0.1,0.1-0.2,0.2-0.4,0.2c0.1-0.1,0.3-0.1,0.4-0.2
		C374.5,117.9,374.6,117.9,374.7,117.8L374.7,117.8z M370,117.2c0.1-0.1,0.2-0.1,0.4-0.1C370.2,117.1,370.1,117.1,370,117.2
		L370,117.2L370,117.2z M364.9,116.6c-0.2-0.2-0.5-0.4-0.8-0.4C364.4,116.3,364.7,116.4,364.9,116.6l1.4-0.1L364.9,116.6z
		 M355.7,113.1l-0.6-0.4l0,0L355.7,113.1z M353.5,113.9L353.5,113.9v-0.2V113.9z M347.5,114.9c0.2,0,0.4,0,0.6,0
		C347.9,114.9,347.7,114.9,347.5,114.9c-0.1,0-0.2,0.1-0.3,0.1C347.3,115,347.4,115,347.5,114.9L347.5,114.9z M348.4,116
		c-0.1,0-0.1,0-0.2,0l-0.5-0.1l0.5,0.1C348.2,116,348.3,116,348.4,116z M346,114.8L346,114.8L346,114.8z M345.2,114.8
		c-0.2,0-0.4,0-0.6-0.2c0.1-0.1,0.1-0.2,0-0.3c0.1,0.1,0.1,0.2,0,0.3C344.7,114.8,345,114.8,345.2,114.8L345.2,114.8z M342.2,112.4
		c0-0.1,0.1-0.1,0.1-0.3l0,0C342.2,112.2,342.2,112.3,342.2,112.4L342.2,112.4z M342.4,111.6c-0.3-0.1-0.6-0.2-0.9-0.3
		C341.8,111.4,342.1,111.5,342.4,111.6l0.2,0.2L342.4,111.6L342.4,111.6z M274.6,110c0.1,0.3,0.3,0.4,0.5,0.4
		C274.9,110.4,274.7,110.3,274.6,110L274.6,110L274.6,110z M187.3,109.1c-0.6,0.6-1.4,0.6-2,1.1
		C185.9,109.6,186.8,109.6,187.3,109.1c0.1-0.3,0.1-0.5,0.1-0.7C187.4,108.6,187.4,108.8,187.3,109.1l1.8,0.1l0,0L187.3,109.1
		L187.3,109.1L187.3,109.1z M179.9,102.8c0.1,0,0.2,0,0.4,0C180.2,102.7,180.1,102.7,179.9,102.8L179.9,102.8L179.9,102.8z
		 M115.3,99.7c-0.1,0-0.2,0-0.3-0.1C115.1,99.7,115.2,99.7,115.3,99.7L115.3,99.7L115.3,99.7z M101.5,97.8L101.5,97.8z M94.8,98.9
		c-0.1,0.1-0.2,0.2-0.2,0.3C94.6,99.1,94.7,99,94.8,98.9v-0.1V98.9z M94.3,99.6c0-0.1,0-0.2,0.1-0.3C94.3,99.4,94.3,99.5,94.3,99.6z
		 M111.7,37.6c0,0.1-0.1,0.1-0.1,0.1C111.6,37.7,111.6,37.6,111.7,37.6z M143.9,22l0.3-0.1l0,0L143.9,22z M146.5,30.6
		c-0.2,0-0.3-0.2-0.5-0.2c0-0.1-0.1-0.1-0.1-0.2c0.1,0.1,0.1,0.1,0.1,0.2C146.2,30.4,146.3,30.6,146.5,30.6z M161.4,22.8h-0.2H161.4
		z M162.3,24.1v0.1c0.1,0,0.2,0,0.3,0c-0.1,0-0.2,0-0.3,0V24.1z M168.8,22.3l0.2-0.1c0.1-0.1,0.3-0.1,0.4-0.2
		c-0.1,0-0.3,0.1-0.4,0.2L168.8,22.3c-0.1-0.1-0.2-0.2-0.2-0.3C168.6,22.1,168.7,22.2,168.8,22.3z M175.7,24.3
		c0.1,0,0.3-0.1,0.4-0.1C176,24.2,175.9,24.2,175.7,24.3L175.7,24.3L175.7,24.3z M176.9,21.8L177,22l0.1,0.1l0,0L177,22L176.9,21.8z
		 M218,18.6c0,0.1,0,0.1,0,0.2C218,18.7,218,18.7,218,18.6L218,18.6L218,18.6z M244.6,22.2c-0.2,0-0.4,0-0.5,0
		C244.2,22.2,244.4,22.2,244.6,22.2c0,0.1,0.1,0.2,0.2,0.3C244.7,22.5,244.6,22.4,244.6,22.2L244.6,22.2z M256,24L256,24L256,24z
		 M265.7,23.1l0.4-0.8l0,0L265.7,23.1z M307,21.7c0,0.1,0,0.2-0.1,0.3l0,0C306.9,21.9,306.9,21.8,307,21.7L307,21.7z M328.5,27.7
		c-0.1,0.1-0.2,0.2-0.2,0.4C328.3,27.9,328.3,27.8,328.5,27.7L328.5,27.7z M329,27.4c-0.1,0-0.3,0-0.4,0.1
		C328.7,27.5,328.8,27.5,329,27.4l0.3,0L329,27.4L329,27.4z M346.9,23c0,0,0,0.1,0.1,0.1C346.9,23.1,346.9,23.1,346.9,23z M348,23.9
		c0-0.1,0-0.2-0.1-0.3c0-0.1,0-0.1,0-0.2c0,0.1,0,0.1,0,0.2C348,23.7,348.1,23.8,348,23.9L348,23.9z M385.4,34
		c-0.1-0.1-0.2-0.2-0.2-0.3C385.2,33.8,385.3,33.9,385.4,34z M385.2,32.8l0.2,0l0,0l0.5,0.3l0,0l-0.5-0.3L385.2,32.8z M388.7,38.9
		l0.2-0.2c0.1,0,0.2-0.1,0.2-0.2c-0.1,0.1-0.1,0.1-0.2,0.2L388.7,38.9z M397.3,58.3c0,0.1,0.1,0.1,0.1,0.1
		C397.4,58.5,397.3,58.4,397.3,58.3C397.4,58.3,397.4,58.2,397.3,58.3C397.3,58.2,397.3,58.3,397.3,58.3z M376,92.7L376,92.7z
		 M379.9,107L379.9,107L379.9,107L379.9,107L379.9,107z M380.2,109.1c-0.1-0.1-0.3-0.2-0.4-0.2C380,108.9,380.1,109,380.2,109.1z
		 M375.7,117.8C375.7,117.7,375.7,117.7,375.7,117.8L375.7,117.8C375.7,117.7,375.7,117.8,375.7,117.8L375.7,117.8z M375.7,118
		c0,0.1,0.1,0.3,0.1,0.4C375.8,118.3,375.7,118.2,375.7,118L375.7,118z M342.9,116.4L342.9,116.4c0-0.3,0.1-0.5,0.1-0.8
		C343,115.8,343,116.1,342.9,116.4z M342.7,116.4h-0.2H342.7z M341.4,112.3c-0.1-0.1-0.2-0.2-0.3-0.2
		C341.2,112.1,341.3,112.2,341.4,112.3L341.4,112.3L341.4,112.3z M338.3,113.4H338H338.3z M337.6,113.5L337.6,113.5z M331.4,113
		c0,0.1-0.1,0.2-0.1,0.3l0,0C331.3,113.2,331.4,113.1,331.4,113L331.4,113z M329.8,114l0.1-0.3h0.3h-0.3L329.8,114z M297.4,110.5
		c0.1-0.1,0.2-0.2,0.4-0.2C297.6,110.3,297.5,110.4,297.4,110.5l-0.1,0.3c0,0.1,0,0.2,0,0.3c0-0.1,0-0.2,0-0.3L297.4,110.5
		L297.4,110.5z M279.9,110.9L279.9,110.9z M212.3,108.9L212.3,108.9h0.4l0,0H212.3z M194.5,110.7c0.3,0,0.6-0.1,0.8-0.1
		C195.1,110.6,194.8,110.6,194.5,110.7l-1,0.1L194.5,110.7L194.5,110.7z M192.4,111c0.1,0.1,0.2,0.2,0.3,0.2
		C192.6,111.2,192.5,111.1,192.4,111L192.4,111L192.4,111L192.4,111z M192.2,110.7L192.2,110.7L192.2,110.7L192.2,110.7z M191,110.8
		c0,0,0.1,0.1,0.1,0.1C191.1,110.8,191,110.8,191,110.8L191,110.8L191,110.8l0.5-0.1l0.5-0.3c0.2-0.2,0.3-0.4,0.4-0.6
		c-0.1,0.2-0.2,0.4-0.4,0.6l0,0l-0.5,0.3L191,110.8z M187.8,110.5c0.3,0,0.6,0.1,0.8,0.1C188.4,110.6,188.1,110.6,187.8,110.5
		c-0.1,0.1-0.3,0.2-0.4,0.3C187.6,110.8,187.7,110.7,187.8,110.5L187.8,110.5z M170,110.5c0.2,0.1,0.4,0.1,0.5,0
		C170.4,110.6,170.2,110.6,170,110.5L170,110.5L170,110.5z M149.2,109.9L149.2,109.9h0.1l0,0H149.2z M140.9,110.3L140.9,110.3z
		 M140.9,110v-0.4l0,0V110L140.9,110z M132.9,106.9c-0.1,0.1-0.3,0.1-0.4,0.1C132.7,107,132.8,106.9,132.9,106.9L132.9,106.9
		L132.9,106.9z M94.7,100.8c0,0.1,0,0.1-0.1,0.2C94.7,100.9,94.7,100.8,94.7,100.8L94.7,100.8L94.7,100.8z M79.1,89.9l-0.4-0.1
		c-0.1-0.1-0.2-0.3-0.4-0.4c0.1,0.1,0.2,0.3,0.4,0.4L79.1,89.9z M71.7,98.2c0,0.2,0,0.4,0,0.5C71.7,98.6,71.6,98.4,71.7,98.2
		L71.7,98.2z M64.8,82.1L64.8,82.1z M69.6,32.5c-0.1-0.3-0.2-0.5-0.4-0.7L69.6,32.5z M78.5,36.4c0,0.1,0,0.1-0.1,0.2
		C78.4,36.5,78.4,36.4,78.5,36.4L78.5,36.4L78.5,36.4z M95,33.4l0.3-0.1c-0.1-0.2-0.2-0.5-0.2-0.7c0.1,0.2,0.2,0.5,0.2,0.7L95,33.4z
		 M104.9,24.1c0-0.1,0-0.1-0.1-0.2C104.8,24,104.8,24.1,104.9,24.1L104.9,24.1z M111.5,36.2c0,0.1,0.1,0.1,0.2,0.2l0,0
		C111.6,36.4,111.5,36.3,111.5,36.2L111.5,36.2z M194.9,19.9l0.5,0.1c0.1-0.4,0.2-0.7,0.2-1.1c-0.1,0.4-0.1,0.7-0.2,1.1l0.1,0.1
		c0.1,0,0.1,0.1,0.1,0.2c0-0.1,0-0.2-0.1-0.2l-0.1-0.1L194.9,19.9z M217.9,18.2c-0.1,0.1-0.3,0.2-0.4,0.1
		C217.6,18.3,217.8,18.2,217.9,18.2L217.9,18.2L217.9,18.2z M269.2,19.5l-0.2-0.1L269.2,19.5l0.2-0.2L269.2,19.5z M316.7,22.9
		c0.2,0.1,0.3,0.2,0.4,0.4l0,0C317.1,23.1,316.9,23,316.7,22.9L316.7,22.9z M319.5,23.6c-0.1,0-0.3-0.1-0.4-0.1
		C319.2,23.6,319.4,23.6,319.5,23.6c0.1-0.3,0.2-0.6,0.2-0.9C319.7,23,319.6,23.3,319.5,23.6L319.5,23.6z M322.3,19.8L322.3,19.8
		L322.3,19.8z M330.9,20.8c0,0.1,0,0.1,0.1,0.2C330.9,20.9,330.9,20.9,330.9,20.8z M347.6,23.6L347.6,23.6c-0.1-0.1-0.3-0.1-0.4-0.2
		C347.3,23.5,347.4,23.5,347.6,23.6z M375.9,93.8c0-0.1-0.1-0.3-0.2-0.4C375.8,93.5,375.9,93.7,375.9,93.8L375.9,93.8z M375.2,97.9
		c-0.2,0-0.4,0-0.6,0l0,0C374.8,97.9,375,97.9,375.2,97.9z M374.7,100c0.2,0,0.3,0,0.4,0C374.9,100,374.8,100,374.7,100L374.7,100z
		 M383,110c-0.1-0.1-0.3-0.3-0.4-0.5C382.8,109.7,382.9,109.9,383,110L383,110l-2.4-0.2c-0.1-0.2-0.2-0.4-0.3-0.6
		c0.1,0.2,0.2,0.4,0.3,0.6L383,110z M386,112.1c-0.2,0-0.3,0-0.4-0.1l0,0C385.6,112.1,385.8,112.1,386,112.1L386,112.1z
		 M385.7,112.2L385.7,112.2z M376,116.9c0.1,0,0.1,0.1,0.2,0.1C376.2,117,376.1,117,376,116.9l-1.1,0L376,116.9L376,116.9z
		 M363.4,118c0.1,0,0.1,0,0.2,0C363.6,118,363.5,118,363.4,118c-0.1-0.1-0.2-0.1-0.3-0.1C363.2,117.9,363.3,117.9,363.4,118
		L363.4,118z M361.5,116.7L361.5,116.7L361.5,116.7z M354.7,114.8c0.3,0,0.7,0.1,1,0.2C355.3,114.8,355,114.7,354.7,114.8
		c0-0.2,0-0.3,0.1-0.4C354.7,114.5,354.6,114.6,354.7,114.8L354.7,114.8z M340.7,114.4c0.1,0.1,0.2,0.2,0.3,0.3
		C340.9,114.6,340.8,114.5,340.7,114.4c0.2,0,0.3-0.2,0.5-0.4c0.1-0.1,0.2-0.1,0.3-0.1c-0.1,0-0.2,0.1-0.3,0.1
		C341,114.1,340.9,114.3,340.7,114.4z M339.9,114.1c-0.3,0-0.6-0.2-0.8-0.4l0,0l0,0l0,0C339.3,113.9,339.6,114.1,339.9,114.1z
		 M337.1,113.7c0-0.1,0.1-0.1,0.1-0.2C337.1,113.5,337.1,113.6,337.1,113.7z M334.3,113.2c0,0,0-0.1,0-0.1l0,0
		C334.3,113.1,334.3,113.2,334.3,113.2z M331.5,114.8L331.5,114.8L331.5,114.8z M327.7,114.7c0.1,0.1,0.1,0.2,0.2,0.2
		C327.8,114.9,327.7,114.7,327.7,114.7z M324,113.7c0,0,0,0.1,0,0.1C324,113.8,323.9,113.7,324,113.7c-0.1-0.1-0.1-0.1-0.1-0.1l0,0
		C323.9,113.7,323.9,113.7,324,113.7L324,113.7z M314.2,112.9c0.1,0,0.1-0.1,0.2-0.1C314.3,112.8,314.2,112.9,314.2,112.9
		L314.2,112.9z M313.9,113L313.9,113z M197.7,112.4L197.7,112.4z M194.5,112.7c0,0,0.1,0,0.1,0C194.5,112.7,194.5,112.7,194.5,112.7
		L194.5,112.7z M189,112.6c0.2,0,0.5,0,0.7-0.1C189.4,112.5,189.2,112.6,189,112.6L189,112.6z M184,110.7c-0.2,0-0.4,0.1-0.6,0.2
		l0,0C183.7,110.8,183.8,110.7,184,110.7L184,110.7z M183,110.9L183,110.9z M183.5,110.9C183.6,110.9,183.6,110.9,183.5,110.9
		C183.6,110.9,183.5,110.9,183.5,110.9L183.5,110.9L183.5,110.9z M181.7,110.6c-0.2,0.1-0.4,0.2-0.7,0.2
		C181.2,110.9,181.4,110.8,181.7,110.6l0.3,0.2L181.7,110.6L181.7,110.6z M171.4,111c0,0.1,0.1,0.2,0.1,0.2
		C171.5,111.2,171.4,111.1,171.4,111L171.4,111L171.4,111z M149.4,109.9c0.3,0.1,0.6,0.1,1,0.1C150,110,149.7,110,149.4,109.9
		c-0.1,0.1-0.2,0.2-0.4,0.2C149.1,110.1,149.2,110,149.4,109.9L149.4,109.9L149.4,109.9z M121.9,106.6c0,0.1-0.1,0.1-0.1,0.1
		C121.8,106.7,121.9,106.6,121.9,106.6h-0.5H121.9z M121.4,106.9c0.1,0,0.2,0,0.2-0.1C121.6,106.9,121.5,106.9,121.4,106.9
		L121.4,106.9z M100.5,101.5c0.1-0.1,0.2-0.2,0.3-0.3C100.7,101.3,100.6,101.4,100.5,101.5z M69.2,104.8l0.2,0.1L69.2,104.8z
		 M46.2,64.8c0,0,0-0.1,0-0.1l-0.4,0.1l0.4-0.1C46.3,64.7,46.3,64.7,46.2,64.8z M46,63.6c0.1-0.4,0-0.9-0.1-1.3
		C46.1,62.7,46.1,63.1,46,63.6L46,63.6c0,0.1,0,0.2,0,0.3C46.1,63.8,46.1,63.7,46,63.6L46,63.6z M62.7,31.8c0.1,0,0.3,0,0.4,0l0,0
		C62.9,31.9,62.8,31.9,62.7,31.8z M68.6,31.6l0.1-0.4l0,0L68.6,31.6z M77.3,36.2c0-0.1,0.1-0.2,0.2-0.3C77.4,36,77.4,36.1,77.3,36.2
		L77.3,36.2z M160.3,23.1l0.2,0l0,0L160.3,23.1z M186.9,19.8c0.2,0,0.5-0.2,0.7-0.4C187.4,19.7,187.1,19.8,186.9,19.8L186.9,19.8
		L186.9,19.8z M188.4,18.2c-0.1-0.1-0.1-0.2-0.2-0.3C188.3,18,188.4,18.1,188.4,18.2L188.4,18.2z M197.3,17.8c0.1,0,0.2,0,0.3,0
		C197.5,17.8,197.4,17.8,197.3,17.8L197,18c-0.1,0.1-0.2,0.2-0.2,0.3c0.1-0.1,0.1-0.2,0.2-0.3L197.3,17.8z M205,17.5
		c-0.3,0-0.5,0-0.7-0.1C204.5,17.5,204.7,17.5,205,17.5L205,17.5L205,17.5z M215.2,19.2c-0.1,0-0.3,0-0.4,0
		C215,19.2,215.1,19.2,215.2,19.2l0.2,0c0.1,0.1,0.3,0.2,0.5,0.3c0.2,0,0.5,0,0.7-0.2c-0.2,0.1-0.4,0.2-0.7,0.2
		c-0.2,0-0.4-0.1-0.5-0.3L215.2,19.2L215.2,19.2z M217.3,17.1c0-0.1,0.1-0.2,0.1-0.3C217.4,16.9,217.3,17,217.3,17.1z M254.4,16.6
		L254.4,16.6l-0.2,0.2L254.4,16.6z M267.7,16.2L267.7,16.2L267.7,16.2z M271.7,19.3C271.7,19.2,271.7,19.2,271.7,19.3l0.1-0.3
		L271.7,19.3C271.7,19.2,271.7,19.2,271.7,19.3L271.7,19.3z M273.2,20c-0.1,0-0.1,0-0.2,0C273.1,20,273.2,20,273.2,20z M273.5,20.2
		c0-0.1,0-0.1-0.1-0.2C273.4,20.1,273.5,20.2,273.5,20.2L273.5,20.2z M276.8,24.2c0.2,0,0.3,0.1,0.4,0.2
		C277.1,24.3,277,24.3,276.8,24.2c-0.2,0.1-0.5,0.2-0.8,0.1C276.3,24.4,276.6,24.4,276.8,24.2z M330.5,20.9c0.1,0,0.2-0.1,0.3-0.2
		l0,0C330.7,20.8,330.6,20.8,330.5,20.9z M371,24.3l-0.4-0.2l0,0L371,24.3z M390.9,36c-0.1,0-0.2,0.1-0.2,0.2c0,0.1-0.1,0.2-0.1,0.3
		c0,0,0,0.1,0,0.2c0,0.1,0.1,0.2,0.1,0.4c0-0.1-0.1-0.2-0.1-0.4c0-0.1,0-0.1,0-0.2c0-0.1,0-0.2,0.1-0.3
		C390.7,36.1,390.8,36,390.9,36z M392.4,34c-0.2,0-0.3,0.1-0.5,0.1l0,0C392,34.1,392.2,34,392.4,34z M399.7,40l0.9,0.2L399.7,40z
		 M404.5,43.2c0,0.1,0.2,0.2,0.5,0.3l0.5,0.2l-0.5-0.2C404.7,43.4,404.5,43.3,404.5,43.2L404.5,43.2z M405,44.9
		c0.3,0.3,0.6,0.5,0.9,0.7C405.6,45.4,405.3,45.2,405,44.9c0-0.1,0.1-0.1,0.2-0.2C405.1,44.8,405,44.8,405,44.9L405,44.9z M397,62.4
		c0.2,0.2,0.5,0.5,0.7,0.8C397.4,62.9,397.2,62.6,397,62.4l0.1-0.2L397,62.4L397,62.4z M377,94l0.6,0.2L377,94l-0.8-0.7L377,94z
		 M376,100.5L376,100.5c-0.1-0.1-0.3-0.2-0.4-0.3C375.8,100.3,375.9,100.4,376,100.5z M384.2,104.4c-0.1-0.1-0.2-0.3-0.2-0.4l0,0
		C384.1,104.1,384.2,104.2,384.2,104.4z M379.4,104.8c0.4,0.1,0.8,0.1,1.2,0C380.3,104.9,379.9,104.8,379.4,104.8
		c-0.1,0-0.3,0.1-0.3,0.2C379.1,104.9,379.3,104.9,379.4,104.8L379.4,104.8z M387.2,112c0.4,0.1,0.7,0,1.1-0.1
		C387.9,112,387.5,112.1,387.2,112L387.2,112L387.2,112z M354.8,120.5c0.1,0,0.1-0.1,0.1-0.1C354.9,120.4,354.9,120.4,354.8,120.5
		L354.8,120.5z M350,119.3c-0.1,0-0.2-0.1-0.2-0.2c-0.1-0.1-0.2-0.2-0.2-0.3l-1,0.1l1-0.1l0,0c0,0.1,0.1,0.2,0.2,0.3
		C349.8,119.2,349.9,119.2,350,119.3L350,119.3z M333.2,113.8c0.6,0.1,1.3,0.2,1.9,0.3C334.5,113.9,333.8,113.8,333.2,113.8
		L333.2,113.8L333.2,113.8z M332.6,113.8c0.1,0,0.2-0.1,0.3-0.2C332.8,113.7,332.7,113.7,332.6,113.8L332.6,113.8z M311.5,112.1
		c-0.1,0.1-0.2,0.1-0.4,0.1C311.2,112.2,311.4,112.2,311.5,112.1c0.5,0.4,1.1,0.7,1.7,0.7C312.6,112.8,311.9,112.6,311.5,112.1z
		 M313.4,112.9h-0.1H313.4z M228.3,115.3c0.1,0,0.2,0,0.3,0C228.6,115.2,228.5,115.2,228.3,115.3L228.3,115.3L228.3,115.3z
		 M201.8,110.6c0,0.1-0.1,0.2-0.2,0.2C201.6,110.8,201.7,110.7,201.8,110.6h0.4l0,0H201.8z M195.4,112.5c-0.2,0-0.3,0.1-0.4,0.2
		c-0.1,0-0.2,0-0.3,0c0.1,0,0.2,0,0.3,0C195.1,112.5,195.3,112.5,195.4,112.5L195.4,112.5z M194,112.7c0.1,0.2,0,0.4-0.1,0.4
		C194,113,194.1,112.9,194,112.7l-0.5-0.1l0,0L194,112.7z M192,113.8L192,113.8l0.4-0.4L192,113.8z M186,113.8
		c0-0.1,0.1-0.2,0.2-0.2C186.2,113.7,186.1,113.7,186,113.8L186,113.8z M178.5,111c-0.5,0.1-0.9,0.2-1.3,0.4
		C177.5,111.2,178,111.1,178.5,111z M174.4,110.8H174c-0.1,0.1-0.2,0.2-0.4,0.2c0.1,0,0.3-0.1,0.4-0.2l0,0l0,0l0,0H174.4z
		 M171.8,111.3c0.3,0.1,0.5,0.1,0.8,0.1C172.3,111.4,172.1,111.3,171.8,111.3c-0.2,0-0.5,0.1-0.8,0.1
		C171.3,111.4,171.6,111.4,171.8,111.3L171.8,111.3z M169.4,111.7l-0.5,0.3l0.1,0.1l-0.1-0.1L169.4,111.7z M166.8,111.7L166.8,111.7
		z M144.8,109.9c0.1,0,0.3-0.1,0.4-0.1C145.1,109.8,144.9,109.8,144.8,109.9z M138,110.6c0.1,0.1,0.1,0.1,0.1,0.2l0,0
		c0-0.1-0.1-0.2-0.1-0.3L138,110.6z M105.9,104.9c-0.1,0,0.1-0.2,0.1-0.6c0,0.2-0.1,0.3-0.1,0.5L105.9,104.9z M106.2,104.2
		c-0.3-0.6-0.4-0.7-0.3-1.1c-0.1,0.3,0.1,0.4,0.4,0.3c0,0.2,0,0.3,0,0.6c0,0-0.1,0.1-0.1,0.1L106.2,104.2z M93.4,104.5L93.4,104.5
		L93.4,104.5z M70.9,102.3L70.9,102.3c0.1-0.1,0.2-0.1,0.3-0.3C71.2,102.1,71.1,102.2,70.9,102.3z M68.7,104.6
		c0.1,0,0.2,0.1,0.3,0.1C69,104.7,68.8,104.7,68.7,104.6L68.7,104.6z M43.6,52.1c0-0.1,0.1-0.2,0.1-0.2C43.6,52,43.6,52.1,43.6,52.1
		L43.6,52.1L43.6,52.1z M61.3,31.1c0.2,0,0.5,0.1,0.7,0.1C61.7,31.2,61.5,31.2,61.3,31.1c0,0.1-0.1,0.1-0.1,0.2
		C61.2,31.3,61.2,31.2,61.3,31.1z M67.3,30.5c0-0.1,0-0.2,0.1-0.3C67.4,30.3,67.3,30.4,67.3,30.5c0,0.1,0,0.2,0,0.3
		C67.3,30.7,67.3,30.6,67.3,30.5L67.3,30.5z M67.4,29.8L67.4,29.8z M112.5,23c-0.1,0-0.3,0.1-0.4,0.1C112.2,23.1,112.3,23,112.5,23
		L112.5,23L112.5,23z M156.7,18L156.7,18c-0.9,0.1-1.8,0.1-2.7,0.1C154.9,18.2,155.8,18.1,156.7,18z M159.8,18.2
		c0.4,0,0.7,0,1.1-0.1l0,0C160.6,18.2,160.2,18.2,159.8,18.2L159.8,18.2z M176.2,17.9c0.2,0,0.4,0,0.6,0
		C176.6,17.9,176.4,17.9,176.2,17.9L176.2,17.9L176.2,17.9z M188.1,17.5c0.2,0.1,0.4,0.1,0.6,0.1C188.5,17.7,188.3,17.6,188.1,17.5
		c-0.1-0.1-0.2-0.2-0.3-0.2C188,17.4,188.1,17.4,188.1,17.5L188.1,17.5z M202.6,16.9h-1.1H202.6L202.6,16.9z M218.4,16.2
		c0.1,0,0.1,0,0.2,0C218.5,16.2,218.5,16.2,218.4,16.2L218.4,16.2z M234.4,16.7c0.1,0,0.3,0,0.4,0C234.7,16.6,234.5,16.6,234.4,16.7
		c0-0.1-0.1-0.1-0.1-0.1C234.3,16.6,234.3,16.6,234.4,16.7L234.4,16.7z M254.6,16.4c0.1,0,0.2-0.1,0.3-0.1
		C254.8,16.3,254.7,16.4,254.6,16.4l-0.1,0.1l0,0L254.6,16.4L254.6,16.4z M269.9,15.8c-0.1,0-0.2,0-0.3,0
		C269.7,15.9,269.8,15.9,269.9,15.8z M270.8,16c-0.1-0.1-0.2-0.1-0.3-0.1C270.6,15.9,270.8,15.9,270.8,16L270.8,16L270.8,16z
		 M273.3,19.3c0.1,0,0.1,0,0.1,0.1C273.4,19.4,273.4,19.3,273.3,19.3c-0.2-0.1-0.5-0.1-0.8,0C272.8,19.2,273.1,19.2,273.3,19.3
		L273.3,19.3z M289.7,15.9L289.7,15.9c-0.2-0.1-0.4-0.2-0.7-0.3C289.3,15.7,289.5,15.8,289.7,15.9z M308.5,17
		c-1-0.1-2.1-0.2-3.1-0.2h-1c-0.2-0.1-0.4-0.1-0.6-0.1c-0.3,0-0.6,0-1,0c0.3,0,0.6,0,1,0c0.2,0,0.4,0.1,0.6,0.1h1
		C306.5,16.8,307.5,16.9,308.5,17z M319.1,17.8c-0.2-0.1-0.4-0.1-0.7-0.1C318.6,17.7,318.9,17.7,319.1,17.8z M329.1,18.7
		c-0.4,0-0.8,0-1.1,0h-0.6l-5-0.5l5,0.5h0.6C328.4,18.8,328.8,18.8,329.1,18.7z M350.8,20.3l-8.3-0.4l-1.6-0.1l1.6,0.1L350.8,20.3z
		 M354.1,20.2L354.1,20.2c-0.6,0-1.1,0-1.7,0C353,20.1,353.6,20.1,354.1,20.2z M374,25.1c-0.2,0-0.3,0-0.5,0
		C373.7,25.1,373.9,25.1,374,25.1L374,25.1z M380.9,26.4c0.3-0.1,0.4-0.2,0.4-0.3C381.3,26.2,381.1,26.3,380.9,26.4l-0.6,0.2
		L380.9,26.4L380.9,26.4z M382.2,27.2l-0.5-0.2c-0.1-0.1-0.3-0.1-0.5-0.1c0.2,0,0.3,0.1,0.5,0.1L382.2,27.2z M405.2,41.9
		c0.1-0.3,0.4-0.6,0.7-0.8l0.4-0.1l0,0l-0.4,0.1C405.6,41.3,405.3,41.6,405.2,41.9z M406.5,53.1c0-0.1,0.1-0.1,0.1-0.2
		c0-0.1,0-0.1,0-0.1s0,0.1,0,0.1C406.5,52.9,406.5,53,406.5,53.1z M387.9,79.8c-0.3,0.2-0.5,0.4-0.8,0.7
		C387.4,80.3,387.6,80,387.9,79.8c0.2-0.1,0.3-0.2,0.5-0.2c0.3-0.5,0.4-0.8,0.3-1c0.1,0.2-0.1,0.5-0.3,1
		C388.3,79.7,388.1,79.7,387.9,79.8L387.9,79.8z M375.7,96.6c0.2,0,0.4,0.2,0.5,0.2C376.1,96.7,375.9,96.6,375.7,96.6l0.3-0.2
		L375.7,96.6z M376.4,100.3h0.4H376.4z M388.6,103L388.6,103z M387.9,104.9c-0.1-0.1-0.1-0.2-0.1-0.3l0,0
		C387.8,104.7,387.9,104.8,387.9,104.9L387.9,104.9z M384.3,104.9c-0.2,0.1-0.4,0.1-0.6,0.1C384,105,384.2,104.9,384.3,104.9
		L384.3,104.9L384.3,104.9z M382.6,107.2c0.1,0,0.3,0,0.3,0.1c0,0,0,0,0,0c0,0.2-0.1,0.3-0.3,0.3c-0.1,0-0.3,0-0.3-0.2
		C382.3,107.3,382.5,107.2,382.6,107.2L382.6,107.2z M390.7,109.4c0.2,0,0.5,0,0.7,0.1l0,0C391.2,109.5,391,109.5,390.7,109.4
		L390.7,109.4z M391.7,109.5L391.7,109.5z M384.7,123.4c0.1,0,0.2-0.1,0.3-0.2C384.9,123.3,384.8,123.3,384.7,123.4z M368.5,122.9
		L368.5,122.9c0.1-0.1,0.1-0.2,0.1-0.3C368.6,122.7,368.5,122.8,368.5,122.9z M353.3,120.5c0.1,0,0.2,0,0.4,0h0.2
		c0.1-0.1,0.2-0.1,0.3-0.1c-0.1,0-0.2,0.1-0.3,0.1l2,0.4l-2-0.4h-0.2C353.6,120.5,353.5,120.5,353.3,120.5z M310.6,113L310.6,113
		c0,0.1,0,0.2-0.1,0.3C310.6,113.3,310.6,113.2,310.6,113z M213.7,112.7c-0.1,0.7,0.5,0.4,0.9,0.4c-0.3,0.4-1.1,0.5-0.9,1.2
		C212.8,113.5,212.8,113.4,213.7,112.7z M207,111.9c-0.1,0.1-0.3,0-0.4,0C206.7,111.9,206.9,112,207,111.9z M205.6,112h0.3H205.6z
		 M204.1,112.2l1.1-0.2l0,0L204.1,112.2z M199.4,112.2c-0.1-0.1-0.2-0.1-0.2-0.1c-0.2,0-0.3,0-0.5,0v0.1l0,0V112
		c-0.1-0.1-0.2-0.1-0.3-0.1c0.1,0,0.2,0.1,0.3,0.1c0.2,0,0.3,0,0.5,0C199.3,112,199.4,112.1,199.4,112.2L199.4,112.2z M195.6,113.4
		l0.2,0.1c0-0.1,0.1-0.1,0.1-0.2c-0.1,0.1-0.1,0.1-0.1,0.2L195.6,113.4z M187,113.2l0.1,0.4C187.1,113.5,187,113.4,187,113.2z
		 M185.9,113.9l0.1-0.1L185.9,113.9z M184.4,113.1c-0.2,0-0.4-0.2-0.3-0.4s0.1-0.3,0.3-0.3c0.2,0,0.4,0.2,0.4,0.4
		C184.8,113.1,184.6,113.1,184.4,113.1L184.4,113.1z M182.3,117.7c0.2,0,0.3,0,0.5,0l0,0C182.6,117.7,182.5,117.7,182.3,117.7
		L182.3,117.7z M182.7,118.1c-0.1,0-0.2-0.1-0.4-0.1C182.4,118.1,182.5,118.1,182.7,118.1v0.1V118.1z M177.5,112.4
		c-0.1,0-0.1,0.1-0.2,0.2C177.4,112.5,177.5,112.4,177.5,112.4L177.5,112.4z M175.9,112.5l0.5-0.1l1.3-0.3l-1.3,0.3L175.9,112.5z
		 M172.5,113.2c-0.2,0-0.4-0.1-0.6-0.2l0,0C172,113.1,172.3,113.2,172.5,113.2L172.5,113.2z M171.7,112.8c0,0.1-0.1,0.2-0.1,0.2
		C171.6,113,171.7,112.9,171.7,112.8L171.7,112.8L171.7,112.8z M171.4,113.1c0,0,0.1,0,0.1,0C171.5,113.1,171.5,113.1,171.4,113.1
		L171.4,113.1z M169.2,112.7c0,0.1,0,0.3,0,0.6C169.3,113,169.3,112.8,169.2,112.7z M164.7,111.9L164.7,111.9z M161,112.3
		c-0.1,0-0.1,0-0.2,0l0,0C160.8,112.4,160.9,112.4,161,112.3L161,112.3z M157.3,111.3c-0.1,0-0.2-0.1-0.3-0.1
		C157.1,111.2,157.2,111.3,157.3,111.3c0.1,0.1,0.2,0.2,0.3,0.2c0.1,0,0.2,0,0.2,0c-0.1,0-0.2,0-0.2,0
		C157.4,111.5,157.3,111.4,157.3,111.3L157.3,111.3z M156.7,111.2L156.7,111.2z M156,111.2c-0.1,0.1-0.3,0.1-0.5,0.1
		C155.7,111.3,155.8,111.3,156,111.2L156,111.2z M151.1,111.1c-0.2,0-0.4,0-0.6,0C150.7,111.1,150.9,111.1,151.1,111.1L151.1,111.1z
		 M149.3,111.6L149.3,111.6L149.3,111.6L149.3,111.6z M142.3,111.9c-0.2,0.1-0.4,0.1-0.5,0.1C141.9,112.1,142.1,112,142.3,111.9
		L142.3,111.9L142.3,111.9z M124.2,107.4c-0.4,0-0.8,0-1.2,0.1C123.4,107.4,123.8,107.4,124.2,107.4c0.5,0.2,1,0.2,1.4,0.1
		C125.1,107.7,124.6,107.6,124.2,107.4L124.2,107.4z M114.2,109.9c-0.2,0-0.3-0.2-0.2-0.3c0.1-0.3,0.1-0.6,0.3-0.9
		c0.1-0.2,0.4-0.3,0.6-0.3c0.3,0.1,0.3,0.2,0.3,0.4c0.1,0.4-0.3,0.6-0.5,0.9C114.5,109.8,114.4,109.9,114.2,109.9L114.2,109.9z
		 M105.9,107.2c-0.1,0.1-0.2,0.2-0.2,0.3c0.1,0.1,0.2,0.3,0.2,0.5c0-0.2,0-0.4-0.2-0.5C105.7,107.4,105.8,107.3,105.9,107.2
		L105.9,107.2z M92.4,107.4c-0.2-0.3,0.3-0.4,0.5-0.4c0.2,0,0.5,0.1,0.6,0.4c0,0.3-0.3,0.4-0.6,0.4S92.5,107.6,92.4,107.4
		L92.4,107.4z M72.4,111.1c-0.5,0.2-0.7-0.3-1.2-0.1c0.4-0.5,0.9-0.3,1.4-0.4l-0.6-0.4c-0.1-0.1-0.4-0.1-0.1-0.4s0.4,0.1,0.5,0.1
		c0.4-0.3,0-0.8,0.4-1.3c0.1,0.5,0.4,0.8,0.3,1.1c0,0.2,0,0.4,0.5,0.2c0.2-0.1,0.4-0.1,0.5,0.1c0.1,0.2,0.1,0.3-0.2,0.4
		s-0.5,0.2-0.9,0.2c0.3,0.3,0.4,0.7,0.3,1.1c0,0.2,0.3,0.5-0.1,0.6s-0.5-0.3-0.7-0.4s0.1-0.2,0.1-0.4S72.5,111.2,72.4,111.1
		L72.4,111.1z M59.8,97.7c0-0.1,0.1-0.1,0.2-0.2C59.9,97.6,59.9,97.7,59.8,97.7L59.8,97.7z M64.2,98.7c0.7,0.1,1.5,0.1,1.9,0.7
		c-0.2,0.6-0.8,1-1.5,1c-0.5,0-1,0-1.5-0.2c-1.5-0.4-3.2-0.5-4.4-1.4c-0.1-0.1-0.6-0.1-0.5-0.3s0.4-0.3,0.7-0.3
		c0.3-0.1,0.5-0.1,0.8,0l0,0C61.2,98.3,62.7,98.5,64.2,98.7L64.2,98.7z"/>
	<path class="st0" d="M31.2,62.9v6.4c0.2,0.1,0.5,0,0.6-0.1c0.1,0,0.1-0.1,0.1-0.2v-0.4l0,0c-0.4-0.5-0.4-1.1,0-1.6l-0.1-4.6
		C31.5,62.6,31.4,62.7,31.2,62.9z"/>
	<path class="st0" d="M93,117.9c0.1,0.3,0.4,0.5,0.7,0.5c0.5,0,0.4-0.2,0.5-0.5s0.3-0.7,0.8-0.8c0.1,0.2,0.2,0.5,0,0.6
		c-1.2,0.7-0.8,1.6-0.8,2.4c0.9,0.4,1.8,0.6,2.8,0.6c1.3,0.2,2.6,0.3,3.9,0.2c0.2,0,0.4,0.1,0.6,0.2c0.2,0.2,0.5,0.2,0.7,0.2
		c0.6-0.3,1.4,0.3,2-0.1l0.3,0.2c0.6-0.2,0.5-0.7,0.3-0.9c-0.6-0.3-0.4-0.7-0.1-1c0,0,0.1-0.1,0.1-0.1c0.3-0.4,0.3-0.9-0.1-1.2
		c-0.3,0.4-0.7,0.7-1.2,0.8c-0.4,0.1-0.7,0-0.7-0.3c0-0.5-0.4-1-0.2-1.5c0-0.3,0.2-0.6,0.5-0.7c0.3-0.2,0.2-0.6,0-0.9
		c-0.1,0.8-1.3,1.2-1.2,2.1c-0.7-0.5,0-1.3-1-1.7c-0.1,0.5-1,0.7-1.5,1.3c-0.1-0.5-0.1-0.9,0.3-1c1-0.3,0.8-0.9,0.9-1.3
		s0.1-0.7-0.8-0.4c-0.4,0.2-0.4-0.3-0.8-0.2c-0.2,0.1-0.1,0.2,0,0.3c0.5,0.7,0.4,1.1-0.5,1.6c-0.3,0.2-0.4,0.6-0.4,0.8
		s-0.1,0.4-0.4,0.4s-0.2-0.2-0.2-0.4s0.1-0.3-0.3-0.6c0.1,0.6-0.8,1,0.2,1.4c0.4,0.1,0.2,0.5,0,0.7s-0.2,0.4,0.1,0.5
		c0.7,0.3,0.7,0.6,0,0.9c-0.1,0.1-0.3,0.1-0.5,0.2c0-0.7-0.8-1.4,0.2-2.1c-1-0.3-2.2-0.5-1.4-1.6c0.1,0,0.2,0.2,0.4,0.2
		s0.3,0,0.3-0.1c0-0.3-0.6-0.3-0.6-0.4s-0.3,0-0.4,0.1c-0.5,0.5-1.6,0.8-1.9,1.4C93.5,117.7,93.5,118,93,117.9z M102.9,120.4
		c-0.6-0.5-0.3-0.9,0.2-1.2C103.5,119.7,102.4,120,102.9,120.4L102.9,120.4z"/>
	<polygon class="st0" points="93,117.9 93,117.9 93,117.9 93,117.9 	"/>
	<polygon class="st0" points="218,116.4 218,116.4 218,116.4 218,116.4 	"/>
	<path class="st0" d="M105.5,122.1c-0.5,0-0.7,0.3-1.1,0.4c1.7,0.2,3.5,0.3,5.2,0.3c-0.2-0.4,0.3-0.7,0.4-1.1c0,0,0,0,0-0.1
		c0-0.2-0.1-0.3-0.3-0.4c-0.3-0.1-0.4,0.2-0.4,0.3c-0.1,0.3-0.3,0.6-0.6,0.8c-0.4-0.3,0-0.7-0.5-1c-0.2-0.1,0.4-0.2,0.4-0.4
		c-0.5-0.4-0.9-0.9-1.2-1.4c-0.2,0.1-0.1,0.2-0.2,0.4c-0.1,0.2-0.3,0.4-0.5,0.4c-0.1,0-0.2,0-0.3-0.1c-0.1-0.2-0.2-0.5,0-0.7
		c0.1-0.1,0.3-0.2,0.4-0.2c0.1-0.1,0.1-0.2,0-0.3c-0.1-0.1-0.2-0.1-0.4-0.1c-0.3,0.2-1.1,0.2-0.7,0.8c0.1,0.1,0.1,0.3,0,0.4
		c-0.6,0.4-0.3,0.8,0,1.2c0.3,0.2,1,0,0.9,0.4C106.6,122.2,106,122.1,105.5,122.1z"/>
	<path class="st0" d="M96.9,127c0.1,0.4,0.4,0.8,0.4,1.1s0.4,0.3,0.7,0.3c0.6,0,1.1-0.1,1.4-0.5c0.1-0.2,0-0.5-0.3-0.6
		c-0.5-0.2-0.5,0.4-0.9,0.4c0.1-0.4,0-0.8-0.3-1.1c-0.2,0-0.1,0-0.1,0.2s0.3,0.4,0,0.5C97.3,127.4,97.2,127,96.9,127z"/>
	<path class="st0" d="M61.5,112.7c-0.1,0.3,0,0.5,0.6,0.4c0.3-0.1,0.6,0,0.5,0.3s0.3,0.5,0.7,0.6c0.6,0.1,0.4-0.3,0.5-0.4
		c0.3-0.8,0.3-0.8-0.8-0.7C62.4,112.9,62,112.8,61.5,112.7z"/>
	<path class="st0" d="M143.7,16.8C143.7,16.7,143.7,16.7,143.7,16.8c0-0.3-0.2-0.5-0.4-0.5c-0.6,0,0,0.5-0.5,0.6
		c0,0.2,0.1,0.3,0.4,0.3C143.5,17.2,143.6,17,143.7,16.8z"/>
	<path class="st0" d="M55.3,103.5c-0.1,0.1,0,0.3,0.2,0.3c0.2,0.1,0.4,0,0.6-0.1c0.2-0.1,0.2-0.2,0-0.3c-0.4-0.1-0.1-0.4-0.2-0.6
		C55.4,103,55.4,103.4,55.3,103.5z"/>
	<path class="st0" d="M119.5,18.1c0-0.1-0.1-0.2-0.3-0.2s-0.5,0.1-0.5,0.3s0.2,0.2,0.4,0.2C119.4,18.3,119.5,18.2,119.5,18.1z"/>
	<polygon class="st0" points="178.7,16.2 178.7,16.2 178.7,16.2 178.7,16.2 	"/>
	<path class="st0" d="M178.8,16.5c0-0.1-0.1-0.2-0.1-0.2c-0.1,0.1-0.2,0.1-0.3,0.2c0,0,0,0,0,0c-0.1,0.1,0,0.2,0,0.2
		c0.1,0,0.2,0,0.2,0C178.8,16.7,178.8,16.6,178.8,16.5z"/>
	<path class="st0" d="M85.8,113.2c-0.5-0.2-0.9,0-1.3-0.2c-0.4,0.1-0.7,0.4-1,0.7c0,0.3-0.4,0.7,0.8,0.5c-0.4,0.4-0.7,0.6-0.5,0.9
		c0.1,0.1,0.3,0.1,0.5-0.2l0.1-0.2c0.4,0.1,0.1,0.2,0.2,0.4c0.2-0.2,0.7-0.2,0.9-0.6c0.2,0.2,0,0.6,0.7,0.6
		c-0.1-0.2-0.3-0.4,0.2-0.5c0.2,0,0.3-0.2,0.2-0.3c-0.6-0.7,0-0.6,0.7-0.6c0.1-0.2-0.2-0.4-0.2-0.5s0.1-0.1,0.1-0.1
		c0.2,0,0.4,0.2,0.6,0s-0.2-0.2-0.4-0.3c-0.5-0.2-1.1-0.1-1.4-0.6c-0.1-0.2-0.4,0-0.4,0.2C85.7,112.5,85.8,112.8,85.8,113.2z"/>
	<path class="st0" d="M84.8,111.8c0.2,0.3-0.1,0.6,0,0.9c0.2,0,0.3-0.1,0.4-0.3c0.2-0.4,0.4-0.9,0.4-1.5c0-0.1,0-0.3-0.1-0.3
		c-0.1,0-0.3,0-0.3,0.1c-0.2,0.3-0.2,0.9-1.1,0.5c-0.1-0.1-0.2,0.1-0.1,0.2c0.3,0.2,0.4,0.5,0.5,0.8L84.8,111.8z"/>
	<path class="st0" d="M112.3,116.1L112.3,116.1c-0.2,0.1-0.3,0.1-0.3,0.3s-0.4,0.4,0,0.5c0.2,0.1,0.5,0,0.7-0.2
		c0.3-0.2,0.1-0.4-0.2-0.5C112.4,116.2,112.3,116.1,112.3,116.1z"/>
	<path class="st0" d="M79.4,108.2c0.1-0.3,0.1-0.6-0.4-0.7C79,107.7,79.1,107.9,79.4,108.2z"/>
	<path class="st0" d="M403.5,36.7c-0.3-0.4-0.8-0.6-1.3-0.6c0.2,0.3,0.4,0.6,0.5,0.8s0.2,0.4,0.5,0.3
		C403.6,37.1,403.7,36.9,403.5,36.7z"/>
	<polygon class="st0" points="397.9,32.7 397.9,32.7 397.9,32.7 	"/>
	<path class="st0" d="M397.8,32.7c-0.6,0.2-0.6,0.5,0.2,1.1C398.1,33.4,397.7,33.1,397.8,32.7z"/>
	<path class="st0" d="M161.9,120.1c0.2,0.3,0.5,0.4,0.8,0.2c0.5-0.1,0.9-0.2,1.3-0.4c0,0,0,0,0.1-0.1c0.2-0.2,0.6-0.1,0.7,0.1
		c0.2,0.2,0.5,0.3,0.7,0.3c0.4,0.1,0.5-0.1,0.4-0.5c-0.2-0.6,0.1-0.7,0.6-0.8c0.3,0,0.7,0.1,1,0.2c0.5,0.1,0.3,0.6,0.3,0.9
		c0,0.1,0,0.3,0.2,0.3c0.2,0,0.4-0.2,0.4-0.4c0-0.4-0.1-0.8-0.2-1.1c0.4,0,0.9,0,0.7-0.7c0-0.2,0.1-0.3,0.1-0.5
		c0.1-0.8,0.2-0.8,0.9-0.4c0.2-0.3,0.2-0.7,0.5-0.8c0,0,0,0,0.1,0c0.2,0.1,0.5,0,0.6-0.3c-0.2-0.2-0.5-0.2-0.7-0.2h-0.1
		c-0.1-0.1-0.2-0.3-0.3-0.6c-0.8,0.4-1.7,0.1-2.6,0.3h-1c-0.4,0.1-0.9-0.3-1.2,0.2c0,0.2,0.1,0.5,0.1,0.7c0.2,0.5,0.3,0.2,0.4,0
		c0.1,0,0.1-0.1,0.2-0.1c0.1,0,0.3,0,0.4,0c-0.1,0-0.3,0-0.4,0c-0.1,0-0.1,0.1-0.2,0.1c0.2,0.1,0.6-0.1,0.5,0.4
		c0.1,0.2,0.1,0.4,0.2,0.6c0.2,0.2,0.4,0.4,0.2,0.7c-0.2,0.3-0.5,0.4-0.8,0.3l0,0c-0.3-0.2-0.7,0.2-0.8,0.2s-0.3,0.2-0.4,0
		s-0.3-0.2-0.4,0.1c-0.1,0.5-0.7-0.4-0.7,0.4c-0.3-0.1-0.2-0.6-0.3-0.5c-0.4,0.2-0.7-0.1-1,0C161.9,119.2,161.8,119.7,161.9,120.1z
		 M167,117.6c0-0.6,0.5-0.5,0.8-0.7c0.2-0.1,0.4,0,0.4,0.1c0.1,0.2-0.1,0.2-0.1,0.3c0,0.3-0.2,0.7-0.4,0.9v0.4
		c0,0.1,0.1,0.1,0.1,0.2c-0.1-0.1-0.1-0.1-0.1-0.2C167.3,118.5,167,118.1,167,117.6z M162.1,119.6c0-0.2,0.1-0.3,0.3-0.4
		C162.2,119.3,162.1,119.4,162.1,119.6c0,0.1,0,0.2,0.1,0.3C162.1,119.8,162.1,119.7,162.1,119.6z"/>
	<path class="st0" d="M146.6,120.7c0,0.3,0.2,0.2,0.4,0.2c0.6-0.1,1.2,0,1.8,0.2c0.1,0,0.1,0.1,0.3,0c0,0,0,0,0.1,0
		c0.5-0.3,1.1-0.2,1.4,0.3c0.1,0.2,0.3,0.1,0.3,0c0.2-0.5,0.7-0.5,1.1-0.6c0.1,0.1,0.1,0.1,0.2,0.2c0.1,0.2,0.4,0.1,0.5,0
		s0.2-0.2,0.2-0.2c0.5-0.1,0.9-0.1,1.4-0.1c0.1,0,0.2,0.1,0.3,0.3c0.2,0.5,0.6,0.5,0.9,0c0.2-0.3,0.4-0.3,0.6-0.2
		c0.1,0.4,0.3,0.7,0.6,0.1c0.1-0.3,0.4-0.5,0.7-0.5c0.4,0,0.2-0.2,0.1-0.3c-0.4-0.3-0.8-0.5-1.3-0.4l0,0c-0.1,0.2-0.3,0.4-0.5,0.2
		c-0.4-0.2-0.9-0.2-1.2,0.1c-0.2,0.1-0.4,0.4-0.5-0.1l0,0c0.4-0.7,0.1-1.2,0-1.8c-0.2,0-0.5-0.1-0.3-0.3c0.6-0.4,0.2-1,0.6-1.4
		l0.2-0.2l-0.2-0.7c-0.3,0.1-0.3,0.4-0.5,0.6c-0.3,0.6,0,1.2-0.5,1.7c0,0,0,0.1,0,0.1c-0.1,0.8-0.1,0.8-0.8,1.4v0.1
		c0.1,0.2-0.3,0.3-0.4,0.5s0,0.3,0.1,0.4c-0.4,0-0.8,0-1.1-0.1c-0.1-0.1-0.3-0.1-0.4-0.1c-0.6,0.3-1,0-1.6-0.1l0,0l-1.1-0.1
		c0,0,0,0,0,0c-0.1,0-0.3,0.1-0.3,0.2c0,0.2-0.1,0.4-0.4,0.2C146.9,120.3,146.6,120.5,146.6,120.7z M156.2,119.7L156.2,119.7z
		 M153.7,119.9c-0.2,0.1-0.5,0.1-0.8,0c0.2-0.2,0.4-0.4,0.6-0.6C153.8,119.5,153.7,119.7,153.7,119.9L153.7,119.9z"/>
	<path class="st0" d="M149.8,122.6c-0.1,0-0.2,0.1-0.2,0.1c0,0.4,0.5,0.6,0.5,1.1c0,0,0.3,0,0.5-0.3s0.2-0.5,0.6-0.3
		c0.1,0.1,0.5,0.2,0.5-0.2s-0.2-0.4-0.5-0.4H151C150.6,122.6,150.2,122.6,149.8,122.6z"/>
	<path class="st0" d="M139.5,121.6c0.4,0,0.8,0,1.1,0c0.2,0,0.4-0.2,0.4-0.4c0.1-0.3-0.1-0.3-0.3-0.4s-0.4-0.3-0.6-0.2
		s-0.6-0.1-0.3,0.4C140.1,121.4,139.5,121.3,139.5,121.6z"/>
	<path class="st0" d="M161.9,122.6c0.8,0.2,1.7,0.1,2.5-0.3c0.1,0,0.1-0.1,0.1-0.2c0-0.2-0.1-0.2-0.2-0.2c-0.7,0.2-1.5,0.3-2.3,0.4
		C162,122.4,162,122.5,161.9,122.6z"/>
	<path class="st0" d="M159.3,117.5v-0.4c-0.3,0-0.6,0.2-0.8,0.2s-0.3,0.1-0.2,0.4s0,0.7,0.3,0.7C159,118.3,159.3,118,159.3,117.5z"
		/>
	<path class="st0" d="M160.4,119.4c-0.2,0-0.4,0.1-0.5,0.3c-0.1,0.3,0.2,0.4,0.5,0.4c0.1,0,0.2,0.1,0.3,0.1c0.3,0,0.5,0,0.5-0.3
		s-0.2-0.4-0.4-0.3c0,0-0.1-0.1-0.2-0.1C160.5,119.5,160.5,119.4,160.4,119.4z"/>
	<path class="st0" d="M157.8,117.6C157.8,117.6,157.8,117.6,157.8,117.6c-0.1-0.2-0.3-0.3-0.4-0.2c-0.2,0.1-0.4,0.1-0.6,0.2
		c-0.2,0.1-0.6-0.1-0.5,0.2s0.4,0.3,0.7,0.3c0.2,0,0.5-0.1,0.7-0.2C157.7,117.9,157.9,117.8,157.8,117.6z"/>
	<path class="st0" d="M156.8,122.9c0,0.2,0.1,0.2,0.2,0.2c0.6,0.1,1.1,0,1.6-0.4c-0.7-0.4-1.2,0-1.7,0
		C156.9,122.8,156.8,122.8,156.8,122.9z"/>
	<path class="st0" d="M178.5,119.1c-0.2,0.1-0.3,0.4-0.1,0.7c0.2,0.4,0.4,0,0.6-0.1c0.1,0,0.2-0.1,0.2-0.1c0.1-0.3,0.7-0.4,0.5-0.7
		s-0.7-0.2-1,0.2l0,0C178.7,119,178.6,119,178.5,119.1z"/>
	<path class="st0" d="M133.9,122.5c0.4,0,0.8-0.3,1.2-0.2c0.1,0,0.3-0.2,0.2-0.4s-0.1-0.2-0.3-0.2
		C134.6,121.9,134.1,121.9,133.9,122.5z"/>
	<path class="st0" d="M177.1,120c0.1,0.3,0.2,0.6,0.2,0.8c0.3-0.2,0.4-0.5,0.5-0.9c0.1-0.2,0-0.4-0.1-0.5c-0.1-0.1-0.2-0.1-0.3,0
		C177.2,119.6,177,119.7,177.1,120z"/>
	<path class="st0" d="M129,118c0.4,0.4,0.8,0.2,1.1,0.3c0.1,0,0.2,0,0.2-0.1c0-0.1,0-0.3-0.2-0.3C129.8,117.7,129.3,117.8,129,118z"
		/>
	<path class="st0" d="M126.7,117.5c0,0.3,0.3,0.3,0.5,0.2s0.6,0.1,0.6-0.3c0-0.2-0.2-0.2-0.4-0.2
		C127.2,117.3,126.8,117.2,126.7,117.5z"/>
	<path class="st0" d="M157.9,120.1c0.1,0.2,0.4,0.2,0.6,0.1c0,0,0.1,0,0.1,0.1c0.3,0.1,0.5-0.1,0.6-0.3c0.1-0.3-0.3-0.2-0.4-0.4
		c-0.3-0.2-0.6,0.1-0.9,0c-0.2-0.1-0.2,0.3-0.1,0.4C157.9,120,157.9,120.1,157.9,120.1z"/>
	<path class="st0" d="M145.3,120.9c-0.1,0.2,0.2,0.2,0.5,0.2s0.6,0.1,0.6-0.4s-0.5-0.5-0.6-0.5C145.4,120.2,145.3,120.8,145.3,120.9
		z"/>
	<path class="st0" d="M361,124.3c-0.1,0.3-0.1,0.5,0.1,0.8c0.1,0.1,0.2,0.2,0.4,0.1v-0.1c0.1-0.3,0-0.6-0.2-0.8
		C361.1,124.2,361,124.2,361,124.3z"/>
	<path class="st0" d="M129,122.6C129,122.7,129,122.7,129,122.6c-0.1,0.1-0.1,0.2,0,0.2c0,0.1,0.1,0.1,0.1,0.1
		c0.3-0.1,0.6-0.3,0.9-0.4c0,0,0,0,0,0c0.1-0.1,0-0.2,0-0.2c0,0-0.1,0-0.1,0L129,122.6z"/>
	<path class="st0" d="M170.7,117.4c-0.2,0.2-0.2,0.5-0.2,0.8c0,0,0,0.1,0,0.1c0.5,0,0.4-0.5,0.6-0.8c0,0-0.1-0.2-0.1-0.2
		C170.8,117.2,170.7,117.3,170.7,117.4z"/>
	<path class="st0" d="M165.4,122.2c0.2,0.1,0.4,0,0.7,0.1c-0.1-0.5-0.3-0.6-0.6-0.5C165.3,121.9,165,122,165.4,122.2z"/>
	<path class="st0" d="M152.5,123c0.1,0.2,0.2,0.2,0.4,0.2s0.3-0.1,0.3-0.3s-0.2-0.2-0.4-0.2C152.6,122.8,152.4,122.8,152.5,123z"/>
	<path class="st0" d="M160.6,116.7l-0.1,0.1c-0.1,0.2-0.5,0.1-0.5,0.5c0,0.1,0.1,0.1,0.1,0.1c0.2-0.2,0.7-0.1,0.6-0.7H160.6z"/>
	<path class="st0" d="M172.7,120.7l0.1,0.1c0.2,0,0.4,0.1,0.5-0.2c0,0,0,0,0,0c0-0.1,0-0.2-0.1-0.2
		C173,120.3,172.8,120.4,172.7,120.7z"/>
	<path class="st0" d="M197.8,120.1c0,0.2,0.1,0.2,0.3,0.2s0.3-0.1,0.3-0.2s-0.2-0.2-0.3-0.2C198,119.9,197.8,119.9,197.8,120.1z"/>
	<path class="st0" d="M153.6,121.3c0,0.2,0,0.3,0.2,0.3c0,0,0,0,0.1,0c0.1,0,0.1-0.1,0.1-0.1c0-0.1-0.1-0.3-0.2-0.3
		C153.7,121.1,153.6,121.1,153.6,121.3z"/>
	<path class="st0" d="M389.5,119.3c-0.2,0-0.4,0.1-0.4,0.3c0.1,0.2,0.4,0.4,0.7,0.4c0,0,0.1,0,0.1,0c0.1,0,0.2-0.2,0.1-0.3
		C390,119.4,389.7,119.2,389.5,119.3z"/>
	<path class="st0" d="M389.6,118.4c0.2,0,0.2-0.2,0.2-0.3c0-0.1,0-0.2-0.1-0.2c0,0,0,0,0,0c-0.1,0-0.3,0.1-0.3,0.2
		C389.4,118.2,389.5,118.3,389.6,118.4z"/>
	<path class="st0" d="M160.2,113.6c0.4,0.2,0.9,0.2,1.2,0C161,113.5,160.6,113.5,160.2,113.6z"/>
	<path class="st0" d="M171.8,116.9c0.1-0.3,0.6-0.2,0.6-0.5s0.1-0.9-0.4-0.6c-0.3,0.1-0.7-0.2-0.7,0.3
		C171.3,116.5,171.5,116.8,171.8,116.9z"/>
	<path class="st0" d="M176,117.3c0,0.2,0.2,0.1,0.4,0.1c0.9-0.2,1.1-0.9,0.6-1.9l-0.2,0.9c-0.1,0.3-0.2,0.6-0.6,0.6
		C176.1,117,176,117.1,176,117.3z"/>
	<path class="st0" d="M171,120.2c-0.1,0-0.2,0.1-0.2,0.2c0.6,0,0,0.9,0.6,1l0,0c0.3-0.3,0.4-0.7,0.2-1
		C171.5,120.2,171.3,120.2,171,120.2C171,120.2,171,120.2,171,120.2z"/>
	<path class="st0" d="M175,120.5c0.1,0.3,0.3,0.3,0.5,0.2c0-0.1,0.1-0.2,0.1-0.2c0.1-0.2,0.4-0.3,0.2-0.6s-0.3-0.1-0.5,0
		C175.2,120,175,120.2,175,120.5z"/>
	<polygon class="st0" points="175.5,120.6 175.5,120.6 175.5,120.6 	"/>
</g>
</svg>
